<svg width="194" height="57" viewBox="0 0 194 57" fill="none" xmlns="http://www.w3.org/2000/svg">
<rect x="3.81992" y="3.6207" width="187.2" height="48.8" fill="#141E23" stroke="url(#paint0_angular_110_3264)" stroke-width="0.8" stroke-linejoin="bevel"/>
<path d="M70.125 34H68.5234V30.7969H59.5859V29.2031H68.5234V24.3984H62.7812C62.2344 24.3984 61.7188 24.5052 61.2344 24.7188C60.75 24.9271 60.3281 25.2135 59.9688 25.5781C59.6094 25.9375 59.3229 26.3594 59.1094 26.8438C58.901 27.3281 58.7969 27.8464 58.7969 28.3984V34H57.1953V28.3984C57.1953 27.8828 57.2604 27.388 57.3906 26.9141C57.526 26.4349 57.7135 25.9896 57.9531 25.5781C58.1979 25.1615 58.4896 24.7839 58.8281 24.4453C59.1719 24.1016 59.5495 23.8073 59.9609 23.5625C60.3776 23.3177 60.8229 23.1302 61.2969 23C61.7708 22.8646 62.2656 22.7969 62.7812 22.7969H70.125V34ZM78.8906 34H77.2891V24.3984H71.625V22.7969H84.5547V24.3984H78.8906V34ZM92.1406 34H90.5391V24.3984H84.875V22.7969H97.8047V24.3984H92.1406V34ZM111.719 34H110.117V30.7969H101.18V29.2031H110.117V24.3984H104.375C103.828 24.3984 103.312 24.5052 102.828 24.7188C102.344 24.9271 101.922 25.2135 101.562 25.5781C101.203 25.9375 100.917 26.3594 100.703 26.8438C100.495 27.3281 100.391 27.8464 100.391 28.3984V34H98.7891V28.3984C98.7891 27.8828 98.8542 27.388 98.9844 26.9141C99.1198 26.4349 99.3073 25.9896 99.5469 25.5781C99.7917 25.1615 100.083 24.7839 100.422 24.4453C100.766 24.1016 101.143 23.8073 101.555 23.5625C101.971 23.3177 102.417 23.1302 102.891 23C103.365 22.8646 103.859 22.7969 104.375 22.7969H111.719V34ZM126.133 34H118.922C118.146 34 117.44 33.8542 116.805 33.5625C116.169 33.2708 115.625 32.8724 115.172 32.3672C114.724 31.862 114.378 31.2682 114.133 30.5859C113.888 29.9036 113.766 29.1745 113.766 28.3984C113.766 27.6276 113.888 26.9036 114.133 26.2266C114.378 25.5443 114.724 24.9505 115.172 24.4453C115.625 23.9349 116.169 23.5339 116.805 23.2422C117.44 22.9453 118.146 22.7969 118.922 22.7969H126.133V24.3984H118.922C118.37 24.3984 117.872 24.5052 117.43 24.7188C116.992 24.9271 116.62 25.2135 116.312 25.5781C116.01 25.9375 115.776 26.3594 115.609 26.8438C115.448 27.3281 115.367 27.8464 115.367 28.3984C115.367 28.9505 115.448 29.4714 115.609 29.9609C115.776 30.4453 116.01 30.8698 116.312 31.2344C116.62 31.5938 116.992 31.8776 117.43 32.0859C117.872 32.2943 118.37 32.3984 118.922 32.3984H126.133V34ZM141.102 34H138.945L133.227 28.2422L129.68 30.7969V34H128.078V22.7969H129.68V29.0391L138.461 22.7969H140.797L134.445 27.3594L141.102 34ZM153.961 34H142.375V22.7969H153.961V24.3984H143.977V32.3984H153.961V34ZM152.602 29.2031H144.773V27.6016H152.602V29.2031ZM168.883 34H166.719L163.359 30.7969H158.453V29.2188H164.883C165.216 29.2188 165.529 29.1562 165.82 29.0312C166.112 28.901 166.365 28.7266 166.578 28.5078C166.797 28.2891 166.969 28.0339 167.094 27.7422C167.219 27.4453 167.281 27.1302 167.281 26.7969C167.281 26.4635 167.219 26.151 167.094 25.8594C166.969 25.5677 166.797 25.3151 166.578 25.1016C166.365 24.8828 166.112 24.7109 165.82 24.5859C165.529 24.4609 165.216 24.3984 164.883 24.3984H157.555V34H155.953V22.7969H164.883C165.435 22.7969 165.953 22.9036 166.438 23.1172C166.922 23.3255 167.344 23.612 167.703 23.9766C168.068 24.3359 168.354 24.7578 168.562 25.2422C168.776 25.7266 168.883 26.2448 168.883 26.7969C168.883 27.2969 168.797 27.7708 168.625 28.2188C168.453 28.6615 168.216 29.0599 167.914 29.4141C167.612 29.763 167.255 30.0547 166.844 30.2891C166.438 30.5182 165.997 30.6719 165.523 30.75L168.883 34Z" fill="url(#paint1_angular_110_3264)"/>
<path fill-rule="evenodd" clip-rule="evenodd" d="M3.34121 0.0214845H11.6607V3.14148H3.34121L3.34121 11.4615H0.221209L0.221209 3.14148H0.220703V0.0214845H0.221209V0.0214844L3.34121 0.0214845Z" fill="#F2E5CF"/>
<path fill-rule="evenodd" clip-rule="evenodd" d="M190.86 0.0214845H182.54V3.14148H190.86L190.86 11.4615H193.98L193.98 3.14148H193.98V0.0214845H193.98V0.0214844L190.86 0.0214845Z" fill="#F2E5CF"/>
<path fill-rule="evenodd" clip-rule="evenodd" d="M3.34003 56.1816H11.6597V53.0616H3.34003L3.34003 44.7416H0.220034L0.220034 53.0616H0.219727V56.1816H0.220034V56.1816L3.34003 56.1816Z" fill="#F2E5CF"/>
<path fill-rule="evenodd" clip-rule="evenodd" d="M190.86 56.1816H182.54V53.0616H190.86L190.86 44.7416H193.98L193.98 53.0616H193.98V56.1816H193.98V56.1816L190.86 56.1816Z" fill="#F2E5CF"/>
<path d="M28.6732 28.7831C28.3228 28.4327 28.2693 27.8831 28.5455 27.4718L33.8455 19.5737C33.9115 19.4753 33.9869 19.3835 34.0709 19.2995C34.3479 19.0225 34.7065 18.8417 35.0936 18.7839L40.221 18.0171C40.7069 17.9444 41.1987 18.1065 41.546 18.4538C41.8932 18.801 42.0553 19.2928 41.9827 19.7788L41.2155 24.9062C41.1577 25.2933 40.9768 25.6519 40.6999 25.9288C40.6159 26.0128 40.5241 26.0882 40.4256 26.1542L32.5279 31.4542C32.1162 31.7304 31.567 31.6769 31.2166 31.3265L31.1764 31.2863C30.7682 30.8781 30.7717 30.2148 31.185 29.8109L35.476 25.6171C35.7616 25.3382 35.7709 24.8823 35.4975 24.5913C35.2166 24.2925 34.7451 24.2827 34.4518 24.5694L30.1314 28.7917C29.7252 29.1886 29.0752 29.1851 28.6732 28.7831ZM35.3502 32.1304C34.9608 31.75 34.358 31.6945 33.9057 31.998L32.1611 33.1687C31.7049 33.475 31.0959 33.4156 30.7072 33.0269L26.9724 29.2921C26.5838 28.9034 26.5244 28.2945 26.8306 27.8382L28.0013 26.0937C28.3049 25.6417 28.2494 25.0386 27.8689 24.6491C27.3592 24.1276 26.4986 24.2065 26.092 24.812L24.9263 26.5487C23.9904 27.9437 24.1716 29.8058 25.3595 30.9937L26.0642 31.6984L25.4685 32.3226C25.0763 32.7148 24.5037 32.8757 23.9689 32.7293C23.447 32.5863 22.8654 32.7191 22.454 33.1273C21.8369 33.7402 21.8552 34.7465 22.4705 35.3613L24.638 37.5289C25.2603 38.1512 26.2806 38.1629 26.8908 37.5289C27.2853 37.1187 27.4123 36.5465 27.2717 36.0316C27.1252 35.4965 27.2861 34.9242 27.6783 34.532L28.2748 33.9086L29.0057 34.6394C30.1936 35.8273 32.0557 36.009 33.4506 35.0726L35.1873 33.907C35.7928 33.5011 35.8721 32.6406 35.3502 32.1304Z" fill="url(#paint2_angular_110_3264)"/>
<defs>
<radialGradient id="paint0_angular_110_3264" cx="0" cy="0" r="1" gradientUnits="userSpaceOnUse" gradientTransform="translate(97.4199 28.0207) scale(94 24.8)">
<stop stop-color="#A06939"/>
<stop offset="0.313195" stop-color="#C6A27E"/>
<stop offset="0.75531" stop-color="#FBF3E0"/>
<stop offset="1" stop-color="#957C50"/>
</radialGradient>
<radialGradient id="paint1_angular_110_3264" cx="0" cy="0" r="1" gradientUnits="userSpaceOnUse" gradientTransform="translate(112.82 28) scale(57 16)">
<stop stop-color="#A06939"/>
<stop offset="0.313195" stop-color="#C6A27E"/>
<stop offset="0.75531" stop-color="#FBF3E0"/>
<stop offset="1" stop-color="#957C50"/>
</radialGradient>
<radialGradient id="paint2_angular_110_3264" cx="0" cy="0" r="1" gradientUnits="userSpaceOnUse" gradientTransform="translate(31.9999 28) scale(9.99987 10)">
<stop stop-color="#A06939"/>
<stop offset="0.313195" stop-color="#C6A27E"/>
<stop offset="0.75531" stop-color="#FBF3E0"/>
<stop offset="1" stop-color="#957C50"/>
</radialGradient>
</defs>
</svg>
