<svg width="194" height="57" viewBox="0 0 194 57" fill="none" xmlns="http://www.w3.org/2000/svg">
<rect x="3.81992" y="3.6207" width="187.2" height="48.8" fill="#141E23" stroke="url(#paint0_angular_110_3388)" stroke-width="0.8" stroke-linejoin="bevel"/>
<path d="M69.8096 28.0195C69.8096 28.7956 69.6846 29.5247 69.4346 30.207C69.1898 30.8893 68.8408 31.4831 68.3877 31.9883C67.9346 32.4935 67.3903 32.8919 66.7549 33.1836C66.1247 33.4753 65.4242 33.6211 64.6533 33.6211H59.0049V32.0195H64.6533C65.2054 32.0195 65.7002 31.9154 66.1377 31.707C66.5804 31.4987 66.9528 31.2148 67.2549 30.8555C67.5622 30.4909 67.7965 30.0664 67.958 29.582C68.1247 29.0924 68.208 28.5716 68.208 28.0195C68.208 27.4674 68.1247 26.9492 67.958 26.4648C67.7965 25.9805 67.5622 25.5586 67.2549 25.1992C66.9528 24.8346 66.5804 24.5482 66.1377 24.3398C65.7002 24.1263 65.2054 24.0195 64.6533 24.0195H58.208V33.6211H56.6064V22.418H64.6533C65.4242 22.418 66.1247 22.5664 66.7549 22.8633C67.3903 23.1549 67.9346 23.556 68.3877 24.0664C68.8408 24.5716 69.1898 25.1654 69.4346 25.8477C69.6846 26.5247 69.8096 27.2487 69.8096 28.0195ZM83.4424 33.6211H71.8564V22.418H83.4424V24.0195H73.458V32.0195H83.4424V33.6211ZM82.083 28.8242H74.2549V27.2227H82.083V28.8242ZM97.0361 24.0195H87.0361V33.6211H85.4346V22.418H97.0361V24.0195ZM95.6611 28.8242H87.833V27.2227H95.6611V28.8242ZM110.239 33.6211H98.6533V22.418H110.239V24.0195H100.255V32.0195H110.239V33.6211ZM108.88 28.8242H101.052V27.2227H108.88V28.8242ZM113.833 33.6211H112.231V22.418H113.028C113.549 22.418 114.101 22.4857 114.685 22.6211C115.273 22.7565 115.872 22.9518 116.481 23.207C117.091 23.4622 117.698 23.7721 118.302 24.1367C118.911 24.4961 119.5 24.9049 120.067 25.3633C120.635 25.8216 121.169 26.3216 121.669 26.8633C122.169 27.3997 122.617 27.9727 123.013 28.582V22.418H124.614V33.6211H123.013C123.013 32.7982 122.869 32.0065 122.583 31.2461C122.297 30.4805 121.914 29.7591 121.435 29.082C120.955 28.4049 120.403 27.7826 119.778 27.2148C119.153 26.6419 118.5 26.1393 117.817 25.707C117.14 25.2747 116.458 24.9206 115.771 24.6445C115.083 24.3633 114.437 24.1758 113.833 24.082V33.6211ZM140.513 28.0195C140.513 28.7956 140.388 29.5247 140.138 30.207C139.893 30.8893 139.544 31.4831 139.091 31.9883C138.638 32.4935 138.093 32.8919 137.458 33.1836C136.828 33.4753 136.127 33.6211 135.356 33.6211H129.708V32.0195H135.356C135.909 32.0195 136.403 31.9154 136.841 31.707C137.284 31.4987 137.656 31.2148 137.958 30.8555C138.265 30.4909 138.5 30.0664 138.661 29.582C138.828 29.0924 138.911 28.5716 138.911 28.0195C138.911 27.4674 138.828 26.9492 138.661 26.4648C138.5 25.9805 138.265 25.5586 137.958 25.1992C137.656 24.8346 137.284 24.5482 136.841 24.3398C136.403 24.1263 135.909 24.0195 135.356 24.0195H128.911V33.6211H127.31V22.418H135.356C136.127 22.418 136.828 22.5664 137.458 22.8633C138.093 23.1549 138.638 23.556 139.091 24.0664C139.544 24.5716 139.893 25.1654 140.138 25.8477C140.388 26.5247 140.513 27.2487 140.513 28.0195ZM154.146 33.6211H142.56V22.418H154.146V24.0195H144.161V32.0195H154.146V33.6211ZM152.786 28.8242H144.958V27.2227H152.786V28.8242ZM169.067 33.6211H166.903L163.544 30.418H158.638V28.8398H165.067C165.401 28.8398 165.713 28.7773 166.005 28.6523C166.297 28.5221 166.549 28.3477 166.763 28.1289C166.981 27.9102 167.153 27.6549 167.278 27.3633C167.403 27.0664 167.466 26.7513 167.466 26.418C167.466 26.0846 167.403 25.7721 167.278 25.4805C167.153 25.1888 166.981 24.9362 166.763 24.7227C166.549 24.5039 166.297 24.332 166.005 24.207C165.713 24.082 165.401 24.0195 165.067 24.0195H157.739V33.6211H156.138V22.418H165.067C165.619 22.418 166.138 22.5247 166.622 22.7383C167.106 22.9466 167.528 23.2331 167.888 23.5977C168.252 23.957 168.539 24.3789 168.747 24.8633C168.961 25.3477 169.067 25.8659 169.067 26.418C169.067 26.918 168.981 27.3919 168.81 27.8398C168.638 28.2826 168.401 28.681 168.099 29.0352C167.797 29.3841 167.44 29.6758 167.028 29.9102C166.622 30.1393 166.182 30.293 165.708 30.3711L169.067 33.6211Z" fill="url(#paint1_angular_110_3388)"/>
<path fill-rule="evenodd" clip-rule="evenodd" d="M3.34121 0.0214845H11.6607V3.14148H3.34121L3.34121 11.4615H0.221209L0.221209 3.14148H0.220703V0.0214845H0.221209V0.0214844L3.34121 0.0214845Z" fill="#F2E5CF"/>
<path fill-rule="evenodd" clip-rule="evenodd" d="M190.86 0.0214845H182.54V3.14148H190.86L190.86 11.4615H193.98L193.98 3.14148H193.98V0.0214845H193.98V0.0214844L190.86 0.0214845Z" fill="#F2E5CF"/>
<path fill-rule="evenodd" clip-rule="evenodd" d="M3.34003 56.1816H11.6597V53.0616H3.34003L3.34003 44.7416H0.220034L0.220034 53.0616H0.219727V56.1816H0.220034V56.1816L3.34003 56.1816Z" fill="#F2E5CF"/>
<path fill-rule="evenodd" clip-rule="evenodd" d="M190.86 56.1816H182.54V53.0616H190.86L190.86 44.7416H193.98L193.98 53.0616H193.98V56.1816H193.98V56.1816L190.86 56.1816Z" fill="#F2E5CF"/>
<path d="M32.5938 29.8094V37.8008C32.5938 38.4633 32.0566 39 31.3945 39C31.1578 39 30.9262 38.9301 30.7293 38.7984C26.525 35.9961 24 31.2777 24 26.225V22.9062C24 22.0434 24.6996 21.3438 25.5625 21.3438C27.327 21.3438 29.0332 20.7125 30.373 19.5641L30.7109 19.2746C30.9176 19.0973 31.1809 19 31.4531 19C32.0832 19 32.5938 19.5105 32.5938 20.1406V22.2777C32.5938 23.9195 31.2613 25.2559 29.6215 25.2625C29.2199 25.2641 28.8727 25.5648 28.832 25.9641C28.7844 26.4328 29.1648 26.8227 29.6234 26.825C31.2625 26.8328 32.5938 28.1684 32.5938 29.8094ZM34.1562 29.8094C34.1562 28.1684 35.4875 26.8324 37.1266 26.8246C37.5855 26.8223 37.966 26.4324 37.918 25.9637C37.8773 25.5645 37.5301 25.2637 37.1285 25.2621C35.4887 25.2555 34.1562 23.9191 34.1562 22.2777V20.1406C34.1562 19.5105 34.6668 19 35.2969 19C35.5691 19 35.8324 19.0973 36.0391 19.2746L36.377 19.5641C37.7168 20.7125 39.423 21.3438 41.1875 21.3438C42.0504 21.3438 42.75 22.0434 42.75 22.9062V26.225C42.75 31.2773 40.225 35.9957 36.0211 38.7984C35.8242 38.9297 35.5926 39 35.3559 39C34.6934 39 34.1566 38.4629 34.1566 37.8008L34.1562 29.8094Z" fill="url(#paint2_angular_110_3388)"/>
<defs>
<radialGradient id="paint0_angular_110_3388" cx="0" cy="0" r="1" gradientUnits="userSpaceOnUse" gradientTransform="translate(97.4199 28.0207) scale(94 24.8)">
<stop stop-color="#A06939"/>
<stop offset="0.313195" stop-color="#C6A27E"/>
<stop offset="0.75531" stop-color="#FBF3E0"/>
<stop offset="1" stop-color="#957C50"/>
</radialGradient>
<radialGradient id="paint1_angular_110_3388" cx="0" cy="0" r="1" gradientUnits="userSpaceOnUse" gradientTransform="translate(112.521 27.6211) scale(57.5 16)">
<stop stop-color="#A06939"/>
<stop offset="0.313195" stop-color="#C6A27E"/>
<stop offset="0.75531" stop-color="#FBF3E0"/>
<stop offset="1" stop-color="#957C50"/>
</radialGradient>
<radialGradient id="paint2_angular_110_3388" cx="0" cy="0" r="1" gradientUnits="userSpaceOnUse" gradientTransform="translate(33.375 29) scale(9.375 10)">
<stop stop-color="#A06939"/>
<stop offset="0.313195" stop-color="#C6A27E"/>
<stop offset="0.75531" stop-color="#FBF3E0"/>
<stop offset="1" stop-color="#957C50"/>
</radialGradient>
</defs>
</svg>
