<svg width="208" height="57" viewBox="0 0 208 57" fill="none" xmlns="http://www.w3.org/2000/svg">
<rect x="4.41953" y="3.6207" width="200" height="48.8" fill="#141E23" stroke="url(#paint0_angular_110_3465)" stroke-width="0.8" stroke-linejoin="bevel"/>
<path d="M73.3994 30.418C73.3994 30.8659 73.3161 31.2852 73.1494 31.6758C72.9827 32.0612 72.7536 32.3997 72.4619 32.6914C72.1755 32.9779 71.8369 33.2044 71.4463 33.3711C71.0609 33.5378 70.6468 33.6211 70.2041 33.6211H60.4697V32.0195H70.2041C70.4281 32.0195 70.6364 31.9779 70.8291 31.8945C71.0218 31.8112 71.1885 31.6966 71.3291 31.5508C71.4749 31.4049 71.5895 31.2357 71.6729 31.043C71.7562 30.8451 71.7979 30.6367 71.7979 30.418C71.7979 30.1992 71.7562 29.9935 71.6729 29.8008C71.5895 29.6081 71.4749 29.4388 71.3291 29.293C71.1885 29.1471 71.0218 29.0326 70.8291 28.9492C70.6364 28.8659 70.4281 28.8242 70.2041 28.8242H63.6729C63.2354 28.8242 62.8213 28.7409 62.4307 28.5742C62.04 28.4076 61.6989 28.181 61.4072 27.8945C61.1208 27.6029 60.8916 27.2617 60.7197 26.8711C60.5531 26.4805 60.4697 26.0638 60.4697 25.6211C60.4697 25.1836 60.5531 24.7695 60.7197 24.3789C60.8916 23.9883 61.1208 23.6497 61.4072 23.3633C61.6989 23.0716 62.04 22.8424 62.4307 22.6758C62.8213 22.5039 63.2354 22.418 63.6729 22.418H72.6025V24.0195H63.6729C63.4541 24.0195 63.2458 24.0612 63.0479 24.1445C62.8551 24.2279 62.6859 24.3424 62.54 24.4883C62.3942 24.6341 62.2796 24.806 62.1963 25.0039C62.113 25.1966 62.0713 25.4023 62.0713 25.6211C62.0713 25.8398 62.113 26.0482 62.1963 26.2461C62.2796 26.4388 62.3942 26.6081 62.54 26.7539C62.6859 26.8997 62.8551 27.0143 63.0479 27.0977C63.2458 27.181 63.4541 27.2227 63.6729 27.2227H70.2041C70.6468 27.2227 71.0609 27.3086 71.4463 27.4805C71.8369 27.6471 72.1755 27.8763 72.4619 28.168C72.7536 28.4544 72.9827 28.793 73.1494 29.1836C73.3161 29.569 73.3994 29.9805 73.3994 30.418ZM87.2822 22.418L87.2666 28.0195C87.2666 28.5404 87.1989 29.0404 87.0635 29.5195C86.9333 29.9935 86.7458 30.4388 86.501 30.8555C86.2614 31.2669 85.9697 31.6445 85.626 31.9883C85.2874 32.3268 84.9098 32.6185 84.4932 32.8633C84.0817 33.1029 83.639 33.2904 83.165 33.4258C82.6911 33.556 82.1963 33.6211 81.6807 33.6211H80.501C79.9854 33.6211 79.488 33.556 79.0088 33.4258C78.5348 33.2904 78.0895 33.1003 77.6729 32.8555C77.2614 32.6107 76.8864 32.319 76.5479 31.9805C76.2093 31.6367 75.9176 31.2591 75.6729 30.8477C75.4333 30.431 75.2458 29.9857 75.1104 29.5117C74.9801 29.0326 74.915 28.5352 74.915 28.0195V22.418H76.5166V28.0195C76.5166 28.5716 76.6208 29.0924 76.8291 29.582C77.0374 30.0664 77.3213 30.4909 77.6807 30.8555C78.0452 31.2148 78.4697 31.4987 78.9541 31.707C79.4385 31.9154 79.9541 32.0195 80.501 32.0195H81.6807C82.2327 32.0195 82.751 31.9154 83.2354 31.707C83.7197 31.4987 84.1416 31.2148 84.501 30.8555C84.8604 30.4909 85.1442 30.0664 85.3525 29.582C85.5609 29.0924 85.665 28.5716 85.665 28.0195V22.418H87.2666H87.2822ZM102.524 26.418C102.524 26.9701 102.418 27.4909 102.204 27.9805C101.996 28.4648 101.709 28.8893 101.345 29.2539C100.985 29.6133 100.563 29.8971 100.079 30.1055C99.5947 30.3138 99.0765 30.418 98.5244 30.418H92.0947V28.8398H98.5244C98.8577 28.8398 99.1702 28.7773 99.4619 28.6523C99.7536 28.5221 100.006 28.3477 100.22 28.1289C100.438 27.9102 100.61 27.6549 100.735 27.3633C100.86 27.0664 100.923 26.7513 100.923 26.418C100.923 26.0846 100.86 25.7721 100.735 25.4805C100.61 25.1888 100.438 24.9362 100.22 24.7227C100.006 24.5039 99.7536 24.332 99.4619 24.207C99.1702 24.082 98.8577 24.0195 98.5244 24.0195H91.1963V33.6211H89.5947V22.418H98.5244C99.0765 22.418 99.5947 22.5247 100.079 22.7383C100.563 22.9466 100.985 23.2331 101.345 23.5977C101.709 23.957 101.996 24.3789 102.204 24.8633C102.418 25.3477 102.524 25.8659 102.524 26.418ZM117.196 26.418C117.196 26.9701 117.09 27.4909 116.876 27.9805C116.668 28.4648 116.381 28.8893 116.017 29.2539C115.657 29.6133 115.235 29.8971 114.751 30.1055C114.267 30.3138 113.748 30.418 113.196 30.418H106.767V28.8398H113.196C113.53 28.8398 113.842 28.7773 114.134 28.6523C114.425 28.5221 114.678 28.3477 114.892 28.1289C115.11 27.9102 115.282 27.6549 115.407 27.3633C115.532 27.0664 115.595 26.7513 115.595 26.418C115.595 26.0846 115.532 25.7721 115.407 25.4805C115.282 25.1888 115.11 24.9362 114.892 24.7227C114.678 24.5039 114.425 24.332 114.134 24.207C113.842 24.082 113.53 24.0195 113.196 24.0195H105.868V33.6211H104.267V22.418H113.196C113.748 22.418 114.267 22.5247 114.751 22.7383C115.235 22.9466 115.657 23.2331 116.017 23.5977C116.381 23.957 116.668 24.3789 116.876 24.8633C117.09 25.3477 117.196 25.8659 117.196 26.418ZM132.313 28.0195C132.313 28.7956 132.191 29.5247 131.946 30.207C131.701 30.8893 131.353 31.4831 130.899 31.9883C130.451 32.4935 129.912 32.8919 129.282 33.1836C128.652 33.4753 127.951 33.6211 127.181 33.6211H123.454C122.678 33.6211 121.972 33.4753 121.337 33.1836C120.701 32.8919 120.157 32.4935 119.704 31.9883C119.256 31.4831 118.91 30.8893 118.665 30.207C118.42 29.5247 118.298 28.7956 118.298 28.0195C118.298 27.2487 118.42 26.5247 118.665 25.8477C118.91 25.1654 119.256 24.5716 119.704 24.0664C120.157 23.556 120.701 23.1549 121.337 22.8633C121.972 22.5664 122.678 22.418 123.454 22.418H127.181C127.951 22.418 128.652 22.5664 129.282 22.8633C129.912 23.1549 130.451 23.556 130.899 24.0664C131.353 24.5716 131.701 25.1654 131.946 25.8477C132.191 26.5247 132.313 27.2487 132.313 28.0195ZM130.712 28.0195C130.712 27.4674 130.631 26.9492 130.47 26.4648C130.308 25.9805 130.074 25.5586 129.767 25.1992C129.465 24.8346 129.095 24.5482 128.657 24.3398C128.225 24.1263 127.733 24.0195 127.181 24.0195H123.454C122.902 24.0195 122.405 24.1263 121.962 24.3398C121.524 24.5482 121.152 24.8346 120.845 25.1992C120.543 25.5586 120.308 25.9805 120.142 26.4648C119.98 26.9492 119.899 27.4674 119.899 28.0195C119.899 28.5716 119.98 29.0924 120.142 29.582C120.308 30.0664 120.543 30.4909 120.845 30.8555C121.152 31.2148 121.524 31.4987 121.962 31.707C122.405 31.9154 122.902 32.0195 123.454 32.0195H127.181C127.733 32.0195 128.225 31.9154 128.657 31.707C129.095 31.4987 129.465 31.2148 129.767 30.8555C130.074 30.4909 130.308 30.0664 130.47 29.582C130.631 29.0924 130.712 28.5716 130.712 28.0195ZM147.29 33.6211H145.126L141.767 30.418H136.86V28.8398H143.29C143.623 28.8398 143.936 28.7773 144.228 28.6523C144.519 28.5221 144.772 28.3477 144.985 28.1289C145.204 27.9102 145.376 27.6549 145.501 27.3633C145.626 27.0664 145.688 26.7513 145.688 26.418C145.688 26.0846 145.626 25.7721 145.501 25.4805C145.376 25.1888 145.204 24.9362 144.985 24.7227C144.772 24.5039 144.519 24.332 144.228 24.207C143.936 24.082 143.623 24.0195 143.29 24.0195H135.962V33.6211H134.36V22.418H143.29C143.842 22.418 144.36 22.5247 144.845 22.7383C145.329 22.9466 145.751 23.2331 146.11 23.5977C146.475 23.957 146.761 24.3789 146.97 24.8633C147.183 25.3477 147.29 25.8659 147.29 26.418C147.29 26.918 147.204 27.3919 147.032 27.8398C146.86 28.2826 146.623 28.681 146.321 29.0352C146.019 29.3841 145.662 29.6758 145.251 29.9102C144.845 30.1393 144.405 30.293 143.931 30.3711L147.29 33.6211ZM155.36 33.6211H153.759V24.0195H148.095V22.418H161.024V24.0195H155.36V33.6211ZM174.118 33.6211H162.532V22.418H174.118V24.0195H164.134V32.0195H174.118V33.6211ZM172.759 28.8242H164.931V27.2227H172.759V28.8242ZM189.04 33.6211H186.876L183.517 30.418H178.61V28.8398H185.04C185.373 28.8398 185.686 28.7773 185.978 28.6523C186.269 28.5221 186.522 28.3477 186.735 28.1289C186.954 27.9102 187.126 27.6549 187.251 27.3633C187.376 27.0664 187.438 26.7513 187.438 26.418C187.438 26.0846 187.376 25.7721 187.251 25.4805C187.126 25.1888 186.954 24.9362 186.735 24.7227C186.522 24.5039 186.269 24.332 185.978 24.207C185.686 24.082 185.373 24.0195 185.04 24.0195H177.712V33.6211H176.11V22.418H185.04C185.592 22.418 186.11 22.5247 186.595 22.7383C187.079 22.9466 187.501 23.2331 187.86 23.5977C188.225 23.957 188.511 24.3789 188.72 24.8633C188.933 25.3477 189.04 25.8659 189.04 26.418C189.04 26.918 188.954 27.3919 188.782 27.8398C188.61 28.2826 188.373 28.681 188.071 29.0352C187.769 29.3841 187.412 29.6758 187.001 29.9102C186.595 30.1393 186.155 30.293 185.681 30.3711L189.04 33.6211Z" fill="url(#paint1_angular_110_3465)"/>
<path fill-rule="evenodd" clip-rule="evenodd" d="M3.93964 0.0214845H12.2593V3.14148H3.93964L3.93964 11.4615H0.819643L0.819644 3.14148H0.819336V0.0214845H0.819644V0.0214844L3.93964 0.0214845Z" fill="#F2E5CF"/>
<path fill-rule="evenodd" clip-rule="evenodd" d="M204.26 0.0214845H195.94V3.14148H204.26L204.26 11.4615H207.38L207.38 3.14148H207.38V0.0214845H207.38V0.0214844L204.26 0.0214845Z" fill="#F2E5CF"/>
<path fill-rule="evenodd" clip-rule="evenodd" d="M3.93964 56.1816H12.2593V53.0616H3.93964L3.93964 44.7416H0.819643L0.819644 53.0616H0.819336V56.1816H0.819644V56.1816L3.93964 56.1816Z" fill="#F2E5CF"/>
<path fill-rule="evenodd" clip-rule="evenodd" d="M204.26 56.1816H195.94V53.0616H204.26L204.26 44.7416H207.38L207.38 53.0616H207.38V56.1816H207.38V56.1816L204.26 56.1816Z" fill="#F2E5CF"/>
<path fill-rule="evenodd" clip-rule="evenodd" d="M24.0855 19.9677L26.4819 27.3916C26.8703 28.5934 27.4346 29.7147 28.1455 30.7334L29.2081 29.6707C28.6512 28.8353 28.1895 27.9265 27.8743 26.9445L25.7271 20.2828C27.9549 20.0044 31.4287 21.5653 34.6239 24.2549L37.4381 21.4408C35.4154 19.7185 33.2755 18.3921 31.2601 17.6519C28.5046 16.6405 26.262 16.8091 24.9429 18.1356C24.5985 18.48 24.3346 18.9124 24.1441 19.4034C24.1441 19.4107 24.1368 19.4254 24.1294 19.4327C24.1258 19.4437 24.1203 19.4547 24.1148 19.4657C24.1093 19.4767 24.1038 19.4877 24.1001 19.4987C24.0855 19.55 24.0781 19.6013 24.0708 19.6526L24.0708 19.6526C24.0708 19.6599 24.069 19.6672 24.0671 19.6746C24.0653 19.6819 24.0635 19.6892 24.0635 19.6966C24.0635 19.7845 24.0635 19.8651 24.0928 19.9531V19.975L24.0855 19.9677ZM38.0317 19.9167L40.626 21.3604L42.0697 23.9547C42.2016 24.1892 42.4435 24.3285 42.7073 24.3285H42.7952C43.0957 24.2918 43.3375 24.0793 43.4108 23.7861L44.9572 17.9233C45.0231 17.6741 44.9572 17.403 44.7666 17.2198C44.5761 17.0365 44.3122 16.9633 44.0631 17.0292L38.2002 18.5755C37.9071 18.6488 37.6946 18.898 37.6579 19.1911C37.6213 19.4843 37.7678 19.7774 38.0317 19.924V19.9167ZM29.1566 33.2181C29.0834 33.0423 28.9441 32.9103 28.7756 32.8371L27.8009 32.4193C26.9288 32.0456 25.9247 32.2361 25.2505 32.9103L23.2132 34.9477C23.0446 35.1162 22.964 35.3654 23.0153 35.6073C23.0593 35.8491 23.2205 36.047 23.4477 36.1422L25.1333 36.8678L25.8588 38.5533C25.9541 38.7732 26.1519 38.9418 26.3938 38.9857C26.4377 38.9931 26.489 39.0004 26.533 39.0004C26.7236 39.0004 26.9141 38.9271 27.0533 38.7879L29.0907 36.7505C29.7649 36.0763 29.9555 35.0796 29.5817 34.2002L29.164 33.2255L29.1566 33.2181ZM37.7311 27.3623L40.5453 24.5482H40.5526C42.2748 26.5635 43.6013 28.7035 44.3415 30.7262C45.3455 33.4817 45.177 35.7242 43.8578 37.0434C43.4914 37.4171 43.037 37.703 42.4947 37.8935H42.48C42.4068 37.9228 42.3261 37.9375 42.2455 37.9375C42.1722 37.9375 42.0916 37.9228 42.0183 37.9008L34.5945 35.5044C33.3926 35.116 32.264 34.5517 31.2527 33.8408L32.3153 32.7782C33.1581 33.3351 34.0669 33.7968 35.0416 34.112L41.7032 36.2592C41.9817 34.0313 40.4134 30.5576 37.7311 27.3623ZM38.8814 22.0712L39.5483 22.4376L39.9148 23.1045L30.4536 32.5657C30.241 32.1113 29.8746 31.7522 29.4202 31.5324L38.8814 22.0712Z" fill="url(#paint2_angular_110_3465)"/>
<defs>
<radialGradient id="paint0_angular_110_3465" cx="0" cy="0" r="1" gradientUnits="userSpaceOnUse" gradientTransform="translate(104.42 28.0207) scale(100.4 24.8)">
<stop stop-color="#A06939"/>
<stop offset="0.313195" stop-color="#C6A27E"/>
<stop offset="0.75531" stop-color="#FBF3E0"/>
<stop offset="1" stop-color="#957C50"/>
</radialGradient>
<radialGradient id="paint1_angular_110_3465" cx="0" cy="0" r="1" gradientUnits="userSpaceOnUse" gradientTransform="translate(124.72 27.6211) scale(65.5 16)">
<stop stop-color="#A06939"/>
<stop offset="0.313195" stop-color="#C6A27E"/>
<stop offset="0.75531" stop-color="#FBF3E0"/>
<stop offset="1" stop-color="#957C50"/>
</radialGradient>
<radialGradient id="paint2_angular_110_3465" cx="0" cy="0" r="1" gradientUnits="userSpaceOnUse" gradientTransform="translate(33.994 28.0002) scale(10.994 11.0002)">
<stop stop-color="#A06939"/>
<stop offset="0.313195" stop-color="#C6A27E"/>
<stop offset="0.75531" stop-color="#FBF3E0"/>
<stop offset="1" stop-color="#957C50"/>
</radialGradient>
</defs>
</svg>
