<svg width="854" height="40" viewBox="0 0 854 40" fill="none" xmlns="http://www.w3.org/2000/svg">
<g opacity="0.6">
<path fill-rule="evenodd" clip-rule="evenodd" d="M161.42 8H155.678L147.5 20L155.678 32H161.42L153.379 20L161.42 8ZM166.22 15.2H164.042L160.94 20L164.042 24.8H166.22V20V15.2Z" fill="#F8EED9"/>
<path d="M149.5 20.5H0" stroke="url(#paint0_linear_115_9700)" stroke-width="2"/>
</g>
<path d="M229.768 24.5938C229.768 25.4896 229.596 26.3281 229.252 27.1094C228.919 27.8802 228.46 28.5573 227.877 29.1406C227.304 29.7135 226.627 30.1667 225.846 30.5C225.064 30.8333 224.236 31 223.361 31H208.189V27.7969H223.361C223.799 27.7969 224.21 27.7135 224.596 27.5469C224.992 27.3802 225.335 27.151 225.627 26.8594C225.919 26.5677 226.148 26.2292 226.314 25.8438C226.481 25.4479 226.564 25.0312 226.564 24.5938C226.564 24.1562 226.481 23.7448 226.314 23.3594C226.148 22.974 225.919 22.6354 225.627 22.3438C225.335 22.0521 224.992 21.8229 224.596 21.6562C224.21 21.4896 223.799 21.4062 223.361 21.4062H208.189V18.2031H220.158C220.596 18.2031 221.007 18.1198 221.393 17.9531C221.788 17.7865 222.132 17.5573 222.424 17.2656C222.715 16.974 222.945 16.6354 223.111 16.25C223.278 15.8542 223.361 15.4375 223.361 15C223.361 14.5625 223.278 14.151 223.111 13.7656C222.945 13.3698 222.715 13.026 222.424 12.7344C222.132 12.4427 221.788 12.2135 221.393 12.0469C221.007 11.8802 220.596 11.7969 220.158 11.7969H206.596V31H203.393V8.59375H220.158C221.033 8.59375 221.861 8.76562 222.643 9.10938C223.424 9.44271 224.101 9.90104 224.674 10.4844C225.257 11.0573 225.715 11.7344 226.049 12.5156C226.393 13.2969 226.564 14.125 226.564 15C226.564 15.6771 226.465 16.3177 226.268 16.9219C226.07 17.5156 225.804 18.0677 225.471 18.5781C226.096 18.7969 226.669 19.1042 227.189 19.5C227.721 19.8958 228.174 20.3542 228.549 20.875C228.934 21.3958 229.231 21.974 229.439 22.6094C229.658 23.2344 229.768 23.8958 229.768 24.5938ZM258.986 31H255.783V24.5938H237.908V21.4062H255.783V11.7969H244.299C243.205 11.7969 242.174 12.0104 241.205 12.4375C240.236 12.8542 239.393 13.4271 238.674 14.1562C237.955 14.875 237.382 15.7188 236.955 16.6875C236.538 17.6562 236.33 18.6927 236.33 19.7969V31H233.127V19.7969C233.127 18.7656 233.257 17.776 233.518 16.8281C233.788 15.8698 234.163 14.9792 234.643 14.1562C235.132 13.3229 235.715 12.5677 236.393 11.8906C237.08 11.2031 237.835 10.6146 238.658 10.125C239.492 9.63542 240.382 9.26042 241.33 9C242.278 8.72917 243.268 8.59375 244.299 8.59375H258.986V31ZM287.814 31H273.393C271.84 31 270.429 30.7083 269.158 30.125C267.887 29.5417 266.799 28.7448 265.893 27.7344C264.997 26.724 264.304 25.5365 263.814 24.1719C263.325 22.8073 263.08 21.349 263.08 19.7969C263.08 18.2552 263.325 16.8073 263.814 15.4531C264.304 14.0885 264.997 12.901 265.893 11.8906C266.799 10.8698 267.887 10.0677 269.158 9.48438C270.429 8.89062 271.84 8.59375 273.393 8.59375H287.814V11.7969H273.393C272.288 11.7969 271.294 12.0104 270.408 12.4375C269.533 12.8542 268.788 13.4271 268.174 14.1562C267.57 14.875 267.101 15.7188 266.768 16.6875C266.445 17.6562 266.283 18.6927 266.283 19.7969C266.283 20.901 266.445 21.9427 266.768 22.9219C267.101 23.8906 267.57 24.7396 268.174 25.4688C268.788 26.1875 269.533 26.7552 270.408 27.1719C271.294 27.5885 272.288 27.7969 273.393 27.7969H287.814V31ZM317.752 31H313.439L302.002 19.4844L294.908 24.5938V31H291.705V8.59375H294.908V21.0781L312.471 8.59375H317.143L304.439 17.7188L317.752 31ZM342.908 31H328.486C326.934 31 325.523 30.7083 324.252 30.125C322.981 29.5417 321.893 28.7448 320.986 27.7344C320.09 26.724 319.398 25.5365 318.908 24.1719C318.419 22.8073 318.174 21.349 318.174 19.7969C318.174 18.2552 318.419 16.8073 318.908 15.4531C319.398 14.0885 320.09 12.901 320.986 11.8906C321.893 10.8698 322.981 10.0677 324.252 9.48438C325.523 8.89062 326.934 8.59375 328.486 8.59375H342.908V11.7969H328.486C327.382 11.7969 326.387 12.0104 325.502 12.4375C324.627 12.8542 323.882 13.4271 323.268 14.1562C322.663 14.875 322.195 15.7188 321.861 16.6875C321.538 17.6562 321.377 18.6927 321.377 19.7969C321.377 20.901 321.538 21.9427 321.861 22.9219C322.195 23.8906 322.663 24.7396 323.268 25.4688C323.882 26.1875 324.627 26.7552 325.502 27.1719C326.387 27.5885 327.382 27.7969 328.486 27.7969H339.705V21.4062H326.143V18.2031H342.908V31ZM373.533 31H369.205L362.486 24.5938H352.674V21.4375H365.533C366.2 21.4375 366.825 21.3125 367.408 21.0625C367.992 20.8021 368.497 20.4531 368.924 20.0156C369.361 19.5781 369.705 19.0677 369.955 18.4844C370.205 17.8906 370.33 17.2604 370.33 16.5938C370.33 15.9271 370.205 15.3021 369.955 14.7188C369.705 14.1354 369.361 13.6302 368.924 13.2031C368.497 12.7656 367.992 12.4219 367.408 12.1719C366.825 11.9219 366.2 11.7969 365.533 11.7969H350.877V31H347.674V8.59375H365.533C366.637 8.59375 367.674 8.80729 368.643 9.23438C369.611 9.65104 370.455 10.224 371.174 10.9531C371.903 11.6719 372.476 12.5156 372.893 13.4844C373.32 14.4531 373.533 15.4896 373.533 16.5938C373.533 17.5938 373.361 18.5417 373.018 19.4375C372.674 20.3229 372.2 21.1198 371.596 21.8281C370.992 22.526 370.278 23.1094 369.455 23.5781C368.643 24.0365 367.762 24.3438 366.814 24.5L373.533 31ZM404.393 19.7969C404.393 21.349 404.148 22.8073 403.658 24.1719C403.169 25.5365 402.471 26.724 401.564 27.7344C400.669 28.7448 399.59 29.5417 398.33 30.125C397.07 30.7083 395.669 31 394.127 31H386.674C385.122 31 383.71 30.7083 382.439 30.125C381.169 29.5417 380.08 28.7448 379.174 27.7344C378.278 26.724 377.585 25.5365 377.096 24.1719C376.606 22.8073 376.361 21.349 376.361 19.7969C376.361 18.2552 376.606 16.8073 377.096 15.4531C377.585 14.0885 378.278 12.901 379.174 11.8906C380.08 10.8698 381.169 10.0677 382.439 9.48438C383.71 8.89062 385.122 8.59375 386.674 8.59375H394.127C395.669 8.59375 397.07 8.89062 398.33 9.48438C399.59 10.0677 400.669 10.8698 401.564 11.8906C402.471 12.901 403.169 14.0885 403.658 15.4531C404.148 16.8073 404.393 18.2552 404.393 19.7969ZM401.189 19.7969C401.189 18.6927 401.028 17.6562 400.705 16.6875C400.382 15.7188 399.913 14.875 399.299 14.1562C398.695 13.4271 397.955 12.8542 397.08 12.4375C396.215 12.0104 395.231 11.7969 394.127 11.7969H386.674C385.57 11.7969 384.575 12.0104 383.689 12.4375C382.814 12.8542 382.07 13.4271 381.455 14.1562C380.851 14.875 380.382 15.7188 380.049 16.6875C379.726 17.6562 379.564 18.6927 379.564 19.7969C379.564 20.901 379.726 21.9427 380.049 22.9219C380.382 23.8906 380.851 24.7396 381.455 25.4688C382.07 26.1875 382.814 26.7552 383.689 27.1719C384.575 27.5885 385.57 27.7969 386.674 27.7969H394.127C395.231 27.7969 396.215 27.5885 397.08 27.1719C397.955 26.7552 398.695 26.1875 399.299 25.4688C399.913 24.7396 400.382 23.8906 400.705 22.9219C401.028 21.9427 401.189 20.901 401.189 19.7969ZM432.486 8.59375L432.455 19.7969C432.455 20.8385 432.32 21.8385 432.049 22.7969C431.788 23.7448 431.413 24.6354 430.924 25.4688C430.445 26.2917 429.861 27.0469 429.174 27.7344C428.497 28.4115 427.742 28.9948 426.908 29.4844C426.085 29.9635 425.2 30.3385 424.252 30.6094C423.304 30.8698 422.314 31 421.283 31H418.924C417.893 31 416.898 30.8698 415.939 30.6094C414.992 30.3385 414.101 29.9583 413.268 29.4688C412.445 28.9792 411.695 28.3958 411.018 27.7188C410.34 27.0312 409.757 26.276 409.268 25.4531C408.788 24.6198 408.413 23.7292 408.143 22.7812C407.882 21.8229 407.752 20.8281 407.752 19.7969V8.59375H410.955V19.7969C410.955 20.901 411.163 21.9427 411.58 22.9219C411.997 23.8906 412.564 24.7396 413.283 25.4688C414.012 26.1875 414.861 26.7552 415.83 27.1719C416.799 27.5885 417.83 27.7969 418.924 27.7969H421.283C422.387 27.7969 423.424 27.5885 424.393 27.1719C425.361 26.7552 426.205 26.1875 426.924 25.4688C427.643 24.7396 428.21 23.8906 428.627 22.9219C429.044 21.9427 429.252 20.901 429.252 19.7969V8.59375H432.455H432.486ZM440.314 31H437.111V8.59375H438.705C439.747 8.59375 440.851 8.72917 442.018 9C443.195 9.27083 444.393 9.66146 445.611 10.1719C446.83 10.6823 448.044 11.3021 449.252 12.0312C450.471 12.75 451.648 13.5677 452.783 14.4844C453.919 15.401 454.986 16.401 455.986 17.4844C456.986 18.5573 457.882 19.7031 458.674 20.9219V8.59375H461.877V31H458.674C458.674 29.3542 458.387 27.7708 457.814 26.25C457.242 24.7188 456.476 23.276 455.518 21.9219C454.559 20.5677 453.455 19.3229 452.205 18.1875C450.955 17.0417 449.648 16.0365 448.283 15.1719C446.929 14.3073 445.564 13.599 444.189 13.0469C442.814 12.4844 441.523 12.1094 440.314 11.9219V31ZM493.674 19.7969C493.674 21.349 493.424 22.8073 492.924 24.1719C492.434 25.5365 491.736 26.724 490.83 27.7344C489.924 28.7448 488.835 29.5417 487.564 30.125C486.304 30.7083 484.903 31 483.361 31H472.064V27.7969H483.361C484.465 27.7969 485.455 27.5885 486.33 27.1719C487.215 26.7552 487.96 26.1875 488.564 25.4688C489.179 24.7396 489.648 23.8906 489.971 22.9219C490.304 21.9427 490.471 20.901 490.471 19.7969C490.471 18.6927 490.304 17.6562 489.971 16.6875C489.648 15.7188 489.179 14.875 488.564 14.1562C487.96 13.4271 487.215 12.8542 486.33 12.4375C485.455 12.0104 484.465 11.7969 483.361 11.7969H470.471V31H467.268V8.59375H483.361C484.903 8.59375 486.304 8.89062 487.564 9.48438C488.835 10.0677 489.924 10.8698 490.83 11.8906C491.736 12.901 492.434 14.0885 492.924 15.4531C493.424 16.8073 493.674 18.2552 493.674 19.7969ZM534.502 24.5938C534.502 25.4896 534.335 26.3281 534.002 27.1094C533.669 27.8802 533.21 28.5573 532.627 29.1406C532.054 29.7135 531.377 30.1667 530.596 30.5C529.825 30.8333 528.997 31 528.111 31H508.643V27.7969H528.111C528.559 27.7969 528.976 27.7135 529.361 27.5469C529.747 27.3802 530.08 27.151 530.361 26.8594C530.653 26.5677 530.882 26.2292 531.049 25.8438C531.215 25.4479 531.299 25.0312 531.299 24.5938C531.299 24.1562 531.215 23.7448 531.049 23.3594C530.882 22.974 530.653 22.6354 530.361 22.3438C530.08 22.0521 529.747 21.8229 529.361 21.6562C528.976 21.4896 528.559 21.4062 528.111 21.4062H515.049C514.174 21.4062 513.346 21.2396 512.564 20.9062C511.783 20.5729 511.101 20.1198 510.518 19.5469C509.945 18.9635 509.486 18.2812 509.143 17.5C508.809 16.7188 508.643 15.8854 508.643 15C508.643 14.125 508.809 13.2969 509.143 12.5156C509.486 11.7344 509.945 11.0573 510.518 10.4844C511.101 9.90104 511.783 9.44271 512.564 9.10938C513.346 8.76562 514.174 8.59375 515.049 8.59375H532.908V11.7969H515.049C514.611 11.7969 514.195 11.8802 513.799 12.0469C513.413 12.2135 513.075 12.4427 512.783 12.7344C512.492 13.026 512.262 13.3698 512.096 13.7656C511.929 14.151 511.846 14.5625 511.846 15C511.846 15.4375 511.929 15.8542 512.096 16.25C512.262 16.6354 512.492 16.974 512.783 17.2656C513.075 17.5573 513.413 17.7865 513.799 17.9531C514.195 18.1198 514.611 18.2031 515.049 18.2031H528.111C528.997 18.2031 529.825 18.375 530.596 18.7188C531.377 19.0521 532.054 19.5104 532.627 20.0938C533.21 20.6667 533.669 21.3438 534.002 22.125C534.335 22.8958 534.502 23.7188 534.502 24.5938ZM550.424 31H547.221V11.7969H535.893V8.59375H561.752V11.7969H550.424V31ZM591.143 19.7969C591.143 21.349 590.898 22.8073 590.408 24.1719C589.919 25.5365 589.221 26.724 588.314 27.7344C587.419 28.7448 586.34 29.5417 585.08 30.125C583.82 30.7083 582.419 31 580.877 31H573.424C571.872 31 570.46 30.7083 569.189 30.125C567.919 29.5417 566.83 28.7448 565.924 27.7344C565.028 26.724 564.335 25.5365 563.846 24.1719C563.356 22.8073 563.111 21.349 563.111 19.7969C563.111 18.2552 563.356 16.8073 563.846 15.4531C564.335 14.0885 565.028 12.901 565.924 11.8906C566.83 10.8698 567.919 10.0677 569.189 9.48438C570.46 8.89062 571.872 8.59375 573.424 8.59375H580.877C582.419 8.59375 583.82 8.89062 585.08 9.48438C586.34 10.0677 587.419 10.8698 588.314 11.8906C589.221 12.901 589.919 14.0885 590.408 15.4531C590.898 16.8073 591.143 18.2552 591.143 19.7969ZM587.939 19.7969C587.939 18.6927 587.778 17.6562 587.455 16.6875C587.132 15.7188 586.663 14.875 586.049 14.1562C585.445 13.4271 584.705 12.8542 583.83 12.4375C582.965 12.0104 581.981 11.7969 580.877 11.7969H573.424C572.32 11.7969 571.325 12.0104 570.439 12.4375C569.564 12.8542 568.82 13.4271 568.205 14.1562C567.601 14.875 567.132 15.7188 566.799 16.6875C566.476 17.6562 566.314 18.6927 566.314 19.7969C566.314 20.901 566.476 21.9427 566.799 22.9219C567.132 23.8906 567.601 24.7396 568.205 25.4688C568.82 26.1875 569.564 26.7552 570.439 27.1719C571.325 27.5885 572.32 27.7969 573.424 27.7969H580.877C581.981 27.7969 582.965 27.5885 583.83 27.1719C584.705 26.7552 585.445 26.1875 586.049 25.4688C586.663 24.7396 587.132 23.8906 587.455 22.9219C587.778 21.9427 587.939 20.901 587.939 19.7969ZM621.096 31H616.768L610.049 24.5938H600.236V21.4375H613.096C613.762 21.4375 614.387 21.3125 614.971 21.0625C615.554 20.8021 616.059 20.4531 616.486 20.0156C616.924 19.5781 617.268 19.0677 617.518 18.4844C617.768 17.8906 617.893 17.2604 617.893 16.5938C617.893 15.9271 617.768 15.3021 617.518 14.7188C617.268 14.1354 616.924 13.6302 616.486 13.2031C616.059 12.7656 615.554 12.4219 614.971 12.1719C614.387 11.9219 613.762 11.7969 613.096 11.7969H598.439V31H595.236V8.59375H613.096C614.2 8.59375 615.236 8.80729 616.205 9.23438C617.174 9.65104 618.018 10.224 618.736 10.9531C619.465 11.6719 620.038 12.5156 620.455 13.4844C620.882 14.4531 621.096 15.4896 621.096 16.5938C621.096 17.5938 620.924 18.5417 620.58 19.4375C620.236 20.3229 619.762 21.1198 619.158 21.8281C618.554 22.526 617.84 23.1094 617.018 23.5781C616.205 24.0365 615.325 24.3438 614.377 24.5L621.096 31ZM650.236 24.5938C650.236 25.4896 650.023 26.3281 649.596 27.1094C649.179 27.8802 648.606 28.5573 647.877 29.1406C647.158 29.7135 646.314 30.1667 645.346 30.5C644.377 30.8333 643.34 31 642.236 31H624.346V27.7969H642.236C642.893 27.7969 643.512 27.7135 644.096 27.5469C644.679 27.3802 645.184 27.151 645.611 26.8594C646.049 26.5677 646.393 26.2292 646.643 25.8438C646.903 25.4479 647.033 25.0312 647.033 24.5938V23H632.346C631.242 23 630.2 22.7917 629.221 22.375C628.252 21.9583 627.403 21.3906 626.674 20.6719C625.955 19.9427 625.387 19.0938 624.971 18.125C624.554 17.1458 624.346 16.1042 624.346 15V8.59375H627.549V15C627.549 15.6667 627.674 16.2917 627.924 16.875C628.174 17.4583 628.512 17.9688 628.939 18.4062C629.377 18.8333 629.887 19.1719 630.471 19.4219C631.054 19.6719 631.679 19.7969 632.346 19.7969H647.033V8.59375H650.236V24.5938Z" fill="url(#paint1_angular_115_9700)"/>
<g opacity="0.6">
<path fill-rule="evenodd" clip-rule="evenodd" d="M692.021 8H697.764L705.941 20L697.764 32H692.021L700.063 20L692.021 8ZM687.221 15.2H689.399L692.501 20L689.399 24.8H687.221V20V15.2Z" fill="#F8EED9"/>
<path d="M703.941 20.5H853.441" stroke="url(#paint2_linear_115_9700)" stroke-width="2"/>
</g>
<defs>
<linearGradient id="paint0_linear_115_9700" x1="0" y1="21" x2="149.5" y2="21" gradientUnits="userSpaceOnUse">
<stop stop-color="#F8EED9" stop-opacity="0"/>
<stop offset="1" stop-color="#D8BD9F"/>
</linearGradient>
<radialGradient id="paint1_angular_115_9700" cx="0" cy="0" r="1" gradientUnits="userSpaceOnUse" gradientTransform="translate(426.721 20) scale(226.5 20)">
<stop stop-color="#A06939"/>
<stop offset="0.313195" stop-color="#C6A27E"/>
<stop offset="0.75531" stop-color="#FBF3E0"/>
<stop offset="1" stop-color="#957C50"/>
</radialGradient>
<linearGradient id="paint2_linear_115_9700" x1="853.441" y1="21" x2="703.941" y2="21" gradientUnits="userSpaceOnUse">
<stop stop-color="#F8EED9" stop-opacity="0"/>
<stop offset="1" stop-color="#D8BD9F"/>
</linearGradient>
</defs>
</svg>
