<svg width="123" height="140" viewBox="0 0 123 140" fill="none" xmlns="http://www.w3.org/2000/svg">
<path d="M7.37984 0H61.1398H115.22L121.94 6.4V80V133.6L115.22 140H88.1798L84.2598 136.8H61.1398H38.0998L34.2598 140H7.37984L0.339844 133.6V80V6.4L7.37984 0Z" fill="url(#paint0_radial_51_6123)" fill-opacity="0.58"/>
<path d="M84.6709 136.296L84.2598 136.15H61.1398H38.0998L37.6837 136.301L34.0245 139.35H7.63114L0.989844 133.312V80V6.68754L7.63114 0.65H61.1398H114.96L121.29 6.67857V80V133.321L114.96 139.35H88.4115L84.6709 136.296Z" stroke="url(#paint1_angular_51_6123)" stroke-opacity="0.27" stroke-width="1.3" stroke-linejoin="bevel"/>
<path d="M29.6297 136.25H27.2297L29.7797 138.95H32.1797L29.6297 136.25Z" fill="#D9D9D9"/>
<path d="M25.2801 136.25H22.8801L25.4301 138.95H27.8301L25.2801 136.25Z" fill="#D9D9D9"/>
<path d="M20.9295 136.25H18.5295L21.0795 138.95H23.4795L20.9295 136.25Z" fill="#D9D9D9"/>
<path d="M107.58 3.24L105.34 1H115.58L122.46 7.4H118.3L114.14 3.24H107.58Z" fill="#D9D9D9"/>
<path d="M15.22 137.16L17.46 139.4L7.21996 139.4L0.339963 133L4.49996 133L8.65996 137.16L15.22 137.16Z" fill="#D9D9D9"/>
<defs>
<radialGradient id="paint0_radial_51_6123" cx="0" cy="0" r="1" gradientUnits="userSpaceOnUse" gradientTransform="translate(61.1398 70) rotate(90) scale(70 60.8)">
<stop stop-color="#111923"/>
<stop offset="1" stop-color="#1C2934"/>
</radialGradient>
<radialGradient id="paint1_angular_51_6123" cx="0" cy="0" r="1" gradientUnits="userSpaceOnUse" gradientTransform="translate(61.1398 70) scale(60.8 70)">
<stop stop-color="#A06939"/>
<stop offset="0.313195" stop-color="#C6A27E"/>
<stop offset="0.75531" stop-color="#FBF3E0"/>
<stop offset="1" stop-color="#957C50"/>
</radialGradient>
</defs>
</svg>
