<svg width="1162" height="535" viewBox="0 0 1162 535" fill="none" xmlns="http://www.w3.org/2000/svg">
<path d="M894.5 18.7692L894.746 18.7043L926.882 0.5H1138.81L1159.5 18.4969V132.249L1139.64 152.656L1139.5 153.005V246.635V335.697L1139.69 336.088L1159.5 351.923V516.503L1138.81 534.5H755.666L743.549 525.465L743.25 525.365H591H459L458.697 525.468L446.831 534.5H22.1805L0.5 516.496V246.635V36.7732L22.1805 18.7692H290H714.5H894.5Z" fill="url(#paint0_linear_115_8084)" stroke="url(#paint1_angular_115_8084)" stroke-linejoin="bevel"/>
<path d="M29 28H37L28.5 37H20.5L29 28Z" fill="#94795C"/>
<path d="M43.5 28H51.5L43 37H35L43.5 28Z" fill="#94795C"/>
<path d="M58 28H66L57.5 37H49.5L58 28Z" fill="#94795C"/>
<path d="M72.5 28H80.5L72 37H64L72.5 28Z" fill="#94795C"/>
<path d="M87 28H95L86.5 37H78.5L87 28Z" fill="#94795C"/>
<path d="M110 513H102L110.5 522H118.5L110 513Z" fill="#94795C"/>
<path d="M95.5 513H87.5L96 522H104L95.5 513Z" fill="#94795C"/>
<path d="M81 513H73L81.5 522H89.5L81 513Z" fill="#94795C"/>
<path d="M1047 7L1040 0H1140L1161.5 20H1148.5L1135.5 7H1047Z" fill="#94795C"/>
<path d="M1046 528L1039 535H1139L1160.5 515H1147.5L1134.5 528H1046Z" fill="#94795C"/>
<path d="M55.5 518L62.5 525L30.5 525L9 505L22 505L35 518L55.5 518Z" fill="#94795C"/>
<path d="M1147 157.695L1160 143V340L1147 328.061V157.695Z" fill="#94795C"/>
<defs>
<linearGradient id="paint0_linear_115_8084" x1="6.86966e-06" y1="260.336" x2="1178.89" y2="232.971" gradientUnits="userSpaceOnUse">
<stop stop-color="#08141F"/>
<stop offset="0.483968" stop-color="#08141F" stop-opacity="0.59"/>
<stop offset="1" stop-color="#081B1F"/>
</linearGradient>
<radialGradient id="paint1_angular_115_8084" cx="0" cy="0" r="1" gradientUnits="userSpaceOnUse" gradientTransform="translate(580 267.5) scale(580 267.5)">
<stop stop-color="#A06939"/>
<stop offset="0.313195" stop-color="#C6A27E"/>
<stop offset="0.75531" stop-color="#FBF3E0"/>
<stop offset="1" stop-color="#957C50"/>
</radialGradient>
</defs>
</svg>
