<svg width="20" height="21" viewBox="0 0 20 21" fill="none" xmlns="http://www.w3.org/2000/svg">
<g clip-path="url(#clip0_50_2499)">
<path d="M16.9308 4.2129C15.6561 3.62799 14.2892 3.19707 12.8599 2.95025C12.8339 2.94549 12.8079 2.95739 12.7945 2.9812C12.6187 3.29388 12.4239 3.7018 12.2876 4.02242C10.7503 3.79228 9.22099 3.79228 7.71527 4.02242C7.57887 3.69467 7.37707 3.29388 7.20048 2.9812C7.18707 2.95819 7.16107 2.94629 7.13504 2.95025C5.70659 3.19628 4.33963 3.62721 3.06411 4.2129C3.05307 4.21766 3.04361 4.2256 3.03732 4.23591C0.444493 8.10954 -0.265792 11.888 0.0826501 15.6195C0.0842267 15.6378 0.0944749 15.6553 0.108665 15.6664C1.81934 16.9226 3.47642 17.6853 5.10273 18.1908C5.12876 18.1988 5.15634 18.1893 5.1729 18.1678C5.55761 17.6425 5.90054 17.0885 6.19456 16.506C6.21192 16.4719 6.19535 16.4314 6.15989 16.4179C5.61594 16.2116 5.098 15.96 4.59977 15.6743C4.56037 15.6513 4.55721 15.5949 4.59346 15.5679C4.69831 15.4894 4.80318 15.4076 4.9033 15.3251C4.92141 15.31 4.94665 15.3068 4.96794 15.3164C8.24107 16.8108 11.7846 16.8108 15.0191 15.3164C15.0404 15.3061 15.0657 15.3092 15.0846 15.3243C15.1847 15.4068 15.2895 15.4894 15.3952 15.5679C15.4314 15.5949 15.4291 15.6513 15.3897 15.6743C14.8914 15.9655 14.3735 16.2116 13.8288 16.4171C13.7933 16.4306 13.7775 16.4719 13.7949 16.506C14.0952 17.0877 14.4381 17.6417 14.8157 18.167C14.8315 18.1893 14.8599 18.1988 14.8859 18.1908C16.5201 17.6853 18.1772 16.9226 19.8879 15.6664C19.9028 15.6553 19.9123 15.6386 19.9139 15.6203C20.3309 11.3062 19.2154 7.55878 16.9568 4.2367C16.9513 4.2256 16.9419 4.21766 16.9308 4.2129ZM6.68335 13.3474C5.69792 13.3474 4.88594 12.4427 4.88594 11.3316C4.88594 10.2206 5.68217 9.31585 6.68335 9.31585C7.69239 9.31585 8.49651 10.2285 8.48073 11.3316C8.48073 12.4427 7.68451 13.3474 6.68335 13.3474ZM13.329 13.3474C12.3435 13.3474 11.5316 12.4427 11.5316 11.3316C11.5316 10.2206 12.3278 9.31585 13.329 9.31585C14.338 9.31585 15.1421 10.2285 15.1264 11.3316C15.1264 12.4427 14.338 13.3474 13.329 13.3474Z" fill="#77818C"/>
</g>
<defs>
<clipPath id="clip0_50_2499">
<rect width="20" height="20" fill="white" transform="translate(0 0.75)"/>
</clipPath>
</defs>
</svg>
