<svg width="165" height="48" viewBox="0 0 165 48" fill="none" xmlns="http://www.w3.org/2000/svg">
<g filter="url(#filter0_b_50_2006)">
<rect x="0.147461" width="164.33" height="48" rx="5" fill="black" fill-opacity="0.35"/>
<path d="M25.5161 23.2822L12.2695 37.3412C12.2708 37.3437 12.2708 37.3475 12.272 37.3499C12.6789 38.8765 14.0723 40 15.7271 40C16.3889 40 17.0098 39.8208 17.5423 39.5073L17.5846 39.4824L32.4946 30.8791L25.5161 23.2822Z" fill="#EA4335"/>
<path d="M38.9168 20.8886L38.9043 20.8799L32.467 17.1486L25.2148 23.6021L32.4932 30.8779L38.8956 27.184C40.0178 26.5769 40.7805 25.3937 40.7805 24.0301C40.7805 22.6739 40.029 21.497 38.9168 20.8886Z" fill="#FBBC04"/>
<path d="M12.2694 10.6573C12.1898 10.951 12.1475 11.2595 12.1475 11.578V36.4214C12.1475 36.7399 12.1898 37.0484 12.2706 37.3408L25.9713 23.6414L12.2694 10.6573Z" fill="#4285F4"/>
<path d="M25.6144 24L32.4697 17.1459L17.5771 8.51146C17.0359 8.18673 16.4039 8.00011 15.7283 8.00011C14.0736 8.00011 12.6776 9.12607 12.2708 10.6539C12.2708 10.6551 12.2695 10.6564 12.2695 10.6576L25.6144 24Z" fill="#34A853"/>
<path d="M60.2791 11.9722C60.2791 12.9577 59.9875 13.7421 59.403 14.3278C58.7386 15.024 57.8742 15.3721 56.8111 15.3721C55.7915 15.3721 54.926 15.0193 54.2145 14.3125C53.5007 13.6069 53.1455 12.7308 53.1455 11.6865C53.1455 10.641 53.5007 9.76606 54.2145 9.05929C54.926 8.35368 55.7915 7.99971 56.8111 7.99971C57.3156 7.99971 57.8001 8.09849 58.2588 8.29606C58.7186 8.49363 59.0867 8.75588 59.363 9.08398L58.7421 9.70491C58.2752 9.14749 57.632 8.8676 56.8111 8.8676C56.0679 8.8676 55.4258 9.12867 54.8836 9.65082C54.3415 10.1741 54.071 10.8515 54.071 11.6865C54.071 12.5203 54.3415 13.1988 54.8836 13.721C55.4258 14.2443 56.0679 14.5042 56.8111 14.5042C57.599 14.5042 58.2552 14.2419 58.7821 13.7163C59.1231 13.374 59.3195 12.8989 59.3724 12.2874H56.8111V11.4395H60.2297C60.2627 11.6241 60.2791 11.8017 60.2791 11.9722Z" fill="white"/>
<path d="M60.2791 11.9722C60.2791 12.9577 59.9875 13.7421 59.403 14.3278C58.7386 15.024 57.8742 15.3721 56.8111 15.3721C55.7915 15.3721 54.926 15.0193 54.2145 14.3125C53.5007 13.6069 53.1455 12.7308 53.1455 11.6865C53.1455 10.641 53.5007 9.76606 54.2145 9.05929C54.926 8.35368 55.7915 7.99971 56.8111 7.99971C57.3156 7.99971 57.8001 8.09849 58.2588 8.29606C58.7186 8.49363 59.0867 8.75588 59.363 9.08398L58.7421 9.70491C58.2752 9.14749 57.632 8.8676 56.8111 8.8676C56.0679 8.8676 55.4258 9.12867 54.8836 9.65082C54.3415 10.1741 54.071 10.8515 54.071 11.6865C54.071 12.5203 54.3415 13.1988 54.8836 13.721C55.4258 14.2443 56.0679 14.5042 56.8111 14.5042C57.599 14.5042 58.2552 14.2419 58.7821 13.7163C59.1231 13.374 59.3195 12.8989 59.3724 12.2874H56.8111V11.4395H60.2297C60.2627 11.6241 60.2791 11.8017 60.2791 11.9722Z" fill="white"/>
<path d="M65.6996 9.02554H62.4868V11.2623H65.3844V12.1102H62.4868V14.347H65.6996V15.2148H61.5801V8.15882H65.6996V9.02554Z" fill="white"/>
<path d="M65.6996 9.02554H62.4868V11.2623H65.3844V12.1102H62.4868V14.347H65.6996V15.2148H61.5801V8.15882H65.6996V9.02554Z" fill="white"/>
<path d="M69.5232 15.2148H68.6165V9.02554H66.6455V8.15882H71.4942V9.02554H69.5232V15.2148Z" fill="white"/>
<path d="M69.5232 15.2148H68.6165V9.02554H66.6455V8.15882H71.4942V9.02554H69.5232V15.2148Z" fill="white"/>
<path d="M75.002 8.15882H75.9086V15.2148H75.002V8.15882Z" fill="white"/>
<path d="M79.9304 15.2148H79.0237V9.02554H77.0527V8.15882H81.9014V9.02554H79.9304V15.2148Z" fill="white"/>
<path d="M79.9304 15.2148H79.0237V9.02554H77.0527V8.15882H81.9014V9.02554H79.9304V15.2148Z" fill="white"/>
<path d="M86.5759 13.7116C87.0981 14.2408 87.7366 14.5042 88.4928 14.5042C89.249 14.5042 89.8875 14.2408 90.4097 13.7116C90.9318 13.1824 91.1941 12.5073 91.1941 11.6865C91.1941 10.8656 90.9318 10.1894 90.4097 9.6614C89.8875 9.1322 89.249 8.8676 88.4928 8.8676C87.7366 8.8676 87.0981 9.1322 86.5759 9.6614C86.055 10.1894 85.7927 10.8656 85.7927 11.6865C85.7927 12.5073 86.055 13.1824 86.5759 13.7116ZM91.08 14.3019C90.3862 15.0157 89.5242 15.3721 88.4928 15.3721C87.4615 15.3721 86.5994 15.0157 85.9068 14.3019C85.2129 13.5892 84.8672 12.7178 84.8672 11.6865C84.8672 10.6551 85.2129 9.78253 85.9068 9.06987C86.5994 8.35721 87.4615 7.99971 88.4928 7.99971C89.5183 7.99971 90.3779 8.35839 91.0753 9.07457C91.7715 9.79076 92.1196 10.661 92.1196 11.6865C92.1196 12.7178 91.7727 13.5892 91.08 14.3019Z" fill="white"/>
<path d="M86.5759 13.7116C87.0981 14.2408 87.7366 14.5042 88.4928 14.5042C89.249 14.5042 89.8875 14.2408 90.4097 13.7116C90.9318 13.1824 91.1941 12.5073 91.1941 11.6865C91.1941 10.8656 90.9318 10.1894 90.4097 9.6614C89.8875 9.1322 89.249 8.8676 88.4928 8.8676C87.7366 8.8676 87.0981 9.1322 86.5759 9.6614C86.055 10.1894 85.7927 10.8656 85.7927 11.6865C85.7927 12.5073 86.055 13.1824 86.5759 13.7116ZM91.08 14.3019C90.3862 15.0157 89.5242 15.3721 88.4928 15.3721C87.4615 15.3721 86.5994 15.0157 85.9068 14.3019C85.2129 13.5892 84.8672 12.7178 84.8672 11.6865C84.8672 10.6551 85.2129 9.78253 85.9068 9.06987C86.5994 8.35721 87.4615 7.99971 88.4928 7.99971C89.5183 7.99971 90.3779 8.35839 91.0753 9.07457C91.7715 9.79076 92.1196 10.661 92.1196 11.6865C92.1196 12.7178 91.7727 13.5892 91.08 14.3019Z" fill="white"/>
<path d="M93.3916 15.2148V8.15882H94.4947L97.9239 13.6472H97.9639L97.9239 12.2878V8.15882H98.8318V15.2148H97.8851L94.2971 9.45948H94.2583L94.2971 10.8201V15.2148H93.3916Z" fill="white"/>
<path d="M93.3916 15.2148V8.15882H94.4947L97.9239 13.6472H97.9639L97.9239 12.2878V8.15882H98.8318V15.2148H97.8851L94.2971 9.45948H94.2583L94.2971 10.8201V15.2148H93.3916Z" fill="white"/>
<path d="M130.272 35.2066H132.466V20.5054H130.272V35.2066ZM150.037 25.8009L147.521 32.1749H147.446L144.835 25.8009H142.472L146.387 34.7092L144.156 39.6648H146.443L152.477 25.8009H150.037ZM137.592 33.5367C136.873 33.5367 135.871 33.178 135.871 32.2878C135.871 31.1541 137.118 30.719 138.197 30.719C139.161 30.719 139.616 30.9271 140.202 31.2106C140.031 32.5724 138.859 33.5367 137.592 33.5367ZM137.857 25.4799C136.268 25.4799 134.622 26.1796 133.942 27.7308L135.89 28.5434C136.306 27.7308 137.081 27.465 137.895 27.465C139.029 27.465 140.183 28.1459 140.202 29.3572V29.5077C139.804 29.2807 138.954 28.9409 137.913 28.9409C135.814 28.9409 133.676 30.0945 133.676 32.2501C133.676 34.2176 135.398 35.4853 137.327 35.4853C138.803 35.4853 139.616 34.8232 140.127 34.0471H140.202V35.1819H142.32V29.5453C142.32 26.9358 140.372 25.4799 137.857 25.4799ZM124.295 27.5908H121.174V22.5516H124.295C125.936 22.5516 126.867 23.9099 126.867 25.0706C126.867 26.2102 125.936 27.5908 124.295 27.5908ZM124.239 20.5054H118.981V35.2066H121.174V29.6371H124.239C126.671 29.6371 129.062 27.8754 129.062 25.0706C129.062 22.2659 126.671 20.5054 124.239 20.5054ZM95.5668 33.539C94.0509 33.539 92.782 32.2701 92.782 30.5273C92.782 28.7656 94.0509 27.4767 95.5668 27.4767C97.0638 27.4767 98.2375 28.7656 98.2375 30.5273C98.2375 32.2701 97.0638 33.539 95.5668 33.539ZM98.087 26.6241H98.0105C97.5178 26.0373 96.5711 25.5069 95.3774 25.5069C92.8761 25.5069 90.5841 27.7037 90.5841 30.5273C90.5841 33.3309 92.8761 35.51 95.3774 35.51C96.5711 35.51 97.5178 34.9796 98.0105 34.3728H98.087V35.0937C98.087 37.0071 97.0638 38.0302 95.4151 38.0302C94.0697 38.0302 93.2359 37.0635 92.8949 36.2485L90.9816 37.0447C91.5307 38.3712 92.9902 40 95.4151 40C97.9917 40 100.171 38.4841 100.171 34.7903V25.8092H98.087V26.6241ZM101.687 35.2066H103.885V20.5042H101.687V35.2066ZM107.123 30.3568C107.067 28.4246 108.62 27.4391 109.738 27.4391C110.61 27.4391 111.349 27.8742 111.595 28.4999L107.123 30.3568ZM113.944 28.6892C113.528 27.572 112.258 25.5069 109.662 25.5069C107.086 25.5069 104.945 27.5332 104.945 30.5085C104.945 33.3121 107.067 35.51 109.908 35.51C112.201 35.51 113.528 34.1082 114.077 33.2933L112.372 32.1561C111.804 32.9898 111.027 33.539 109.908 33.539C108.791 33.539 107.995 33.0275 107.483 32.0243L114.171 29.2572L113.944 28.6892ZM60.6618 27.0416V29.1631H65.7387C65.5869 30.3568 65.1895 31.2282 64.5838 31.8338C63.8441 32.5735 62.6881 33.3885 60.6618 33.3885C57.5349 33.3885 55.0911 30.8683 55.0911 27.7425C55.0911 24.6155 57.5349 22.0965 60.6618 22.0965C62.3482 22.0965 63.5795 22.7598 64.4886 23.6124L65.9856 22.1153C64.7155 20.9029 63.0303 19.9738 60.6618 19.9738C56.38 19.9738 52.7803 23.4607 52.7803 27.7425C52.7803 32.0243 56.38 35.51 60.6618 35.51C62.9727 35.51 64.7155 34.7515 66.0797 33.3309C67.4827 31.9291 67.9178 29.9593 67.9178 28.367C67.9178 27.8742 67.8802 27.4203 67.8037 27.0416H60.6618ZM73.6908 33.539C72.1749 33.539 70.8672 32.2889 70.8672 30.5085C70.8672 28.708 72.1749 27.4767 73.6908 27.4767C75.2055 27.4767 76.5132 28.708 76.5132 30.5085C76.5132 32.2889 75.2055 33.539 73.6908 33.539ZM73.6908 25.5069C70.9236 25.5069 68.6692 27.6096 68.6692 30.5085C68.6692 33.3885 70.9236 35.51 73.6908 35.51C76.4567 35.51 78.7111 33.3885 78.7111 30.5085C78.7111 27.6096 76.4567 25.5069 73.6908 25.5069ZM84.6429 33.539C83.127 33.539 81.8193 32.2889 81.8193 30.5085C81.8193 28.708 83.127 27.4767 84.6429 27.4767C86.1588 27.4767 87.4653 28.708 87.4653 30.5085C87.4653 32.2889 86.1588 33.539 84.6429 33.539ZM84.6429 25.5069C81.8769 25.5069 79.6225 27.6096 79.6225 30.5085C79.6225 33.3885 81.8769 35.51 84.6429 35.51C87.4089 35.51 89.6632 33.3885 89.6632 30.5085C89.6632 27.6096 87.4089 25.5069 84.6429 25.5069Z" fill="white"/>
</g>
<defs>
<filter id="filter0_b_50_2006" x="-29.8525" y="-30" width="224.33" height="108" filterUnits="userSpaceOnUse" color-interpolation-filters="sRGB">
<feFlood flood-opacity="0" result="BackgroundImageFix"/>
<feGaussianBlur in="BackgroundImageFix" stdDeviation="15"/>
<feComposite in2="SourceAlpha" operator="in" result="effect1_backgroundBlur_50_2006"/>
<feBlend mode="normal" in="SourceGraphic" in2="effect1_backgroundBlur_50_2006" result="shape"/>
</filter>
</defs>
</svg>
