<svg width="20" height="21" viewBox="0 0 20 21" fill="none" xmlns="http://www.w3.org/2000/svg">
<g clip-path="url(#clip0_50_2495)">
<path d="M20 10.75C20 5.2272 15.5228 0.75 10 0.75C4.4772 0.75 0 5.2272 0 10.75C0 15.4396 3.2288 19.3748 7.5844 20.4556V13.806H5.5224V10.75H7.5844V9.4332C7.5844 6.0296 9.1248 4.452 12.4664 4.452C13.1 4.452 14.1932 4.5764 14.6404 4.7004V7.4704C14.4044 7.4456 13.9944 7.4332 13.4852 7.4332C11.8456 7.4332 11.212 8.0544 11.212 9.6692V10.75H14.4784L13.9172 13.806H11.212V20.6768C16.1636 20.0788 20.0004 15.8628 20.0004 10.75H20Z" fill="#77818C"/>
</g>
<defs>
<clipPath id="clip0_50_2495">
<rect width="20" height="20" fill="white" transform="translate(0 0.75)"/>
</clipPath>
</defs>
</svg>
