<svg width="20" height="21" viewBox="0 0 20 21" fill="none" xmlns="http://www.w3.org/2000/svg">
<path d="M9.375 11.7879V19.7793C9.375 20.4418 8.83789 20.9785 8.17578 20.9785C7.93906 20.9785 7.70742 20.9086 7.51055 20.777C3.30625 17.9746 0.78125 13.2563 0.78125 8.20352V4.88477C0.78125 4.02187 1.48086 3.32227 2.34375 3.32227C4.1082 3.32227 5.81445 2.69102 7.1543 1.54258L7.49219 1.25313C7.69883 1.07578 7.96211 0.978516 8.23438 0.978516C8.86445 0.978516 9.375 1.48906 9.375 2.11914V4.25625C9.375 5.89805 8.04258 7.23438 6.40273 7.24102C6.00117 7.24258 5.65391 7.54336 5.61328 7.94258C5.56562 8.41133 5.94609 8.80117 6.40469 8.80352C8.04375 8.81133 9.375 10.1469 9.375 11.7879ZM10.9375 11.7879C10.9375 10.1469 12.2688 8.81094 13.9078 8.80312C14.3668 8.80078 14.7473 8.41094 14.6992 7.94219C14.6586 7.54297 14.3113 7.24219 13.9098 7.24062C12.2699 7.23398 10.9375 5.89766 10.9375 4.25625V2.11914C10.9375 1.48906 11.448 0.978516 12.0781 0.978516C12.3504 0.978516 12.6137 1.07578 12.8203 1.25313L13.1582 1.54258C14.498 2.69102 16.2043 3.32227 17.9688 3.32227C18.8316 3.32227 19.5312 4.02187 19.5312 4.88477V8.20352C19.5312 13.2559 17.0063 17.9742 12.8023 20.777C12.6055 20.9082 12.3738 20.9785 12.1371 20.9785C11.4746 20.9785 10.9379 20.4414 10.9379 19.7793L10.9375 11.7879Z" fill="url(#paint0_angular_115_8573)"/>
<defs>
<radialGradient id="paint0_angular_115_8573" cx="0" cy="0" r="1" gradientUnits="userSpaceOnUse" gradientTransform="translate(10.1562 10.9785) scale(9.375 10)">
<stop stop-color="#A06939"/>
<stop offset="0.313195" stop-color="#C6A27E"/>
<stop offset="0.75531" stop-color="#FBF3E0"/>
<stop offset="1" stop-color="#957C50"/>
</radialGradient>
</defs>
</svg>
