<svg width="698" height="40" viewBox="0 0 698 40" fill="none" xmlns="http://www.w3.org/2000/svg">
<g opacity="0.6">
<path fill-rule="evenodd" clip-rule="evenodd" d="M161.42 8H155.678L147.5 20L155.678 32H161.42L153.379 20L161.42 8ZM166.22 15.2H164.042L160.94 20L164.042 24.8H166.22V20V15.2Z" fill="#F8EED9"/>
<path d="M149.5 20.5H0" stroke="url(#paint0_linear_115_8072)" stroke-width="2"/>
</g>
<path d="M228.986 16.5938C228.986 17.6979 228.773 18.7396 228.346 19.7188C227.929 20.6875 227.356 21.5365 226.627 22.2656C225.908 22.9844 225.064 23.5521 224.096 23.9688C223.127 24.3854 222.09 24.5938 220.986 24.5938H208.127V21.4375H220.986C221.653 21.4375 222.278 21.3125 222.861 21.0625C223.445 20.8021 223.95 20.4531 224.377 20.0156C224.814 19.5781 225.158 19.0677 225.408 18.4844C225.658 17.8906 225.783 17.2604 225.783 16.5938C225.783 15.9271 225.658 15.3021 225.408 14.7188C225.158 14.1354 224.814 13.6302 224.377 13.2031C223.95 12.7656 223.445 12.4219 222.861 12.1719C222.278 11.9219 221.653 11.7969 220.986 11.7969H206.33V31H203.127V8.59375H220.986C222.09 8.59375 223.127 8.80729 224.096 9.23438C225.064 9.65104 225.908 10.224 226.627 10.9531C227.356 11.6719 227.929 12.5156 228.346 13.4844C228.773 14.4531 228.986 15.4896 228.986 16.5938ZM255.643 31H232.471V8.59375H255.643V11.7969H235.674V27.7969H255.643V31ZM252.924 21.4062H237.268V18.2031H252.924V21.4062ZM285.486 31H281.158L274.439 24.5938H264.627V21.4375H277.486C278.153 21.4375 278.778 21.3125 279.361 21.0625C279.945 20.8021 280.45 20.4531 280.877 20.0156C281.314 19.5781 281.658 19.0677 281.908 18.4844C282.158 17.8906 282.283 17.2604 282.283 16.5938C282.283 15.9271 282.158 15.3021 281.908 14.7188C281.658 14.1354 281.314 13.6302 280.877 13.2031C280.45 12.7656 279.945 12.4219 279.361 12.1719C278.778 11.9219 278.153 11.7969 277.486 11.7969H262.83V31H259.627V8.59375H277.486C278.59 8.59375 279.627 8.80729 280.596 9.23438C281.564 9.65104 282.408 10.224 283.127 10.9531C283.856 11.6719 284.429 12.5156 284.846 13.4844C285.273 14.4531 285.486 15.4896 285.486 16.5938C285.486 17.5938 285.314 18.5417 284.971 19.4375C284.627 20.3229 284.153 21.1198 283.549 21.8281C282.945 22.526 282.231 23.1094 281.408 23.5781C280.596 24.0365 279.715 24.3438 278.768 24.5L285.486 31ZM314.33 24.5938C314.33 25.4896 314.163 26.3281 313.83 27.1094C313.497 27.8802 313.038 28.5573 312.455 29.1406C311.882 29.7135 311.205 30.1667 310.424 30.5C309.653 30.8333 308.825 31 307.939 31H288.471V27.7969H307.939C308.387 27.7969 308.804 27.7135 309.189 27.5469C309.575 27.3802 309.908 27.151 310.189 26.8594C310.481 26.5677 310.71 26.2292 310.877 25.8438C311.044 25.4479 311.127 25.0312 311.127 24.5938C311.127 24.1562 311.044 23.7448 310.877 23.3594C310.71 22.974 310.481 22.6354 310.189 22.3438C309.908 22.0521 309.575 21.8229 309.189 21.6562C308.804 21.4896 308.387 21.4062 307.939 21.4062H294.877C294.002 21.4062 293.174 21.2396 292.393 20.9062C291.611 20.5729 290.929 20.1198 290.346 19.5469C289.773 18.9635 289.314 18.2812 288.971 17.5C288.637 16.7188 288.471 15.8854 288.471 15C288.471 14.125 288.637 13.2969 288.971 12.5156C289.314 11.7344 289.773 11.0573 290.346 10.4844C290.929 9.90104 291.611 9.44271 292.393 9.10938C293.174 8.76562 294.002 8.59375 294.877 8.59375H312.736V11.7969H294.877C294.439 11.7969 294.023 11.8802 293.627 12.0469C293.242 12.2135 292.903 12.4427 292.611 12.7344C292.32 13.026 292.09 13.3698 291.924 13.7656C291.757 14.151 291.674 14.5625 291.674 15C291.674 15.4375 291.757 15.8542 291.924 16.25C292.09 16.6354 292.32 16.974 292.611 17.2656C292.903 17.5573 293.242 17.7865 293.627 17.9531C294.023 18.1198 294.439 18.2031 294.877 18.2031H307.939C308.825 18.2031 309.653 18.375 310.424 18.7188C311.205 19.0521 311.882 19.5104 312.455 20.0938C313.038 20.6667 313.497 21.3438 313.83 22.125C314.163 22.8958 314.33 23.7188 314.33 24.5938ZM344.846 19.7969C344.846 21.349 344.601 22.8073 344.111 24.1719C343.622 25.5365 342.924 26.724 342.018 27.7344C341.122 28.7448 340.044 29.5417 338.783 30.125C337.523 30.7083 336.122 31 334.58 31H327.127C325.575 31 324.163 30.7083 322.893 30.125C321.622 29.5417 320.533 28.7448 319.627 27.7344C318.731 26.724 318.038 25.5365 317.549 24.1719C317.059 22.8073 316.814 21.349 316.814 19.7969C316.814 18.2552 317.059 16.8073 317.549 15.4531C318.038 14.0885 318.731 12.901 319.627 11.8906C320.533 10.8698 321.622 10.0677 322.893 9.48438C324.163 8.89062 325.575 8.59375 327.127 8.59375H334.58C336.122 8.59375 337.523 8.89062 338.783 9.48438C340.044 10.0677 341.122 10.8698 342.018 11.8906C342.924 12.901 343.622 14.0885 344.111 15.4531C344.601 16.8073 344.846 18.2552 344.846 19.7969ZM341.643 19.7969C341.643 18.6927 341.481 17.6562 341.158 16.6875C340.835 15.7188 340.367 14.875 339.752 14.1562C339.148 13.4271 338.408 12.8542 337.533 12.4375C336.669 12.0104 335.684 11.7969 334.58 11.7969H327.127C326.023 11.7969 325.028 12.0104 324.143 12.4375C323.268 12.8542 322.523 13.4271 321.908 14.1562C321.304 14.875 320.835 15.7188 320.502 16.6875C320.179 17.6562 320.018 18.6927 320.018 19.7969C320.018 20.901 320.179 21.9427 320.502 22.9219C320.835 23.8906 321.304 24.7396 321.908 25.4688C322.523 26.1875 323.268 26.7552 324.143 27.1719C325.028 27.5885 326.023 27.7969 327.127 27.7969H334.58C335.684 27.7969 336.669 27.5885 337.533 27.1719C338.408 26.7552 339.148 26.1875 339.752 25.4688C340.367 24.7396 340.835 23.8906 341.158 22.9219C341.481 21.9427 341.643 20.901 341.643 19.7969ZM352.143 31H348.939V8.59375H350.533C351.575 8.59375 352.679 8.72917 353.846 9C355.023 9.27083 356.221 9.66146 357.439 10.1719C358.658 10.6823 359.872 11.3021 361.08 12.0312C362.299 12.75 363.476 13.5677 364.611 14.4844C365.747 15.401 366.814 16.401 367.814 17.4844C368.814 18.5573 369.71 19.7031 370.502 20.9219V8.59375H373.705V31H370.502C370.502 29.3542 370.215 27.7708 369.643 26.25C369.07 24.7188 368.304 23.276 367.346 21.9219C366.387 20.5677 365.283 19.3229 364.033 18.1875C362.783 17.0417 361.476 16.0365 360.111 15.1719C358.757 14.3073 357.393 13.599 356.018 13.0469C354.643 12.4844 353.351 12.1094 352.143 11.9219V31ZM404.564 31H401.361V24.5938H383.486V21.4062H401.361V11.7969H389.877C388.783 11.7969 387.752 12.0104 386.783 12.4375C385.814 12.8542 384.971 13.4271 384.252 14.1562C383.533 14.875 382.96 15.7188 382.533 16.6875C382.117 17.6562 381.908 18.6927 381.908 19.7969V31H378.705V19.7969C378.705 18.7656 378.835 17.776 379.096 16.8281C379.367 15.8698 379.742 14.9792 380.221 14.1562C380.71 13.3229 381.294 12.5677 381.971 11.8906C382.658 11.2031 383.413 10.6146 384.236 10.125C385.07 9.63542 385.96 9.26042 386.908 9C387.856 8.72917 388.846 8.59375 389.877 8.59375H404.564V31ZM431.346 31H409.939V8.59375H413.143V27.7969H431.346V31ZM437.58 31H434.377V8.59375H437.58V31ZM455.127 31H451.924V11.7969H440.596V8.59375H466.455V11.7969H455.127V31ZM494.502 24.5938C494.502 25.4896 494.288 26.3281 493.861 27.1094C493.445 27.8802 492.872 28.5573 492.143 29.1406C491.424 29.7135 490.58 30.1667 489.611 30.5C488.643 30.8333 487.606 31 486.502 31H468.611V27.7969H486.502C487.158 27.7969 487.778 27.7135 488.361 27.5469C488.945 27.3802 489.45 27.151 489.877 26.8594C490.314 26.5677 490.658 26.2292 490.908 25.8438C491.169 25.4479 491.299 25.0312 491.299 24.5938V23H476.611C475.507 23 474.465 22.7917 473.486 22.375C472.518 21.9583 471.669 21.3906 470.939 20.6719C470.221 19.9427 469.653 19.0938 469.236 18.125C468.82 17.1458 468.611 16.1042 468.611 15V8.59375H471.814V15C471.814 15.6667 471.939 16.2917 472.189 16.875C472.439 17.4583 472.778 17.9688 473.205 18.4062C473.643 18.8333 474.153 19.1719 474.736 19.4219C475.32 19.6719 475.945 19.7969 476.611 19.7969H491.299V8.59375H494.502V24.5938Z" fill="url(#paint1_angular_115_8072)"/>
<g opacity="0.6">
<path fill-rule="evenodd" clip-rule="evenodd" d="M536.021 8H541.764L549.941 20L541.764 32H536.021L544.063 20L536.021 8ZM531.221 15.2H533.399L536.501 20L533.399 24.8H531.221V20V15.2Z" fill="#F8EED9"/>
<path d="M547.941 20.5H697.441" stroke="url(#paint2_linear_115_8072)" stroke-width="2"/>
</g>
<defs>
<linearGradient id="paint0_linear_115_8072" x1="0" y1="21" x2="149.5" y2="21" gradientUnits="userSpaceOnUse">
<stop stop-color="#F8EED9" stop-opacity="0"/>
<stop offset="1" stop-color="#D8BD9F"/>
</linearGradient>
<radialGradient id="paint1_angular_115_8072" cx="0" cy="0" r="1" gradientUnits="userSpaceOnUse" gradientTransform="translate(348.721 20) scale(148.5 20)">
<stop stop-color="#A06939"/>
<stop offset="0.313195" stop-color="#C6A27E"/>
<stop offset="0.75531" stop-color="#FBF3E0"/>
<stop offset="1" stop-color="#957C50"/>
</radialGradient>
<linearGradient id="paint2_linear_115_8072" x1="697.441" y1="21" x2="547.941" y2="21" gradientUnits="userSpaceOnUse">
<stop stop-color="#F8EED9" stop-opacity="0"/>
<stop offset="1" stop-color="#D8BD9F"/>
</linearGradient>
</defs>
</svg>
