<svg width="295" height="92" viewBox="0 0 295 92" fill="none" xmlns="http://www.w3.org/2000/svg">
<path d="M24 0H270.4L294.4 32L270.4 64H24L0 32L24 0Z" fill="url(#paint0_angular_171_16)"/>
<path d="M28.03 12H37.6004L24.1979 32L37.6004 52H28.03L14.4004 32L28.03 12Z" fill="#57F8FD"/>
<path d="M265.571 12H256L269.403 32L256 52H265.571L279.2 32L265.571 12Z" fill="#57F8FD"/>
<path d="M108.197 12.3448L108.291 12.4H108.4H147.2H186H186.109L186.203 12.3448L192.909 8.4H254.186L269.919 32L254.186 55.6H192.909L186.203 51.6552L186.109 51.6H186H147.2H108.4H108.291L108.197 51.6552L101.491 55.6H40.2141L24.4807 32L40.2141 8.4H101.491L108.197 12.3448Z" fill="url(#paint1_radial_171_16)" stroke="#A06939" stroke-width="0.8"/>
<path d="M41.9697 24H45.5998V32V40H41.9697L36.7998 32L41.9697 24Z" fill="#F8EED9"/>
<path d="M253.231 24H249.6V32V40H253.231L258.4 32L253.231 24Z" fill="#F8EED9"/>
<path d="M85.1281 30.3562C85.1281 31.0187 85 31.6437 84.7438 32.2312C84.4938 32.8125 84.15 33.3219 83.7125 33.7594C83.2813 34.1906 82.775 34.5312 82.1938 34.7812C81.6125 35.0312 80.9906 35.1562 80.3281 35.1562H72.6125V33.2625H80.3281C80.7281 33.2625 81.1031 33.1875 81.4531 33.0375C81.8031 32.8812 82.1063 32.6719 82.3625 32.4094C82.625 32.1469 82.8313 31.8406 82.9813 31.4906C83.1313 31.1344 83.2063 30.7562 83.2063 30.3562C83.2063 29.9562 83.1313 29.5812 82.9813 29.2312C82.8313 28.8812 82.625 28.5781 82.3625 28.3219C82.1063 28.0594 81.8031 27.8531 81.4531 27.7031C81.1031 27.5531 80.7281 27.4781 80.3281 27.4781H71.5344V39H69.6125V25.5562H80.3281C80.9906 25.5562 81.6125 25.6844 82.1938 25.9406C82.775 26.1906 83.2813 26.5344 83.7125 26.9719C84.15 27.4031 84.4938 27.9094 84.7438 28.4906C85 29.0719 85.1281 29.6937 85.1281 30.3562ZM97.475 30.3562H90.275C90.075 30.3562 89.8875 30.3969 89.7125 30.4781C89.5375 30.5531 89.3844 30.6562 89.2531 30.7875C89.1219 30.9187 89.0188 31.0719 88.9438 31.2469C88.8688 31.4219 88.8313 31.6062 88.8313 31.8V39H86.9094V31.8C86.9094 31.3312 86.9969 30.8937 87.1719 30.4875C87.3469 30.0812 87.5875 29.7281 87.8938 29.4281C88.2 29.1219 88.5563 28.8812 88.9625 28.7062C89.3688 28.5312 89.8063 28.4437 90.275 28.4437H97.475V30.3562ZM111.181 31.8C111.181 32.2687 111.094 32.7062 110.919 33.1125C110.744 33.5187 110.503 33.875 110.197 34.1812C109.897 34.4812 109.541 34.7187 109.128 34.8937C108.722 35.0687 108.288 35.1562 107.825 35.1562H100.466C100.603 35.4375 100.775 35.6969 100.981 35.9344C101.188 36.1719 101.419 36.375 101.675 36.5437C101.931 36.7125 102.209 36.8437 102.509 36.9375C102.816 37.0312 103.134 37.0781 103.466 37.0781H109.747V39H103.466C102.741 38.9937 102.059 38.8531 101.422 38.5781C100.784 38.2969 100.228 37.9187 99.7531 37.4437C99.2844 36.9625 98.9125 36.4031 98.6375 35.7656C98.3625 35.1281 98.225 34.4469 98.225 33.7219C98.225 32.9969 98.3625 32.3156 98.6375 31.6781C98.9125 31.0406 99.2844 30.4844 99.7531 30.0094C100.228 29.5281 100.784 29.15 101.422 28.875C102.059 28.5937 102.741 28.45 103.466 28.4437H107.825C108.288 28.4437 108.722 28.5312 109.128 28.7062C109.541 28.8812 109.897 29.1219 110.197 29.4281C110.503 29.7281 110.744 30.0812 110.919 30.4875C111.094 30.8937 111.181 31.3312 111.181 31.8ZM107.825 33.2437C108.019 33.2437 108.203 33.2062 108.378 33.1312C108.553 33.0562 108.706 32.9531 108.838 32.8219C108.969 32.6906 109.072 32.5375 109.147 32.3625C109.222 32.1875 109.259 32 109.259 31.8C109.259 31.6062 109.222 31.4219 109.147 31.2469C109.072 31.0719 108.969 30.9187 108.838 30.7875C108.706 30.6562 108.553 30.5531 108.378 30.4781C108.203 30.3969 108.019 30.3562 107.825 30.3562H103.466C103.041 30.3562 102.641 30.4312 102.266 30.5812C101.897 30.7312 101.566 30.9375 101.272 31.2C100.984 31.4562 100.744 31.7625 100.55 32.1187C100.363 32.4687 100.241 32.8437 100.184 33.2437H107.825ZM123.472 33.2437H112.916V31.3219H123.472V33.2437ZM141.847 39H139.25L135.219 35.1562H129.331V33.2625H137.047C137.447 33.2625 137.822 33.1875 138.172 33.0375C138.522 32.8812 138.825 32.6719 139.081 32.4094C139.344 32.1469 139.55 31.8406 139.7 31.4906C139.85 31.1344 139.925 30.7562 139.925 30.3562C139.925 29.9562 139.85 29.5812 139.7 29.2312C139.55 28.8812 139.344 28.5781 139.081 28.3219C138.825 28.0594 138.522 27.8531 138.172 27.7031C137.822 27.5531 137.447 27.4781 137.047 27.4781H128.253V39H126.331V25.5562H137.047C137.709 25.5562 138.331 25.6844 138.913 25.9406C139.494 26.1906 140 26.5344 140.431 26.9719C140.869 27.4031 141.213 27.9094 141.463 28.4906C141.719 29.0719 141.847 29.6937 141.847 30.3562C141.847 30.9562 141.744 31.525 141.538 32.0625C141.331 32.5937 141.047 33.0719 140.684 33.4969C140.322 33.9156 139.894 34.2656 139.4 34.5469C138.913 34.8219 138.384 35.0062 137.816 35.1L141.847 39ZM156.294 31.8C156.294 32.2687 156.206 32.7062 156.031 33.1125C155.856 33.5187 155.616 33.875 155.309 34.1812C155.009 34.4812 154.653 34.7187 154.241 34.8937C153.834 35.0687 153.4 35.1562 152.938 35.1562H145.578C145.716 35.4375 145.888 35.6969 146.094 35.9344C146.3 36.1719 146.531 36.375 146.788 36.5437C147.044 36.7125 147.322 36.8437 147.622 36.9375C147.928 37.0312 148.247 37.0781 148.578 37.0781H154.859V39H148.578C147.853 38.9937 147.172 38.8531 146.534 38.5781C145.897 38.2969 145.341 37.9187 144.866 37.4437C144.397 36.9625 144.025 36.4031 143.75 35.7656C143.475 35.1281 143.338 34.4469 143.338 33.7219C143.338 32.9969 143.475 32.3156 143.75 31.6781C144.025 31.0406 144.397 30.4844 144.866 30.0094C145.341 29.5281 145.897 29.15 146.534 28.875C147.172 28.5937 147.853 28.45 148.578 28.4437H152.938C153.4 28.4437 153.834 28.5312 154.241 28.7062C154.653 28.8812 155.009 29.1219 155.309 29.4281C155.616 29.7281 155.856 30.0812 156.031 30.4875C156.206 30.8937 156.294 31.3312 156.294 31.8ZM152.938 33.2437C153.131 33.2437 153.316 33.2062 153.491 33.1312C153.666 33.0562 153.819 32.9531 153.95 32.8219C154.081 32.6906 154.184 32.5375 154.259 32.3625C154.334 32.1875 154.372 32 154.372 31.8C154.372 31.6062 154.334 31.4219 154.259 31.2469C154.184 31.0719 154.081 30.9187 153.95 30.7875C153.819 30.6562 153.666 30.5531 153.491 30.4781C153.316 30.3969 153.131 30.3562 152.938 30.3562H148.578C148.153 30.3562 147.753 30.4312 147.378 30.5812C147.009 30.7312 146.678 30.9375 146.384 31.2C146.097 31.4562 145.856 31.7625 145.663 32.1187C145.475 32.4687 145.353 32.8437 145.297 33.2437H152.938ZM169.953 39.4781C169.953 39.9469 169.863 40.3844 169.681 40.7906C169.506 41.1969 169.266 41.5531 168.959 41.8594C168.659 42.1656 168.303 42.4063 167.891 42.5813C167.484 42.7563 167.05 42.8438 166.588 42.8438H158.909V40.9219H166.588C166.781 40.9219 166.966 40.8844 167.141 40.8094C167.316 40.7344 167.469 40.6313 167.6 40.5C167.731 40.3688 167.834 40.2156 167.909 40.0406C167.991 39.8656 168.031 39.6781 168.031 39.4781V30.3562H162.753C162.291 30.3625 161.856 30.4562 161.45 30.6375C161.05 30.8125 160.7 31.0531 160.4 31.3594C160.1 31.6594 159.863 32.0125 159.688 32.4187C159.519 32.825 159.434 33.2594 159.434 33.7219C159.434 34.1844 159.519 34.6187 159.688 35.025C159.863 35.425 160.1 35.7781 160.4 36.0844C160.7 36.3844 161.05 36.625 161.45 36.8062C161.856 36.9812 162.291 37.0719 162.753 37.0781H167.075V39H162.753C162.028 38.9937 161.347 38.8531 160.709 38.5781C160.072 38.2969 159.516 37.9187 159.041 37.4437C158.572 36.9625 158.2 36.4031 157.925 35.7656C157.65 35.1281 157.513 34.4469 157.513 33.7219C157.513 32.9969 157.65 32.3156 157.925 31.6781C158.2 31.0406 158.572 30.4844 159.041 30.0094C159.516 29.5281 160.072 29.15 160.709 28.875C161.347 28.5937 162.028 28.45 162.753 28.4437H169.953V39.4781ZM175.109 26.0437C175.109 26.2437 175.072 26.4312 174.997 26.6062C174.922 26.775 174.819 26.925 174.688 27.0562C174.556 27.1875 174.403 27.2906 174.228 27.3656C174.053 27.4406 173.869 27.4781 173.675 27.4781C173.475 27.4781 173.288 27.4406 173.113 27.3656C172.938 27.2906 172.784 27.1875 172.653 27.0562C172.522 26.925 172.419 26.775 172.344 26.6062C172.269 26.4312 172.231 26.2437 172.231 26.0437C172.231 25.85 172.269 25.6656 172.344 25.4906C172.419 25.3156 172.522 25.1625 172.653 25.0312C172.784 24.9 172.938 24.7969 173.113 24.7219C173.288 24.6406 173.475 24.6 173.675 24.6C173.869 24.6 174.053 24.6406 174.228 24.7219C174.403 24.7969 174.556 24.9 174.688 25.0312C174.819 25.1625 174.922 25.3156 174.997 25.4906C175.072 25.6656 175.109 25.85 175.109 26.0437ZM174.631 39H172.709V28.4437H174.631V39ZM188.422 35.6437C188.422 36.1062 188.334 36.5437 188.159 36.9562C187.984 37.3625 187.744 37.7187 187.438 38.025C187.138 38.325 186.781 38.5625 186.369 38.7375C185.963 38.9125 185.528 39 185.066 39H176.9V37.0781H185.066C185.259 37.0781 185.444 37.0406 185.619 36.9656C185.794 36.8906 185.947 36.7875 186.078 36.6562C186.209 36.525 186.313 36.375 186.388 36.2062C186.463 36.0312 186.5 35.8437 186.5 35.6437C186.5 35.45 186.463 35.2656 186.388 35.0906C186.313 34.9156 186.209 34.7625 186.078 34.6312C185.947 34.5 185.794 34.3969 185.619 34.3219C185.444 34.2406 185.259 34.2 185.066 34.2H179.778C179.378 34.2 179.003 34.125 178.653 33.975C178.303 33.825 177.997 33.6219 177.734 33.3656C177.478 33.1031 177.275 32.7969 177.125 32.4469C176.975 32.0969 176.9 31.7219 176.9 31.3219C176.9 30.9219 176.975 30.5469 177.125 30.1969C177.275 29.8469 177.478 29.5437 177.734 29.2875C177.997 29.025 178.303 28.8187 178.653 28.6687C179.003 28.5187 179.378 28.4437 179.778 28.4437H187.466V30.3562H179.778C179.509 30.3562 179.281 30.45 179.094 30.6375C178.913 30.8187 178.822 31.0469 178.822 31.3219C178.822 31.5906 178.913 31.8187 179.094 32.0062C179.281 32.1875 179.509 32.2781 179.778 32.2781H185.066C185.528 32.2781 185.963 32.3656 186.369 32.5406C186.781 32.7156 187.138 32.9562 187.438 33.2625C187.744 33.5687 187.984 33.925 188.159 34.3312C188.334 34.7375 188.422 35.175 188.422 35.6437ZM194.066 39H192.144V30.3562H189.266V28.4437H192.144V24.6H194.066V28.4437H200.788V30.3562H194.066V39ZM214.456 31.8C214.456 32.2687 214.369 32.7062 214.194 33.1125C214.019 33.5187 213.778 33.875 213.472 34.1812C213.172 34.4812 212.816 34.7187 212.403 34.8937C211.997 35.0687 211.563 35.1562 211.1 35.1562H203.741C203.878 35.4375 204.05 35.6969 204.256 35.9344C204.463 36.1719 204.694 36.375 204.95 36.5437C205.206 36.7125 205.484 36.8437 205.784 36.9375C206.091 37.0312 206.409 37.0781 206.741 37.0781H213.022V39H206.741C206.016 38.9937 205.334 38.8531 204.697 38.5781C204.059 38.2969 203.503 37.9187 203.028 37.4437C202.559 36.9625 202.188 36.4031 201.913 35.7656C201.638 35.1281 201.5 34.4469 201.5 33.7219C201.5 32.9969 201.638 32.3156 201.913 31.6781C202.188 31.0406 202.559 30.4844 203.028 30.0094C203.503 29.5281 204.059 29.15 204.697 28.875C205.334 28.5937 206.016 28.45 206.741 28.4437H211.1C211.563 28.4437 211.997 28.5312 212.403 28.7062C212.816 28.8812 213.172 29.1219 213.472 29.4281C213.778 29.7281 214.019 30.0812 214.194 30.4875C214.369 30.8937 214.456 31.3312 214.456 31.8ZM211.1 33.2437C211.294 33.2437 211.478 33.2062 211.653 33.1312C211.828 33.0562 211.981 32.9531 212.113 32.8219C212.244 32.6906 212.347 32.5375 212.422 32.3625C212.497 32.1875 212.534 32 212.534 31.8C212.534 31.6062 212.497 31.4219 212.422 31.2469C212.347 31.0719 212.244 30.9187 212.113 30.7875C211.981 30.6562 211.828 30.5531 211.653 30.4781C211.478 30.3969 211.294 30.3562 211.1 30.3562H206.741C206.316 30.3562 205.916 30.4312 205.541 30.5812C205.172 30.7312 204.841 30.9375 204.547 31.2C204.259 31.4562 204.019 31.7625 203.825 32.1187C203.638 32.4687 203.516 32.8437 203.459 33.2437H211.1ZM226.831 30.3562H219.631C219.431 30.3562 219.244 30.3969 219.069 30.4781C218.894 30.5531 218.741 30.6562 218.609 30.7875C218.478 30.9187 218.375 31.0719 218.3 31.2469C218.225 31.4219 218.188 31.6062 218.188 31.8V39H216.266V31.8C216.266 31.3312 216.353 30.8937 216.528 30.4875C216.703 30.0812 216.944 29.7281 217.25 29.4281C217.556 29.1219 217.913 28.8812 218.319 28.7062C218.725 28.5312 219.163 28.4437 219.631 28.4437H226.831V30.3562Z" fill="#FAF0DB"/>
<path d="M77.344 80.2H78.38V90H77.344V80.2ZM82.8727 90.112C82.3967 90.112 81.972 90 81.5987 89.776C81.2253 89.552 80.936 89.2393 80.7307 88.838C80.5253 88.4367 80.4227 87.97 80.4227 87.438V85.758C80.4227 85.198 80.53 84.7033 80.7447 84.274C80.9593 83.8353 81.2627 83.4993 81.6547 83.266C82.0467 83.0233 82.4947 82.902 82.9987 82.902H84.0347C84.352 82.902 84.6553 82.9767 84.9447 83.126C85.2433 83.2753 85.4813 83.4807 85.6587 83.742V80.2H86.6667V90H85.6867V88.964C85.472 89.3093 85.192 89.5893 84.8467 89.804C84.5013 90.0093 84.1653 90.112 83.8387 90.112H82.8727ZM83.8107 89.216C84.1093 89.216 84.3987 89.1227 84.6787 88.936C84.9587 88.74 85.1873 88.488 85.3647 88.18C85.542 87.872 85.64 87.5547 85.6587 87.228V85.464C85.5933 84.9693 85.4067 84.568 85.0987 84.26C84.8 83.952 84.436 83.798 84.0067 83.798H83.0267C82.5507 83.798 82.1633 83.98 81.8647 84.344C81.5753 84.6987 81.4307 85.17 81.4307 85.758V87.438C81.4307 87.9607 81.566 88.39 81.8367 88.726C82.1167 89.0527 82.4713 89.216 82.9007 89.216H83.8107ZM90.7284 90C90.0378 90 89.5431 89.8553 89.2444 89.566C88.9458 89.2673 88.7964 88.7773 88.7964 88.096V80.2H89.8044V88.096C89.8044 88.4507 89.8744 88.7073 90.0144 88.866C90.1638 89.0247 90.4018 89.104 90.7284 89.104H91.2044V90H90.7284ZM94.8665 90.112C94.0825 90.112 93.4525 89.8833 92.9765 89.426C92.5005 88.9593 92.2625 88.3433 92.2625 87.578V85.576C92.2625 84.7733 92.5005 84.1293 92.9765 83.644C93.4525 83.1493 94.0825 82.902 94.8665 82.902H96.0145C96.7612 82.902 97.3632 83.14 97.8205 83.616C98.2778 84.092 98.5065 84.722 98.5065 85.506V86.738H93.2705V87.578C93.2705 88.0633 93.4152 88.46 93.7045 88.768C94.0032 89.0667 94.3905 89.216 94.8665 89.216H95.9305C96.3972 89.216 96.7752 89.09 97.0645 88.838C97.3538 88.5767 97.4985 88.2313 97.4985 87.802H98.4785C98.4785 88.4927 98.2452 89.0527 97.7785 89.482C97.3118 89.902 96.6958 90.112 95.9305 90.112H94.8665ZM97.4985 85.87V85.506C97.4985 84.9927 97.3632 84.582 97.0925 84.274C96.8218 83.9567 96.4625 83.798 96.0145 83.798H94.8665C94.3905 83.798 94.0032 83.9613 93.7045 84.288C93.4152 84.6147 93.2705 85.044 93.2705 85.576V85.87H97.4985ZM103.96 80.2H108.72C109.439 80.2 110.013 80.4053 110.442 80.816C110.881 81.2173 111.1 81.7493 111.1 82.412V83.434C111.1 83.9287 110.941 84.3673 110.624 84.75C110.307 85.1233 109.882 85.3893 109.35 85.548V85.562C109.63 85.7113 109.882 85.9493 110.106 86.276C110.339 86.6027 110.517 86.9713 110.638 87.382L111.408 90H110.344L109.574 87.382C109.443 86.9247 109.215 86.556 108.888 86.276C108.571 85.996 108.221 85.856 107.838 85.856H104.996V90H103.96V80.2ZM108.356 84.932C108.869 84.932 109.28 84.7967 109.588 84.526C109.905 84.246 110.064 83.882 110.064 83.434V82.356C110.064 81.9827 109.938 81.684 109.686 81.46C109.434 81.236 109.103 81.124 108.692 81.124H104.996V84.932H108.356ZM113.065 80.2H117.811C118.539 80.2 119.123 80.4053 119.561 80.816C120.009 81.2267 120.233 81.768 120.233 82.44V83.882C120.233 84.6007 119.995 85.184 119.519 85.632C119.043 86.0707 118.418 86.29 117.643 86.29H114.101V90H113.065V80.2ZM117.615 85.366C118.091 85.366 118.474 85.2307 118.763 84.96C119.053 84.68 119.197 84.3113 119.197 83.854V82.412C119.197 82.0293 119.067 81.7213 118.805 81.488C118.553 81.2453 118.213 81.124 117.783 81.124H114.101V85.366H117.615ZM124.728 90.112C124.084 90.112 123.519 89.9673 123.034 89.678C122.558 89.3793 122.184 88.9593 121.914 88.418C121.652 87.8767 121.522 87.256 121.522 86.556V83.644C121.522 82.944 121.657 82.328 121.928 81.796C122.208 81.2547 122.595 80.8347 123.09 80.536C123.584 80.2373 124.154 80.088 124.798 80.088H126.282C126.898 80.088 127.439 80.2187 127.906 80.48C128.382 80.7413 128.75 81.11 129.012 81.586C129.273 82.062 129.404 82.608 129.404 83.224H128.396C128.396 82.5613 128.2 82.0293 127.808 81.628C127.425 81.2173 126.916 81.012 126.282 81.012H124.798C124.126 81.012 123.584 81.2547 123.174 81.74C122.763 82.216 122.558 82.8507 122.558 83.644V86.556C122.558 87.3493 122.754 87.9887 123.146 88.474C123.547 88.95 124.074 89.188 124.728 89.188H126.24C126.902 89.188 127.439 88.9593 127.85 88.502C128.26 88.0447 128.466 87.4427 128.466 86.696V85.856H125.75V84.946H129.474V86.696C129.474 87.368 129.338 87.9653 129.068 88.488C128.806 89.0013 128.428 89.4027 127.934 89.692C127.448 89.972 126.884 90.112 126.24 90.112H124.728ZM137.907 90.112C137.281 90.112 136.726 89.9627 136.241 89.664C135.765 89.3653 135.391 88.95 135.121 88.418C134.859 87.8767 134.729 87.256 134.729 86.556V83.644C134.729 82.944 134.859 82.3233 135.121 81.782C135.391 81.2407 135.769 80.8253 136.255 80.536C136.749 80.2373 137.319 80.088 137.963 80.088H139.447C140.053 80.088 140.585 80.2187 141.043 80.48C141.509 80.7413 141.869 81.11 142.121 81.586C142.382 82.062 142.513 82.608 142.513 83.224H141.505C141.505 82.5613 141.313 82.0293 140.931 81.628C140.557 81.2173 140.063 81.012 139.447 81.012H137.963C137.3 81.012 136.768 81.2547 136.367 81.74C135.965 82.216 135.765 82.8507 135.765 83.644V86.556C135.765 87.3493 135.961 87.9887 136.353 88.474C136.745 88.95 137.263 89.188 137.907 89.188H139.419C140.053 89.188 140.562 88.964 140.945 88.516C141.337 88.068 141.533 87.48 141.533 86.752H142.541C142.541 87.4147 142.41 88.0027 142.149 88.516C141.887 89.02 141.519 89.412 141.043 89.692C140.576 89.972 140.035 90.112 139.419 90.112H137.907ZM146.127 90C145.436 90 144.942 89.8553 144.643 89.566C144.344 89.2673 144.195 88.7773 144.195 88.096V80.2H145.203V88.096C145.203 88.4507 145.273 88.7073 145.413 88.866C145.562 89.0247 145.8 89.104 146.127 89.104H146.603V90H146.127ZM148.697 81.964C148.473 81.964 148.291 81.894 148.151 81.754C148.011 81.614 147.941 81.432 147.941 81.208C147.941 80.984 148.011 80.802 148.151 80.662C148.291 80.522 148.473 80.452 148.697 80.452C148.921 80.452 149.103 80.522 149.243 80.662C149.383 80.802 149.453 80.984 149.453 81.208C149.453 81.432 149.383 81.614 149.243 81.754C149.103 81.894 148.921 81.964 148.697 81.964ZM148.193 83.014H149.201V90H148.193V83.014ZM153.846 90.112C153.08 90.112 152.464 89.8833 151.998 89.426C151.531 88.9593 151.298 88.3433 151.298 87.578V85.576C151.298 84.7733 151.531 84.1293 151.998 83.644C152.464 83.1493 153.076 82.902 153.832 82.902H154.98C155.698 82.902 156.277 83.1027 156.716 83.504C157.154 83.9053 157.374 84.4327 157.374 85.086H156.394C156.394 84.7033 156.263 84.3953 156.002 84.162C155.75 83.9193 155.409 83.798 154.98 83.798H153.832C153.374 83.798 153.006 83.9613 152.726 84.288C152.446 84.6147 152.306 85.044 152.306 85.576V87.578C152.306 88.0727 152.446 88.4693 152.726 88.768C153.015 89.0667 153.388 89.216 153.846 89.216H154.994C155.432 89.216 155.782 89.062 156.044 88.754C156.314 88.446 156.45 88.0353 156.45 87.522H157.43C157.43 88.2967 157.206 88.922 156.758 89.398C156.31 89.874 155.722 90.112 154.994 90.112H153.846ZM163.802 90L161.058 86.696L160.092 87.662V90H159.084V80.2H160.092V86.43L163.55 83.014H164.782L161.758 86.01L165.006 90H163.802ZM168.189 90.112C167.405 90.112 166.775 89.8833 166.299 89.426C165.823 88.9593 165.585 88.3433 165.585 87.578V85.576C165.585 84.7733 165.823 84.1293 166.299 83.644C166.775 83.1493 167.405 82.902 168.189 82.902H169.337C170.083 82.902 170.685 83.14 171.143 83.616C171.6 84.092 171.829 84.722 171.829 85.506V86.738H166.593V87.578C166.593 88.0633 166.737 88.46 167.027 88.768C167.325 89.0667 167.713 89.216 168.189 89.216H169.253C169.719 89.216 170.097 89.09 170.387 88.838C170.676 88.5767 170.821 88.2313 170.821 87.802H171.801C171.801 88.4927 171.567 89.0527 171.101 89.482C170.634 89.902 170.018 90.112 169.253 90.112H168.189ZM170.821 85.87V85.506C170.821 84.9927 170.685 84.582 170.415 84.274C170.144 83.9567 169.785 83.798 169.337 83.798H168.189C167.713 83.798 167.325 83.9613 167.027 84.288C166.737 84.6147 166.593 85.044 166.593 85.576V85.87H170.821ZM173.589 83.014H174.569V84.092C174.756 83.7653 175.036 83.4993 175.409 83.294C175.792 83.0887 176.189 82.986 176.599 82.986H177.215V83.896H176.599C176.002 83.896 175.517 84.0873 175.143 84.47C174.779 84.8433 174.597 85.3427 174.597 85.968V90H173.589V83.014ZM185.185 90.112C184.541 90.112 183.976 89.9673 183.491 89.678C183.015 89.3793 182.641 88.9593 182.371 88.418C182.109 87.8767 181.979 87.256 181.979 86.556V83.644C181.979 82.944 182.114 82.328 182.385 81.796C182.665 81.2547 183.052 80.8347 183.547 80.536C184.041 80.2373 184.611 80.088 185.255 80.088H186.739C187.355 80.088 187.896 80.2187 188.363 80.48C188.839 80.7413 189.207 81.11 189.469 81.586C189.73 82.062 189.861 82.608 189.861 83.224H188.853C188.853 82.5613 188.657 82.0293 188.265 81.628C187.882 81.2173 187.373 81.012 186.739 81.012H185.255C184.583 81.012 184.041 81.2547 183.631 81.74C183.22 82.216 183.015 82.8507 183.015 83.644V86.556C183.015 87.3493 183.211 87.9887 183.603 88.474C184.004 88.95 184.531 89.188 185.185 89.188H186.697C187.359 89.188 187.896 88.9593 188.307 88.502C188.717 88.0447 188.923 87.4427 188.923 86.696V85.856H186.207V84.946H189.931V86.696C189.931 87.368 189.795 87.9653 189.525 88.488C189.263 89.0013 188.885 89.4027 188.391 89.692C187.905 89.972 187.341 90.112 186.697 90.112H185.185ZM193.789 90.112C193.108 90.112 192.562 89.9347 192.151 89.58C191.75 89.2253 191.549 88.7493 191.549 88.152V87.704C191.549 87.116 191.759 86.6447 192.179 86.29C192.599 85.9353 193.154 85.758 193.845 85.758H194.741C195.049 85.758 195.366 85.8047 195.693 85.898C196.02 85.9913 196.3 86.1173 196.533 86.276V85.114C196.533 84.722 196.412 84.4047 196.169 84.162C195.926 83.91 195.604 83.784 195.203 83.784H194.083C193.682 83.784 193.36 83.8773 193.117 84.064C192.874 84.2507 192.753 84.498 192.753 84.806H191.745C191.745 84.2367 191.96 83.7793 192.389 83.434C192.818 83.0793 193.383 82.902 194.083 82.902H195.203C195.894 82.902 196.449 83.1073 196.869 83.518C197.298 83.9193 197.513 84.4513 197.513 85.114V90H196.561V89.02C196.346 89.356 196.062 89.622 195.707 89.818C195.362 90.014 195.002 90.112 194.629 90.112H193.789ZM194.657 89.23C195.096 89.23 195.488 89.0947 195.833 88.824C196.178 88.5533 196.412 88.194 196.533 87.746V87.228C196.346 87.0507 196.085 86.9107 195.749 86.808C195.422 86.696 195.086 86.64 194.741 86.64H193.845C193.462 86.64 193.15 86.738 192.907 86.934C192.674 87.13 192.557 87.3867 192.557 87.704V88.152C192.557 88.4787 192.669 88.74 192.893 88.936C193.117 89.132 193.416 89.23 193.789 89.23H194.657ZM207.21 82.902C207.826 82.902 208.312 83.1027 208.666 83.504C209.03 83.896 209.212 84.442 209.212 85.142V90H208.204V85.114C208.204 84.7033 208.111 84.3813 207.924 84.148C207.738 83.9147 207.49 83.798 207.182 83.798H206.384C205.983 83.798 205.652 83.9333 205.39 84.204C205.129 84.4747 204.961 84.8573 204.886 85.352V90H203.878V85.198C203.878 84.7593 203.79 84.4187 203.612 84.176C203.444 83.924 203.211 83.798 202.912 83.798H202.114C201.732 83.798 201.396 83.966 201.106 84.302C200.817 84.638 200.635 85.0767 200.56 85.618V90H199.552V83.014H200.532V84.022C200.719 83.6673 200.952 83.392 201.232 83.196C201.512 83 201.806 82.902 202.114 82.902H202.94C203.332 82.902 203.668 83 203.948 83.196C204.238 83.3827 204.457 83.658 204.606 84.022C204.821 83.6487 205.078 83.3687 205.376 83.182C205.675 82.9953 206.002 82.902 206.356 82.902H207.21ZM213.579 90.112C212.795 90.112 212.165 89.8833 211.689 89.426C211.213 88.9593 210.975 88.3433 210.975 87.578V85.576C210.975 84.7733 211.213 84.1293 211.689 83.644C212.165 83.1493 212.795 82.902 213.579 82.902H214.727C215.474 82.902 216.076 83.14 216.533 83.616C216.991 84.092 217.219 84.722 217.219 85.506V86.738H211.983V87.578C211.983 88.0633 212.128 88.46 212.417 88.768C212.716 89.0667 213.103 89.216 213.579 89.216H214.643C215.11 89.216 215.488 89.09 215.777 88.838C216.067 88.5767 216.211 88.2313 216.211 87.802H217.191C217.191 88.4927 216.958 89.0527 216.491 89.482C216.025 89.902 215.409 90.112 214.643 90.112H213.579ZM216.211 85.87V85.506C216.211 84.9927 216.076 84.582 215.805 84.274C215.535 83.9567 215.175 83.798 214.727 83.798H213.579C213.103 83.798 212.716 83.9613 212.417 84.288C212.128 84.6147 211.983 85.044 211.983 85.576V85.87H216.211Z" fill="white" fill-opacity="0.68"/>
<defs>
<radialGradient id="paint0_angular_171_16" cx="0" cy="0" r="1" gradientUnits="userSpaceOnUse" gradientTransform="translate(147.2 32) scale(147.2 32)">
<stop stop-color="#A06939"/>
<stop offset="0.313195" stop-color="#C6A27E"/>
<stop offset="0.75531" stop-color="#FBF3E0"/>
<stop offset="1" stop-color="#957C50"/>
</radialGradient>
<radialGradient id="paint1_radial_171_16" cx="0" cy="0" r="1" gradientUnits="userSpaceOnUse" gradientTransform="translate(147.2 32) scale(123.2 66.2941)">
<stop/>
<stop offset="1" stop-color="#2E3087"/>
</radialGradient>
</defs>
</svg>
