<svg width="484" height="60" viewBox="0 0 484 60" fill="none" xmlns="http://www.w3.org/2000/svg">
<path d="M36.4844 41H22.0625C20.5104 41 19.099 40.7083 17.8281 40.125C16.5573 39.5417 15.4688 38.7448 14.5625 37.7344C13.6667 36.724 12.974 35.5365 12.4844 34.1719C11.9948 32.8073 11.75 31.349 11.75 29.7969C11.75 28.2552 11.9948 26.8073 12.4844 25.4531C12.974 24.0885 13.6667 22.901 14.5625 21.8906C15.4688 20.8698 16.5573 20.0677 17.8281 19.4844C19.099 18.8906 20.5104 18.5938 22.0625 18.5938H36.4844V21.7969H22.0625C20.9583 21.7969 19.9635 22.0104 19.0781 22.4375C18.2031 22.8542 17.4583 23.4271 16.8438 24.1562C16.2396 24.875 15.7708 25.7188 15.4375 26.6875C15.1146 27.6562 14.9531 28.6927 14.9531 29.7969C14.9531 30.901 15.1146 31.9427 15.4375 32.9219C15.7708 33.8906 16.2396 34.7396 16.8438 35.4688C17.4583 36.1875 18.2031 36.7552 19.0781 37.1719C19.9635 37.5885 20.9583 37.7969 22.0625 37.7969H33.2812V31.4062H19.7188V28.2031H36.4844V41ZM66.7188 41H63.5156V34.5938H45.6406V31.4062H63.5156V21.7969H52.0312C50.9375 21.7969 49.9062 22.0104 48.9375 22.4375C47.9688 22.8542 47.125 23.4271 46.4062 24.1562C45.6875 24.875 45.1146 25.7188 44.6875 26.6875C44.2708 27.6562 44.0625 28.6927 44.0625 29.7969V41H40.8594V29.7969C40.8594 28.7656 40.9896 27.776 41.25 26.8281C41.5208 25.8698 41.8958 24.9792 42.375 24.1562C42.8646 23.3229 43.4479 22.5677 44.125 21.8906C44.8125 21.2031 45.5677 20.6146 46.3906 20.125C47.224 19.6354 48.1146 19.2604 49.0625 19C50.0104 18.7292 51 18.5938 52.0312 18.5938H66.7188V41ZM88.2188 41H85.0156V29.7969C85.0156 28.6927 84.8073 27.6562 84.3906 26.6875C83.974 25.7188 83.401 24.875 82.6719 24.1562C81.9531 23.4271 81.1042 22.8542 80.125 22.4375C79.1562 22.0104 78.1198 21.7969 77.0156 21.7969H75.2969V41H72.0938V18.5938H77.0156C78.0365 18.5938 79.0156 18.7292 79.9531 19C80.901 19.2604 81.7865 19.6302 82.6094 20.1094C83.4323 20.5885 84.1823 21.1615 84.8594 21.8281C85.5365 22.4948 86.125 23.2344 86.625 24.0469C87.1146 23.2344 87.6979 22.4948 88.375 21.8281C89.0521 21.1615 89.8021 20.5885 90.625 20.1094C91.4479 19.6302 92.3281 19.2604 93.2656 19C94.2135 18.7292 95.1979 18.5938 96.2188 18.5938H101.156V41H97.9531V21.7969H96.2188C95.1146 21.7969 94.0781 22.0104 93.1094 22.4375C92.1406 22.8542 91.2917 23.4271 90.5625 24.1562C89.8438 24.875 89.2708 25.7188 88.8438 26.6875C88.4271 27.6562 88.2188 28.6927 88.2188 29.7969V41ZM129.703 41H106.531V18.5938H129.703V21.7969H109.734V37.7969H129.703V41ZM126.984 31.4062H111.328V28.2031H126.984V31.4062ZM170.422 34.5938C170.422 35.4896 170.255 36.3281 169.922 37.1094C169.589 37.8802 169.13 38.5573 168.547 39.1406C167.974 39.7135 167.297 40.1667 166.516 40.5C165.745 40.8333 164.917 41 164.031 41H144.562V37.7969H164.031C164.479 37.7969 164.896 37.7135 165.281 37.5469C165.667 37.3802 166 37.151 166.281 36.8594C166.573 36.5677 166.802 36.2292 166.969 35.8438C167.135 35.4479 167.219 35.0312 167.219 34.5938C167.219 34.1562 167.135 33.7448 166.969 33.3594C166.802 32.974 166.573 32.6354 166.281 32.3438C166 32.0521 165.667 31.8229 165.281 31.6562C164.896 31.4896 164.479 31.4062 164.031 31.4062H150.969C150.094 31.4062 149.266 31.2396 148.484 30.9062C147.703 30.5729 147.021 30.1198 146.438 29.5469C145.865 28.9635 145.406 28.2812 145.062 27.5C144.729 26.7188 144.562 25.8854 144.562 25C144.562 24.125 144.729 23.2969 145.062 22.5156C145.406 21.7344 145.865 21.0573 146.438 20.4844C147.021 19.901 147.703 19.4427 148.484 19.1094C149.266 18.7656 150.094 18.5938 150.969 18.5938H168.828V21.7969H150.969C150.531 21.7969 150.115 21.8802 149.719 22.0469C149.333 22.2135 148.995 22.4427 148.703 22.7344C148.411 23.026 148.182 23.3698 148.016 23.7656C147.849 24.151 147.766 24.5625 147.766 25C147.766 25.4375 147.849 25.8542 148.016 26.25C148.182 26.6354 148.411 26.974 148.703 27.2656C148.995 27.5573 149.333 27.7865 149.719 27.9531C150.115 28.1198 150.531 28.2031 150.969 28.2031H164.031C164.917 28.2031 165.745 28.375 166.516 28.7188C167.297 29.0521 167.974 29.5104 168.547 30.0938C169.13 30.6667 169.589 31.3438 169.922 32.125C170.255 32.8958 170.422 33.7188 170.422 34.5938ZM186.344 41H183.141V21.7969H171.812V18.5938H197.672V21.7969H186.344V41ZM227.062 29.7969C227.062 31.349 226.818 32.8073 226.328 34.1719C225.839 35.5365 225.141 36.724 224.234 37.7344C223.339 38.7448 222.26 39.5417 221 40.125C219.74 40.7083 218.339 41 216.797 41H209.344C207.792 41 206.38 40.7083 205.109 40.125C203.839 39.5417 202.75 38.7448 201.844 37.7344C200.948 36.724 200.255 35.5365 199.766 34.1719C199.276 32.8073 199.031 31.349 199.031 29.7969C199.031 28.2552 199.276 26.8073 199.766 25.4531C200.255 24.0885 200.948 22.901 201.844 21.8906C202.75 20.8698 203.839 20.0677 205.109 19.4844C206.38 18.8906 207.792 18.5938 209.344 18.5938H216.797C218.339 18.5938 219.74 18.8906 221 19.4844C222.26 20.0677 223.339 20.8698 224.234 21.8906C225.141 22.901 225.839 24.0885 226.328 25.4531C226.818 26.8073 227.062 28.2552 227.062 29.7969ZM223.859 29.7969C223.859 28.6927 223.698 27.6562 223.375 26.6875C223.052 25.7188 222.583 24.875 221.969 24.1562C221.365 23.4271 220.625 22.8542 219.75 22.4375C218.885 22.0104 217.901 21.7969 216.797 21.7969H209.344C208.24 21.7969 207.245 22.0104 206.359 22.4375C205.484 22.8542 204.74 23.4271 204.125 24.1562C203.521 24.875 203.052 25.7188 202.719 26.6875C202.396 27.6562 202.234 28.6927 202.234 29.7969C202.234 30.901 202.396 31.9427 202.719 32.9219C203.052 33.8906 203.521 34.7396 204.125 35.4688C204.74 36.1875 205.484 36.7552 206.359 37.1719C207.245 37.5885 208.24 37.7969 209.344 37.7969H216.797C217.901 37.7969 218.885 37.5885 219.75 37.1719C220.625 36.7552 221.365 36.1875 221.969 35.4688C222.583 34.7396 223.052 33.8906 223.375 32.9219C223.698 31.9427 223.859 30.901 223.859 29.7969ZM257.016 41H252.688L245.969 34.5938H236.156V31.4375H249.016C249.682 31.4375 250.307 31.3125 250.891 31.0625C251.474 30.8021 251.979 30.4531 252.406 30.0156C252.844 29.5781 253.188 29.0677 253.438 28.4844C253.688 27.8906 253.812 27.2604 253.812 26.5938C253.812 25.9271 253.688 25.3021 253.438 24.7188C253.188 24.1354 252.844 23.6302 252.406 23.2031C251.979 22.7656 251.474 22.4219 250.891 22.1719C250.307 21.9219 249.682 21.7969 249.016 21.7969H234.359V41H231.156V18.5938H249.016C250.12 18.5938 251.156 18.8073 252.125 19.2344C253.094 19.651 253.938 20.224 254.656 20.9531C255.385 21.6719 255.958 22.5156 256.375 23.4844C256.802 24.4531 257.016 25.4896 257.016 26.5938C257.016 27.5938 256.844 28.5417 256.5 29.4375C256.156 30.3229 255.682 31.1198 255.078 31.8281C254.474 32.526 253.76 33.1094 252.938 33.5781C252.125 34.0365 251.245 34.3438 250.297 34.5L257.016 41ZM286.156 34.5938C286.156 35.4896 285.943 36.3281 285.516 37.1094C285.099 37.8802 284.526 38.5573 283.797 39.1406C283.078 39.7135 282.234 40.1667 281.266 40.5C280.297 40.8333 279.26 41 278.156 41H260.266V37.7969H278.156C278.812 37.7969 279.432 37.7135 280.016 37.5469C280.599 37.3802 281.104 37.151 281.531 36.8594C281.969 36.5677 282.312 36.2292 282.562 35.8438C282.823 35.4479 282.953 35.0312 282.953 34.5938V33H268.266C267.161 33 266.12 32.7917 265.141 32.375C264.172 31.9583 263.323 31.3906 262.594 30.6719C261.875 29.9427 261.307 29.0938 260.891 28.125C260.474 27.1458 260.266 26.1042 260.266 25V18.5938H263.469V25C263.469 25.6667 263.594 26.2917 263.844 26.875C264.094 27.4583 264.432 27.9688 264.859 28.4062C265.297 28.8333 265.807 29.1719 266.391 29.4219C266.974 29.6719 267.599 29.7969 268.266 29.7969H282.953V18.5938H286.156V34.5938Z" fill="url(#paint0_angular_51_4633)"/>
<g opacity="0.6">
<path d="M323.72 30H473.22" stroke="url(#paint1_linear_51_4633)" stroke-width="2"/>
<path fill-rule="evenodd" clip-rule="evenodd" d="M309.8 18H315.542L323.72 30L315.542 42H309.8L317.841 30L309.8 18ZM305 25.2H307.178L310.28 30L307.178 34.8H305V30V25.2Z" fill="#F8EED9"/>
</g>
<defs>
<radialGradient id="paint0_angular_51_4633" cx="0" cy="0" r="1" gradientUnits="userSpaceOnUse" gradientTransform="translate(149.5 30) scale(139.5 20)">
<stop stop-color="#A06939"/>
<stop offset="0.313195" stop-color="#C6A27E"/>
<stop offset="0.75531" stop-color="#FBF3E0"/>
<stop offset="1" stop-color="#957C50"/>
</radialGradient>
<linearGradient id="paint1_linear_51_4633" x1="473.22" y1="30.5" x2="323.72" y2="30.5" gradientUnits="userSpaceOnUse">
<stop stop-color="#F8EED9" stop-opacity="0"/>
<stop offset="1" stop-color="#D8BD9F"/>
</linearGradient>
</defs>
</svg>
