<svg width="972" height="40" viewBox="0 0 972 40" fill="none" xmlns="http://www.w3.org/2000/svg">
<g opacity="0.6">
<path fill-rule="evenodd" clip-rule="evenodd" d="M161.42 8H155.678L147.5 20L155.678 32H161.42L153.379 20L161.42 8ZM166.22 15.2H164.042L160.94 20L164.042 24.8H166.22V20V15.2Z" fill="#F8EED9"/>
<path d="M149.5 20.5H0" stroke="url(#paint0_linear_71_1404)" stroke-width="2"/>
</g>
<path d="M226.72 31H212.298C210.746 31 209.334 30.7083 208.063 30.125C206.793 29.5417 205.704 28.7448 204.798 27.7344C203.902 26.724 203.209 25.5365 202.72 24.1719C202.23 22.8073 201.985 21.349 201.985 19.7969C201.985 18.2552 202.23 16.8073 202.72 15.4531C203.209 14.0885 203.902 12.901 204.798 11.8906C205.704 10.8698 206.793 10.0677 208.063 9.48438C209.334 8.89062 210.746 8.59375 212.298 8.59375H226.72V11.7969H212.298C211.194 11.7969 210.199 12.0104 209.313 12.4375C208.438 12.8542 207.694 13.4271 207.079 14.1562C206.475 14.875 206.006 15.7188 205.673 16.6875C205.35 17.6562 205.188 18.6927 205.188 19.7969C205.188 20.901 205.35 21.9427 205.673 22.9219C206.006 23.8906 206.475 24.7396 207.079 25.4688C207.694 26.1875 208.438 26.7552 209.313 27.1719C210.199 27.5885 211.194 27.7969 212.298 27.7969H223.517V21.4062H209.954V18.2031H226.72V31ZM256.954 31H253.751V24.5938H235.876V21.4062H253.751V11.7969H242.267C241.173 11.7969 240.142 12.0104 239.173 12.4375C238.204 12.8542 237.36 13.4271 236.642 14.1562C235.923 14.875 235.35 15.7188 234.923 16.6875C234.506 17.6562 234.298 18.6927 234.298 19.7969V31H231.095V19.7969C231.095 18.7656 231.225 17.776 231.485 16.8281C231.756 15.8698 232.131 14.9792 232.61 14.1562C233.1 13.3229 233.683 12.5677 234.36 11.8906C235.048 11.2031 235.803 10.6146 236.626 10.125C237.459 9.63542 238.35 9.26042 239.298 9C240.246 8.72917 241.235 8.59375 242.267 8.59375H256.954V31ZM278.454 31H275.251V19.7969C275.251 18.6927 275.043 17.6562 274.626 16.6875C274.209 15.7188 273.636 14.875 272.907 14.1562C272.188 13.4271 271.34 12.8542 270.36 12.4375C269.392 12.0104 268.355 11.7969 267.251 11.7969H265.532V31H262.329V8.59375H267.251C268.272 8.59375 269.251 8.72917 270.188 9C271.136 9.26042 272.022 9.63021 272.845 10.1094C273.668 10.5885 274.418 11.1615 275.095 11.8281C275.772 12.4948 276.36 13.2344 276.86 14.0469C277.35 13.2344 277.933 12.4948 278.61 11.8281C279.287 11.1615 280.037 10.5885 280.86 10.1094C281.683 9.63021 282.563 9.26042 283.501 9C284.449 8.72917 285.433 8.59375 286.454 8.59375H291.392V31H288.188V11.7969H286.454C285.35 11.7969 284.313 12.0104 283.345 12.4375C282.376 12.8542 281.527 13.4271 280.798 14.1562C280.079 14.875 279.506 15.7188 279.079 16.6875C278.662 17.6562 278.454 18.6927 278.454 19.7969V31ZM319.938 31H296.767V8.59375H319.938V11.7969H299.97V27.7969H319.938V31ZM317.22 21.4062H301.563V18.2031H317.22V21.4062ZM359.579 31H356.376V21.4062H340.72V18.2031H356.376V8.59375H359.579V31ZM339.126 31H335.923V8.59375H339.126V31ZM388.126 31H364.954V8.59375H388.126V11.7969H368.157V27.7969H388.126V31ZM385.407 21.4062H369.751V18.2031H385.407V21.4062ZM417.97 31H413.642L406.923 24.5938H397.11V21.4375H409.97C410.636 21.4375 411.261 21.3125 411.845 21.0625C412.428 20.8021 412.933 20.4531 413.36 20.0156C413.798 19.5781 414.142 19.0677 414.392 18.4844C414.642 17.8906 414.767 17.2604 414.767 16.5938C414.767 15.9271 414.642 15.3021 414.392 14.7188C414.142 14.1354 413.798 13.6302 413.36 13.2031C412.933 12.7656 412.428 12.4219 411.845 12.1719C411.261 11.9219 410.636 11.7969 409.97 11.7969H395.313V31H392.11V8.59375H409.97C411.074 8.59375 412.11 8.80729 413.079 9.23438C414.048 9.65104 414.892 10.224 415.61 10.9531C416.34 11.6719 416.912 12.5156 417.329 13.4844C417.756 14.4531 417.97 15.4896 417.97 16.5938C417.97 17.5938 417.798 18.5417 417.454 19.4375C417.11 20.3229 416.636 21.1198 416.032 21.8281C415.428 22.526 414.715 23.1094 413.892 23.5781C413.079 24.0365 412.199 24.3438 411.251 24.5L417.97 31ZM448.829 19.7969C448.829 21.349 448.584 22.8073 448.095 24.1719C447.605 25.5365 446.907 26.724 446.001 27.7344C445.105 28.7448 444.027 29.5417 442.767 30.125C441.506 30.7083 440.105 31 438.563 31H431.11C429.558 31 428.147 30.7083 426.876 30.125C425.605 29.5417 424.517 28.7448 423.61 27.7344C422.715 26.724 422.022 25.5365 421.532 24.1719C421.043 22.8073 420.798 21.349 420.798 19.7969C420.798 18.2552 421.043 16.8073 421.532 15.4531C422.022 14.0885 422.715 12.901 423.61 11.8906C424.517 10.8698 425.605 10.0677 426.876 9.48438C428.147 8.89062 429.558 8.59375 431.11 8.59375H438.563C440.105 8.59375 441.506 8.89062 442.767 9.48438C444.027 10.0677 445.105 10.8698 446.001 11.8906C446.907 12.901 447.605 14.0885 448.095 15.4531C448.584 16.8073 448.829 18.2552 448.829 19.7969ZM445.626 19.7969C445.626 18.6927 445.465 17.6562 445.142 16.6875C444.819 15.7188 444.35 14.875 443.735 14.1562C443.131 13.4271 442.392 12.8542 441.517 12.4375C440.652 12.0104 439.668 11.7969 438.563 11.7969H431.11C430.006 11.7969 429.011 12.0104 428.126 12.4375C427.251 12.8542 426.506 13.4271 425.892 14.1562C425.287 14.875 424.819 15.7188 424.485 16.6875C424.162 17.6562 424.001 18.6927 424.001 19.7969C424.001 20.901 424.162 21.9427 424.485 22.9219C424.819 23.8906 425.287 24.7396 425.892 25.4688C426.506 26.1875 427.251 26.7552 428.126 27.1719C429.011 27.5885 430.006 27.7969 431.11 27.7969H438.563C439.668 27.7969 440.652 27.5885 441.517 27.1719C442.392 26.7552 443.131 26.1875 443.735 25.4688C444.35 24.7396 444.819 23.8906 445.142 22.9219C445.465 21.9427 445.626 20.901 445.626 19.7969ZM468.126 31H464.923V8.59375H468.126V31ZM476.72 31H473.517V8.59375H475.11C476.152 8.59375 477.256 8.72917 478.423 9C479.6 9.27083 480.798 9.66146 482.017 10.1719C483.235 10.6823 484.449 11.3021 485.657 12.0312C486.876 12.75 488.053 13.5677 489.188 14.4844C490.324 15.401 491.392 16.401 492.392 17.4844C493.392 18.5573 494.287 19.7031 495.079 20.9219V8.59375H498.282V31H495.079C495.079 29.3542 494.793 27.7708 494.22 26.25C493.647 24.7188 492.881 23.276 491.923 21.9219C490.965 20.5677 489.86 19.3229 488.61 18.1875C487.36 17.0417 486.053 16.0365 484.688 15.1719C483.334 14.3073 481.97 13.599 480.595 13.0469C479.22 12.4844 477.928 12.1094 476.72 11.9219V31ZM515.829 31H512.626V11.7969H501.298V8.59375H527.157V11.7969H515.829V31ZM556.032 31H551.704L544.985 24.5938H535.173V21.4375H548.032C548.699 21.4375 549.324 21.3125 549.907 21.0625C550.491 20.8021 550.996 20.4531 551.423 20.0156C551.86 19.5781 552.204 19.0677 552.454 18.4844C552.704 17.8906 552.829 17.2604 552.829 16.5938C552.829 15.9271 552.704 15.3021 552.454 14.7188C552.204 14.1354 551.86 13.6302 551.423 13.2031C550.996 12.7656 550.491 12.4219 549.907 12.1719C549.324 11.9219 548.699 11.7969 548.032 11.7969H533.376V31H530.173V8.59375H548.032C549.136 8.59375 550.173 8.80729 551.142 9.23438C552.11 9.65104 552.954 10.224 553.673 10.9531C554.402 11.6719 554.975 12.5156 555.392 13.4844C555.819 14.4531 556.032 15.4896 556.032 16.5938C556.032 17.5938 555.86 18.5417 555.517 19.4375C555.173 20.3229 554.699 21.1198 554.095 21.8281C553.491 22.526 552.777 23.1094 551.954 23.5781C551.142 24.0365 550.261 24.3438 549.313 24.5L556.032 31ZM586.892 19.7969C586.892 21.349 586.647 22.8073 586.157 24.1719C585.668 25.5365 584.97 26.724 584.063 27.7344C583.168 28.7448 582.09 29.5417 580.829 30.125C579.569 30.7083 578.168 31 576.626 31H569.173C567.621 31 566.209 30.7083 564.938 30.125C563.668 29.5417 562.579 28.7448 561.673 27.7344C560.777 26.724 560.084 25.5365 559.595 24.1719C559.105 22.8073 558.86 21.349 558.86 19.7969C558.86 18.2552 559.105 16.8073 559.595 15.4531C560.084 14.0885 560.777 12.901 561.673 11.8906C562.579 10.8698 563.668 10.0677 564.938 9.48438C566.209 8.89062 567.621 8.59375 569.173 8.59375H576.626C578.168 8.59375 579.569 8.89062 580.829 9.48438C582.09 10.0677 583.168 10.8698 584.063 11.8906C584.97 12.901 585.668 14.0885 586.157 15.4531C586.647 16.8073 586.892 18.2552 586.892 19.7969ZM583.688 19.7969C583.688 18.6927 583.527 17.6562 583.204 16.6875C582.881 15.7188 582.412 14.875 581.798 14.1562C581.194 13.4271 580.454 12.8542 579.579 12.4375C578.715 12.0104 577.73 11.7969 576.626 11.7969H569.173C568.069 11.7969 567.074 12.0104 566.188 12.4375C565.313 12.8542 564.569 13.4271 563.954 14.1562C563.35 14.875 562.881 15.7188 562.548 16.6875C562.225 17.6562 562.063 18.6927 562.063 19.7969C562.063 20.901 562.225 21.9427 562.548 22.9219C562.881 23.8906 563.35 24.7396 563.954 25.4688C564.569 26.1875 565.313 26.7552 566.188 27.1719C567.074 27.5885 568.069 27.7969 569.173 27.7969H576.626C577.73 27.7969 578.715 27.5885 579.579 27.1719C580.454 26.7552 581.194 26.1875 581.798 25.4688C582.412 24.7396 582.881 23.8906 583.204 22.9219C583.527 21.9427 583.688 20.901 583.688 19.7969ZM617.392 19.7969C617.392 21.349 617.142 22.8073 616.642 24.1719C616.152 25.5365 615.454 26.724 614.548 27.7344C613.642 28.7448 612.553 29.5417 611.282 30.125C610.022 30.7083 608.621 31 607.079 31H595.782V27.7969H607.079C608.183 27.7969 609.173 27.5885 610.048 27.1719C610.933 26.7552 611.678 26.1875 612.282 25.4688C612.897 24.7396 613.366 23.8906 613.688 22.9219C614.022 21.9427 614.188 20.901 614.188 19.7969C614.188 18.6927 614.022 17.6562 613.688 16.6875C613.366 15.7188 612.897 14.875 612.282 14.1562C611.678 13.4271 610.933 12.8542 610.048 12.4375C609.173 12.0104 608.183 11.7969 607.079 11.7969H594.188V31H590.985V8.59375H607.079C608.621 8.59375 610.022 8.89062 611.282 9.48438C612.553 10.0677 613.642 10.8698 614.548 11.8906C615.454 12.901 616.152 14.0885 616.642 15.4531C617.142 16.8073 617.392 18.2552 617.392 19.7969ZM645.485 8.59375L645.454 19.7969C645.454 20.8385 645.319 21.8385 645.048 22.7969C644.787 23.7448 644.412 24.6354 643.923 25.4688C643.444 26.2917 642.86 27.0469 642.173 27.7344C641.496 28.4115 640.741 28.9948 639.907 29.4844C639.084 29.9635 638.199 30.3385 637.251 30.6094C636.303 30.8698 635.313 31 634.282 31H631.923C630.892 31 629.897 30.8698 628.938 30.6094C627.991 30.3385 627.1 29.9583 626.267 29.4688C625.444 28.9792 624.694 28.3958 624.017 27.7188C623.34 27.0312 622.756 26.276 622.267 25.4531C621.787 24.6198 621.412 23.7292 621.142 22.7812C620.881 21.8229 620.751 20.8281 620.751 19.7969V8.59375H623.954V19.7969C623.954 20.901 624.162 21.9427 624.579 22.9219C624.996 23.8906 625.563 24.7396 626.282 25.4688C627.011 26.1875 627.86 26.7552 628.829 27.1719C629.798 27.5885 630.829 27.7969 631.923 27.7969H634.282C635.386 27.7969 636.423 27.5885 637.392 27.1719C638.36 26.7552 639.204 26.1875 639.923 25.4688C640.642 24.7396 641.209 23.8906 641.626 22.9219C642.043 21.9427 642.251 20.901 642.251 19.7969V8.59375H645.454H645.485ZM673.563 31H659.142C657.59 31 656.178 30.7083 654.907 30.125C653.636 29.5417 652.548 28.7448 651.642 27.7344C650.746 26.724 650.053 25.5365 649.563 24.1719C649.074 22.8073 648.829 21.349 648.829 19.7969C648.829 18.2552 649.074 16.8073 649.563 15.4531C650.053 14.0885 650.746 12.901 651.642 11.8906C652.548 10.8698 653.636 10.0677 654.907 9.48438C656.178 8.89062 657.59 8.59375 659.142 8.59375H673.563V11.7969H659.142C658.037 11.7969 657.043 12.0104 656.157 12.4375C655.282 12.8542 654.537 13.4271 653.923 14.1562C653.319 14.875 652.85 15.7188 652.517 16.6875C652.194 17.6562 652.032 18.6927 652.032 19.7969C652.032 20.901 652.194 21.9427 652.517 22.9219C652.85 23.8906 653.319 24.7396 653.923 25.4688C654.537 26.1875 655.282 26.7552 656.157 27.1719C657.043 27.5885 658.037 27.7969 659.142 27.7969H673.563V31ZM689.61 31H686.407V11.7969H675.079V8.59375H700.938V11.7969H689.61V31ZM707.157 31H703.954V8.59375H707.157V31ZM739.298 19.7969C739.298 21.349 739.053 22.8073 738.563 24.1719C738.074 25.5365 737.376 26.724 736.47 27.7344C735.574 28.7448 734.496 29.5417 733.235 30.125C731.975 30.7083 730.574 31 729.032 31H721.579C720.027 31 718.616 30.7083 717.345 30.125C716.074 29.5417 714.985 28.7448 714.079 27.7344C713.183 26.724 712.491 25.5365 712.001 24.1719C711.511 22.8073 711.267 21.349 711.267 19.7969C711.267 18.2552 711.511 16.8073 712.001 15.4531C712.491 14.0885 713.183 12.901 714.079 11.8906C714.985 10.8698 716.074 10.0677 717.345 9.48438C718.616 8.89062 720.027 8.59375 721.579 8.59375H729.032C730.574 8.59375 731.975 8.89062 733.235 9.48438C734.496 10.0677 735.574 10.8698 736.47 11.8906C737.376 12.901 738.074 14.0885 738.563 15.4531C739.053 16.8073 739.298 18.2552 739.298 19.7969ZM736.095 19.7969C736.095 18.6927 735.933 17.6562 735.61 16.6875C735.287 15.7188 734.819 14.875 734.204 14.1562C733.6 13.4271 732.86 12.8542 731.985 12.4375C731.121 12.0104 730.136 11.7969 729.032 11.7969H721.579C720.475 11.7969 719.48 12.0104 718.595 12.4375C717.72 12.8542 716.975 13.4271 716.36 14.1562C715.756 14.875 715.287 15.7188 714.954 16.6875C714.631 17.6562 714.47 18.6927 714.47 19.7969C714.47 20.901 714.631 21.9427 714.954 22.9219C715.287 23.8906 715.756 24.7396 716.36 25.4688C716.975 26.1875 717.72 26.7552 718.595 27.1719C719.48 27.5885 720.475 27.7969 721.579 27.7969H729.032C730.136 27.7969 731.121 27.5885 731.985 27.1719C732.86 26.7552 733.6 26.1875 734.204 25.4688C734.819 24.7396 735.287 23.8906 735.61 22.9219C735.933 21.9427 736.095 20.901 736.095 19.7969ZM746.595 31H743.392V8.59375H744.985C746.027 8.59375 747.131 8.72917 748.298 9C749.475 9.27083 750.673 9.66146 751.892 10.1719C753.11 10.6823 754.324 11.3021 755.532 12.0312C756.751 12.75 757.928 13.5677 759.063 14.4844C760.199 15.401 761.267 16.401 762.267 17.4844C763.267 18.5573 764.162 19.7031 764.954 20.9219V8.59375H768.157V31H764.954C764.954 29.3542 764.668 27.7708 764.095 26.25C763.522 24.7188 762.756 23.276 761.798 21.9219C760.84 20.5677 759.735 19.3229 758.485 18.1875C757.235 17.0417 755.928 16.0365 754.563 15.1719C753.209 14.3073 751.845 13.599 750.47 13.0469C749.095 12.4844 747.803 12.1094 746.595 11.9219V31Z" fill="url(#paint1_angular_71_1404)"/>
<g opacity="0.6">
<path fill-rule="evenodd" clip-rule="evenodd" d="M810.02 8H815.763L823.94 20L815.763 32H810.02L818.062 20L810.02 8ZM805.22 15.2H807.398L810.5 20L807.398 24.8H805.22V20V15.2Z" fill="#F8EED9"/>
<path d="M821.94 20.5H971.44" stroke="url(#paint2_linear_71_1404)" stroke-width="2"/>
</g>
<defs>
<linearGradient id="paint0_linear_71_1404" x1="0" y1="21" x2="149.5" y2="21" gradientUnits="userSpaceOnUse">
<stop stop-color="#F8EED9" stop-opacity="0"/>
<stop offset="1" stop-color="#D8BD9F"/>
</linearGradient>
<radialGradient id="paint1_angular_71_1404" cx="0" cy="0" r="1" gradientUnits="userSpaceOnUse" gradientTransform="translate(485.72 20) scale(285.5 20)">
<stop stop-color="#A06939"/>
<stop offset="0.313195" stop-color="#C6A27E"/>
<stop offset="0.75531" stop-color="#FBF3E0"/>
<stop offset="1" stop-color="#957C50"/>
</radialGradient>
<linearGradient id="paint2_linear_71_1404" x1="971.44" y1="21" x2="821.94" y2="21" gradientUnits="userSpaceOnUse">
<stop stop-color="#F8EED9" stop-opacity="0"/>
<stop offset="1" stop-color="#D8BD9F"/>
</linearGradient>
</defs>
</svg>
