<svg width="160" height="48" viewBox="0 0 160 48" fill="none" xmlns="http://www.w3.org/2000/svg">
<g filter="url(#filter0_b_50_2035)">
<rect x="0.0263672" width="159.345" height="48" rx="5" fill="black" fill-opacity="0.35"/>
<path d="M27.2367 8H12.0264V23.219H27.2367V8Z" fill="#F25022"/>
<path d="M44.0258 8H28.8154V23.219H44.0258V8Z" fill="#7FBA00"/>
<path d="M27.2367 24.7812H12.0264V40.0001H27.2367V24.7812Z" fill="#00A4EF"/>
<path d="M44.0267 24.7812H28.8164V40.0001H44.0267V24.7812Z" fill="#FFB900"/>
<path d="M64.1077 17.9091C63.6128 18.1885 63.0884 18.3993 62.5341 18.5414C61.9798 18.6834 61.3956 18.7544 60.7818 18.7544C59.3248 18.7544 58.1682 18.3215 57.3114 17.4556C56.4547 16.5898 56.0264 15.3689 56.0264 13.7928C56.0264 12.2032 56.5006 10.9365 57.4488 9.99281C58.4018 9.04451 59.6295 8.57036 61.1322 8.57036C61.6911 8.57036 62.2042 8.62762 62.6715 8.74214C63.1433 8.85209 63.6197 9.02847 64.1008 9.27127L63.5991 10.2814C63.1961 10.0707 62.7997 9.91951 62.4102 9.82789C62.0209 9.73627 61.5926 9.69046 61.1253 9.69046C60.0213 9.69046 59.1141 10.0409 58.4041 10.7418C57.6986 11.4428 57.3457 12.4323 57.3457 13.7105C57.3457 15.0069 57.6573 15.9872 58.2804 16.6515C58.9081 17.3112 59.7877 17.641 60.9192 17.641C61.2902 17.641 61.636 17.6045 61.9567 17.5311C62.282 17.4579 62.5798 17.348 62.85 17.2013V14.5213H60.7061V13.4081H64.1077V17.9091ZM72.1888 15.2635H67.1174C67.1403 16.0606 67.3534 16.6746 67.7566 17.105C68.1598 17.5311 68.7255 17.7441 69.4538 17.7441C69.7699 17.7441 70.0929 17.6961 70.4228 17.5999C70.7572 17.4991 71.0916 17.3365 71.426 17.1121L71.9828 17.964C71.5659 18.239 71.1467 18.4406 70.7252 18.5688C70.3037 18.6971 69.841 18.7613 69.337 18.7613C68.2468 18.7613 67.397 18.4383 66.7876 17.7923C66.1784 17.1418 65.8714 16.2348 65.8668 15.0711C65.8623 13.9119 66.1693 12.9798 66.7876 12.2743C67.4107 11.5642 68.2169 11.2091 69.2065 11.2091C70.1503 11.2091 70.8833 11.5161 71.4054 12.1299C71.9277 12.7392 72.1888 13.5891 72.1888 14.6793V15.2635ZM70.9588 14.3014C70.9542 13.6372 70.794 13.1218 70.4778 12.7553C70.1663 12.3888 69.7356 12.2055 69.1859 12.2055C68.6453 12.2055 68.1872 12.3957 67.8116 12.7759C67.4404 13.1515 67.2137 13.66 67.1312 14.3014H70.9588ZM77.5283 18.5C77.3312 18.5826 77.1342 18.642 76.9373 18.6788C76.7449 18.7199 76.5273 18.7405 76.2845 18.7405C75.6934 18.7405 75.2308 18.5711 74.8964 18.2321C74.5665 17.8931 74.4017 17.3914 74.4017 16.7272V12.3979H73.1715V11.3809H74.4017V9.73168L75.6317 9.34V11.3809H77.432V12.3979H75.6317V16.5966C75.6317 17.0044 75.7049 17.2975 75.8516 17.4762C75.9981 17.6549 76.218 17.7441 76.5113 17.7441C76.6487 17.7441 76.7815 17.7281 76.9097 17.6961C77.038 17.6641 77.1479 17.625 77.2396 17.5793L77.5283 18.5ZM83.5548 9.85539C83.3121 9.85539 83.1105 9.7752 82.95 9.61487C82.7898 9.45452 82.7096 9.25982 82.7096 9.03077C82.7096 8.79254 82.7898 8.59555 82.95 8.43979C83.1105 8.27945 83.3121 8.19928 83.5548 8.19928C83.7976 8.19928 83.9992 8.27945 84.1595 8.43979C84.3245 8.59555 84.4068 8.79254 84.4068 9.03077C84.4068 9.25982 84.3245 9.45452 84.1595 9.61487C83.9992 9.7752 83.7976 9.85539 83.5548 9.85539ZM84.1526 18.5894H82.9295V11.3809H84.1526V18.5894ZM90.1449 18.5C89.9479 18.5826 89.7508 18.642 89.5538 18.6788C89.3615 18.7199 89.1439 18.7405 88.901 18.7405C88.3101 18.7405 87.8474 18.5711 87.513 18.2321C87.1832 17.8931 87.0181 17.3914 87.0181 16.7272V12.3979H85.7881V11.3809H87.0181V9.73168L88.2482 9.34V11.3809H90.0487V12.3979H88.2482V16.5966C88.2482 17.0044 88.3215 17.2975 88.4681 17.4762C88.6148 17.6549 88.8347 17.7441 89.1277 17.7441C89.2653 17.7441 89.3981 17.7281 89.5264 17.6961C89.6546 17.6641 89.7646 17.625 89.8562 17.5793L90.1449 18.5ZM99.0163 9.14758C98.888 9.10177 98.7712 9.0697 98.6658 9.05137C98.5604 9.03306 98.4505 9.02389 98.336 9.02389C97.9558 9.02389 97.6717 9.12468 97.4838 9.32626C97.3007 9.52783 97.2091 9.82332 97.2091 10.2127V11.3809H98.8651V12.3979H97.2091V18.5894H95.9928V12.3979H94.7833V11.3809H95.9928V10.1509C95.9928 9.47743 96.2012 8.95059 96.6181 8.57036C97.0395 8.19011 97.6123 8 98.336 8C98.5193 8 98.6864 8.01374 98.8377 8.04123C98.9888 8.06871 99.1447 8.10766 99.3049 8.15804L99.0163 9.14758ZM103.854 12.4254C103.763 12.3979 103.678 12.3773 103.6 12.3636C103.522 12.3498 103.428 12.343 103.318 12.343C102.736 12.343 102.278 12.5903 101.944 13.0851C101.609 13.5752 101.442 14.196 101.442 14.9474V18.5894H100.219V11.3809H101.442V12.8102H101.47C101.634 12.3017 101.884 11.9169 102.218 11.6558C102.558 11.3901 102.949 11.2572 103.394 11.2572C103.536 11.2572 103.657 11.2641 103.758 11.2778C103.863 11.2916 103.959 11.3122 104.046 11.3397L103.854 12.4254ZM108.458 18.7613C107.381 18.7613 106.523 18.4244 105.881 17.751C105.244 17.073 104.926 16.1751 104.926 15.0573C104.926 13.8525 105.256 12.911 105.916 12.233C106.575 11.555 107.475 11.2137 108.616 11.2091C109.697 11.2045 110.543 11.5367 111.152 12.2055C111.766 12.8698 112.073 13.7837 112.073 14.9474C112.073 16.1063 111.745 17.0318 111.09 17.7235C110.435 18.4153 109.558 18.7613 108.458 18.7613ZM108.541 17.7441C109.274 17.7441 109.835 17.5059 110.224 17.0296C110.618 16.5484 110.815 15.8681 110.815 14.9886C110.815 14.0998 110.618 13.4173 110.224 12.9408C109.83 12.4644 109.269 12.2261 108.541 12.2261C107.812 12.2261 107.235 12.4758 106.809 12.9752C106.387 13.4699 106.177 14.1526 106.177 15.023C106.177 15.8704 106.39 16.537 106.816 17.0227C107.242 17.5037 107.817 17.7441 108.541 17.7441ZM124.298 18.5894H123.068V14.4457C123.068 13.6623 122.946 13.0966 122.703 12.7484C122.461 12.4002 122.055 12.2261 121.487 12.2261C121.001 12.2261 120.589 12.446 120.25 12.8858C119.916 13.3256 119.749 13.8571 119.749 14.4802V18.5894H118.525V14.3151C118.525 13.6189 118.39 13.0966 118.12 12.7484C117.854 12.4002 117.453 12.2261 116.917 12.2261C116.418 12.2261 116.006 12.4346 115.68 12.8515C115.36 13.2684 115.199 13.8136 115.199 14.487V18.5894H113.976V11.3809H115.199V12.5216H115.227C115.483 12.0864 115.8 11.7589 116.175 11.539C116.551 11.3191 116.984 11.2091 117.474 11.2091C117.969 11.2091 118.397 11.3443 118.759 11.6146C119.125 11.8848 119.38 12.2445 119.522 12.6934C119.787 12.1987 120.12 11.8276 120.518 11.5802C120.921 11.3328 121.386 11.2091 121.913 11.2091C122.706 11.2091 123.301 11.4542 123.7 11.9444C124.098 12.43 124.298 13.163 124.298 14.1434V18.5894Z" fill="white"/>
<path d="M76.6982 24.9447C76.6982 24.4937 76.8606 24.1329 77.1855 23.8261C77.5103 23.5194 77.889 23.375 78.3403 23.375C78.8093 23.375 79.2063 23.5374 79.5129 23.8442C79.8197 24.1508 79.9821 24.5297 79.9821 24.9447C79.9821 25.3778 79.8197 25.7566 79.495 26.0454C79.1702 26.3521 78.7913 26.4965 78.3221 26.4965C77.853 26.4965 77.4742 26.3521 77.1493 26.0454C76.8606 25.7386 76.6982 25.3778 76.6982 24.9447ZM79.6753 39.7039H76.9869V28.2465H79.6753V39.7039Z" fill="white"/>
<path d="M87.8663 37.7445C88.2632 37.7445 88.7142 37.6543 89.2015 37.474C89.6886 37.2935 90.1216 37.0409 90.5366 36.7342V39.2421C90.1036 39.4947 89.6165 39.6752 89.0752 39.8014C88.5339 39.9277 87.9203 40 87.2708 40C85.5929 40 84.2216 39.4587 83.157 38.394C82.0925 37.3296 81.5693 35.9583 81.5693 34.3164C81.5693 32.476 82.1106 30.9605 83.1932 29.7697C84.2757 28.5789 85.7914 27.9834 87.7761 27.9834C88.2813 27.9834 88.7865 28.0555 89.3097 28.1818C89.8329 28.3081 90.2299 28.4705 90.5366 28.6329V31.2131C90.1216 30.9063 89.6886 30.6718 89.2555 30.5094C88.8226 30.347 88.3715 30.2568 87.9203 30.2568C86.8558 30.2568 86.0079 30.5996 85.3403 31.2852C84.6906 31.9709 84.3659 32.9091 84.3659 34.0819C84.3659 35.2367 84.6727 36.1388 85.3042 36.7883C85.9356 37.4379 86.7837 37.7445 87.8663 37.7445Z" fill="white"/>
<path d="M98.2039 28.0713C98.4205 28.0713 98.6189 28.0894 98.7813 28.1074C98.9437 28.1434 99.1061 28.1797 99.2144 28.2157V30.9402C99.07 30.8318 98.8716 30.7417 98.601 30.6515C98.3303 30.5612 98.0055 30.507 97.6086 30.507C96.941 30.507 96.3816 30.7778 95.9306 31.337C95.4795 31.8964 95.245 32.7444 95.245 33.9172V39.7089H92.5566V28.2518H95.245V30.056H95.2811C95.5337 29.4244 95.8945 28.9373 96.3997 28.5945C96.905 28.2518 97.5003 28.0713 98.2039 28.0713Z" fill="white"/>
<path d="M99.3594 34.1541C99.3594 32.2596 99.9007 30.762 100.965 29.6434C102.03 28.5426 103.527 27.9834 105.422 27.9834C107.208 27.9834 108.615 28.5247 109.626 29.5892C110.636 30.6537 111.141 32.0972 111.141 33.9014C111.141 35.7598 110.6 37.2393 109.536 38.34C108.471 39.4406 107.01 39.9819 105.169 39.9819C103.401 39.9819 101.975 39.4587 100.947 38.4122C99.8826 37.3837 99.3594 35.9583 99.3594 34.1541ZM102.174 34.0638C102.174 35.2546 102.445 36.1748 102.986 36.8064C103.527 37.4379 104.303 37.7445 105.313 37.7445C106.288 37.7445 107.046 37.4379 107.551 36.8064C108.056 36.1748 108.327 35.2367 108.327 33.9917C108.327 32.7647 108.056 31.8265 107.533 31.195C107.01 30.5636 106.252 30.2568 105.295 30.2568C104.303 30.2568 103.545 30.5815 102.986 31.2491C102.445 31.9167 102.174 32.837 102.174 34.0638Z" fill="white"/>
<path d="M115.147 31.2676C115.147 31.6465 115.274 31.9533 115.508 32.1699C115.761 32.3863 116.302 32.657 117.132 32.9999C118.215 33.4328 118.972 33.9199 119.406 34.4612C119.838 35.0025 120.055 35.6522 120.055 36.4099C120.055 37.4925 119.64 38.3585 118.81 39.0082C117.98 39.6577 116.861 39.9824 115.454 39.9824C114.985 39.9824 114.462 39.9282 113.884 39.8019C113.307 39.6937 112.82 39.5314 112.423 39.369V36.7167C112.91 37.0595 113.433 37.3301 114.011 37.5285C114.57 37.727 115.093 37.8353 115.544 37.8353C116.158 37.8353 116.609 37.7451 116.897 37.5827C117.186 37.4203 117.331 37.1317 117.331 36.7167C117.331 36.3377 117.186 36.0309 116.88 35.7785C116.573 35.5259 116.014 35.2191 115.165 34.8943C114.173 34.4793 113.469 34.0102 113.054 33.487C112.639 32.9636 112.423 32.2962 112.423 31.5023C112.423 30.4739 112.838 29.6258 113.65 28.9582C114.462 28.2906 115.526 27.9658 116.843 27.9658C117.24 27.9658 117.691 28.0019 118.197 28.0921C118.702 28.1824 119.117 28.2906 119.442 28.435V30.9971C119.081 30.7626 118.666 30.5639 118.197 30.3836C117.727 30.2213 117.24 30.131 116.789 30.131C116.284 30.131 115.869 30.2392 115.599 30.4376C115.292 30.6363 115.147 30.9249 115.147 31.2676Z" fill="white"/>
<path d="M121.245 34.1541C121.245 32.2596 121.786 30.762 122.851 29.6434C123.915 28.5426 125.413 27.9834 127.307 27.9834C129.094 27.9834 130.501 28.5247 131.511 29.5892C132.522 30.6537 133.027 32.0972 133.027 33.9014C133.027 35.7598 132.486 37.2393 131.421 38.34C130.357 39.4406 128.895 39.9819 127.055 39.9819C125.287 39.9819 123.861 39.4587 122.833 38.4122C121.768 37.3837 121.245 35.9583 121.245 34.1541ZM124.042 34.0638C124.042 35.2546 124.312 36.1748 124.854 36.8064C125.395 37.4379 126.171 37.7445 127.181 37.7445C128.156 37.7445 128.913 37.4379 129.418 36.8064C129.924 36.1748 130.194 35.2367 130.194 33.9917C130.194 32.7647 129.924 31.8265 129.4 31.195C128.877 30.5636 128.119 30.2568 127.163 30.2568C126.171 30.2568 125.413 30.5815 124.854 31.2491C124.312 31.9167 124.042 32.837 124.042 34.0638Z" fill="white"/>
<path d="M141.923 30.4682V36.3502C141.923 37.577 142.211 38.4793 142.771 39.0927C143.33 39.7061 144.196 39.9948 145.333 39.9948C145.712 39.9948 146.109 39.9588 146.506 39.8685C146.903 39.7783 147.191 39.7061 147.354 39.598V37.3606C147.191 37.4688 146.993 37.5591 146.776 37.6312C146.56 37.7033 146.361 37.7396 146.217 37.7396C145.676 37.7396 145.261 37.5951 145.008 37.3064C144.756 37.0178 144.629 36.5125 144.629 35.8089V30.4502H147.372V28.249H144.647V24.8569L141.941 25.6869V28.2669H137.917V26.8777C137.917 26.192 138.062 25.6688 138.368 25.308C138.675 24.9472 139.108 24.7846 139.667 24.7846C139.956 24.7846 140.209 24.8209 140.443 24.893C140.66 24.9651 140.822 25.0372 140.912 25.0914V22.7639C140.714 22.6917 140.497 22.6557 140.245 22.6196C139.992 22.5835 139.704 22.5654 139.379 22.5654C138.152 22.5654 137.141 22.9444 136.366 23.7202C135.59 24.4959 135.193 25.4704 135.193 26.6793V28.2669H133.28V30.4682H135.193V39.7243H137.917V30.4682H141.923Z" fill="white"/>
<path d="M74.388 23.7266V39.7126H71.6094V27.1907H71.5734L66.6116 39.7126H64.7712L59.6831 27.1907H59.647V39.7126H57.085V23.7266H61.0544L65.6553 35.5808H65.7274L70.581 23.7266H74.388Z" fill="white"/>
</g>
<defs>
<filter id="filter0_b_50_2035" x="-29.9736" y="-30" width="219.345" height="108" filterUnits="userSpaceOnUse" color-interpolation-filters="sRGB">
<feFlood flood-opacity="0" result="BackgroundImageFix"/>
<feGaussianBlur in="BackgroundImageFix" stdDeviation="15"/>
<feComposite in2="SourceAlpha" operator="in" result="effect1_backgroundBlur_50_2035"/>
<feBlend mode="normal" in="SourceGraphic" in2="effect1_backgroundBlur_50_2035" result="shape"/>
</filter>
</defs>
</svg>
