<svg width="158" height="48" viewBox="0 0 158 48" fill="none" xmlns="http://www.w3.org/2000/svg">
<g filter="url(#filter0_b_50_2028)">
<rect x="0.477539" width="156.548" height="48" rx="5" fill="black" fill-opacity="0.35"/>
<path d="M19.2007 28.2219C19.2007 30.0721 17.6893 31.5835 15.8391 31.5835C13.9889 31.5835 12.4775 30.0721 12.4775 28.2219C12.4775 26.3718 13.9889 24.8604 15.8391 24.8604H19.2007V28.2219ZM20.8945 28.2219C20.8945 26.3718 22.4059 24.8604 24.256 24.8604C26.1062 24.8604 27.6176 26.3718 27.6176 28.2219V36.6389C27.6176 38.489 26.1062 40.0004 24.256 40.0004C22.4059 40.0004 20.8945 38.489 20.8945 36.6389V28.2219Z" fill="#E01E5A"/>
<path d="M24.256 14.7231C22.4059 14.7231 20.8945 13.2117 20.8945 11.3616C20.8945 9.5114 22.4059 8 24.256 8C26.1062 8 27.6176 9.5114 27.6176 11.3616V14.7231H24.256ZM24.256 16.4169C26.1062 16.4169 27.6176 17.9283 27.6176 19.7785C27.6176 21.6287 26.1062 23.1401 24.256 23.1401H15.8391C13.9889 23.1401 12.4775 21.6287 12.4775 19.7785C12.4775 17.9283 13.9889 16.4169 15.8391 16.4169H24.256Z" fill="#36C5F0"/>
<path d="M37.7548 19.7785C37.7548 17.9283 39.2662 16.4169 41.1164 16.4169C42.9666 16.4169 44.478 17.9283 44.478 19.7785C44.478 21.6287 42.9666 23.1401 41.1164 23.1401H37.7548V19.7785ZM36.061 19.7785C36.061 21.6287 34.5496 23.1401 32.6995 23.1401C30.8493 23.1401 29.3379 21.6287 29.3379 19.7785V11.3616C29.3379 9.5114 30.8493 8 32.6995 8C34.5496 8 36.061 9.5114 36.061 11.3616V19.7785Z" fill="#2EB67D"/>
<path d="M32.6995 33.2773C34.5496 33.2773 36.061 34.7887 36.061 36.6389C36.061 38.489 34.5496 40.0004 32.6995 40.0004C30.8493 40.0004 29.3379 38.489 29.3379 36.6389V33.2773H32.6995ZM32.6995 31.5835C30.8493 31.5835 29.3379 30.0721 29.3379 28.2219C29.3379 26.3718 30.8493 24.8604 32.6995 24.8604H41.1164C42.9666 24.8604 44.478 26.3718 44.478 28.2219C44.478 30.0721 42.9666 31.5835 41.1164 31.5835H32.6995Z" fill="#ECB22E"/>
<path d="M63.9856 25.5401L62.3973 21.3209C62.269 20.9947 62.138 20.5802 62.0043 20.0775C61.9455 20.3289 61.8813 20.5615 61.8118 20.7754C61.7422 20.984 61.6781 21.1684 61.6193 21.3289L60.031 25.5401H63.9856ZM67.539 29.8717H66.0872C65.9214 29.8717 65.7877 29.8316 65.6861 29.7513C65.5845 29.6658 65.507 29.5615 65.4535 29.4385L64.4909 26.8877H59.5176L58.5551 29.4385C58.5123 29.5455 58.4374 29.6444 58.3305 29.7353C58.2235 29.8262 58.0898 29.8717 57.9294 29.8717H56.4775L61.0578 18.3209H62.9588L67.539 29.8717Z" fill="white"/>
<path d="M73.6157 23.7032C73.3751 23.393 73.1104 23.1765 72.8216 23.0535C72.5329 22.9305 72.22 22.869 71.8831 22.869C71.2093 22.869 70.6826 23.1176 70.3029 23.615C69.9232 24.107 69.7334 24.8369 69.7334 25.8048C69.7334 26.3075 69.7762 26.738 69.8617 27.0963C69.9473 27.4492 70.0703 27.738 70.2307 27.9626C70.3911 28.1872 70.5863 28.3503 70.8163 28.4519C71.0462 28.5535 71.3056 28.6043 71.5943 28.6043C72.0329 28.6043 72.4099 28.5107 72.7254 28.3235C73.0462 28.131 73.343 27.861 73.6157 27.5134V23.7032ZM75.3403 18V29.8717H74.2976C74.0676 29.8717 73.9206 29.762 73.8564 29.5428L73.704 28.6524C73.3617 29.0535 72.9714 29.377 72.5329 29.623C72.0997 29.869 71.5944 29.992 71.0168 29.992C70.5569 29.992 70.1398 29.9011 69.7655 29.7193C69.3911 29.5321 69.0703 29.262 68.8029 28.9091C68.5355 28.5561 68.327 28.1203 68.1772 27.6016C68.0329 27.0775 67.9607 26.4786 67.9607 25.8048C67.9607 25.1952 68.0409 24.631 68.2013 24.1123C68.3671 23.5936 68.6024 23.1444 68.9072 22.7647C69.212 22.3797 69.581 22.0802 70.0141 21.8663C70.4526 21.6471 70.9419 21.5374 71.4821 21.5374C71.9633 21.5374 72.3724 21.615 72.7093 21.7701C73.0462 21.9198 73.3484 22.131 73.6157 22.4037V18H75.3403Z" fill="white"/>
<path d="M82.6711 23.7032C82.4305 23.393 82.1658 23.1765 81.877 23.0535C81.5883 22.9305 81.2754 22.869 80.9385 22.869C80.2647 22.869 79.738 23.1176 79.3583 23.615C78.9786 24.107 78.7888 24.8369 78.7888 25.8048C78.7888 26.3075 78.8316 26.738 78.9171 27.0963C79.0027 27.4492 79.1257 27.738 79.2861 27.9626C79.4465 28.1872 79.6417 28.3503 79.8717 28.4519C80.1016 28.5535 80.361 28.6043 80.6497 28.6043C81.0882 28.6043 81.4653 28.5107 81.7808 28.3235C82.1016 28.131 82.3984 27.861 82.6711 27.5134V23.7032ZM84.3957 18V29.8717H83.353C83.123 29.8717 82.976 29.762 82.9118 29.5428L82.7594 28.6524C82.4171 29.0535 82.0268 29.377 81.5883 29.623C81.1551 29.869 80.6497 29.992 80.0722 29.992C79.6123 29.992 79.1952 29.9011 78.8209 29.7193C78.4465 29.5321 78.1257 29.262 77.8583 28.9091C77.5909 28.5561 77.3824 28.1203 77.2326 27.6016C77.0883 27.0775 77.0161 26.4786 77.0161 25.8048C77.0161 25.1952 77.0963 24.631 77.2567 24.1123C77.4225 23.5936 77.6578 23.1444 77.9626 22.7647C78.2674 22.3797 78.6364 22.0802 79.0695 21.8663C79.508 21.6471 79.9973 21.5374 80.5374 21.5374C81.0187 21.5374 81.4278 21.615 81.7647 21.7701C82.1016 21.9198 82.4038 22.131 82.6711 22.4037V18H84.3957Z" fill="white"/>
<path d="M93.1226 30C92.4435 30 91.9194 29.8102 91.5504 29.4305C91.1868 29.0455 91.005 28.5053 91.005 27.8102V23.0455H90.1066C90.0103 23.0455 89.9274 23.016 89.8579 22.9572C89.7884 22.893 89.7536 22.7995 89.7536 22.6765V21.9786L91.0772 21.7861L91.4542 19.4198C91.4809 19.3289 91.5264 19.2567 91.5905 19.2032C91.6547 19.1444 91.7403 19.115 91.8472 19.115H92.7296V21.8021H94.9996V23.0455H92.7296V27.6898C92.7296 27.984 92.8018 28.2086 92.9462 28.3636C93.0905 28.5187 93.2831 28.5963 93.5237 28.5963C93.6574 28.5963 93.7724 28.5802 93.8686 28.5481C93.9649 28.5107 94.0478 28.4733 94.1173 28.4358C94.1868 28.393 94.2456 28.3556 94.2938 28.3235C94.3472 28.2861 94.398 28.2674 94.4462 28.2674C94.5424 28.2674 94.62 28.3209 94.6788 28.4278L95.1922 29.2701C94.9248 29.5053 94.6093 29.6872 94.2456 29.8155C93.882 29.9385 93.5077 30 93.1226 30Z" fill="white"/>
<path d="M99.8338 21.5615C100.438 21.5615 100.984 21.6604 101.47 21.8583C101.962 22.0561 102.379 22.3369 102.721 22.7005C103.069 23.0642 103.336 23.5053 103.524 24.0241C103.711 24.5428 103.804 25.1257 103.804 25.7727C103.804 26.4198 103.711 27.0027 103.524 27.5214C103.336 28.0401 103.069 28.484 102.721 28.8529C102.379 29.2166 101.962 29.4973 101.47 29.6952C100.984 29.893 100.438 29.992 99.8338 29.992C99.2242 29.992 98.6734 29.893 98.1814 29.6952C97.6947 29.4973 97.2776 29.2166 96.93 28.8529C96.5824 28.484 96.3151 28.0401 96.1279 27.5214C95.9407 27.0027 95.8471 26.4198 95.8471 25.7727C95.8471 25.1257 95.9407 24.5428 96.1279 24.0241C96.3151 23.5053 96.5824 23.0642 96.93 22.7005C97.2776 22.3369 97.6947 22.0561 98.1814 21.8583C98.6734 21.6604 99.2242 21.5615 99.8338 21.5615ZM99.8338 28.6444C100.572 28.6444 101.12 28.3984 101.478 27.9064C101.842 27.4091 102.024 26.7005 102.024 25.7807C102.024 24.861 101.842 24.1524 101.478 23.6551C101.12 23.1524 100.572 22.9011 99.8338 22.9011C99.0851 22.9011 98.529 23.1524 98.1653 23.6551C97.8017 24.1524 97.6199 24.861 97.6199 25.7807C97.6199 26.7005 97.8017 27.4091 98.1653 27.9064C98.529 28.3984 99.0851 28.6444 99.8338 28.6444Z" fill="white"/>
<path d="M115.817 20.2941C115.759 20.3904 115.697 20.4626 115.633 20.5107C115.569 20.5535 115.489 20.5749 115.392 20.5749C115.291 20.5749 115.176 20.5321 115.047 20.4465C114.924 20.361 114.769 20.2674 114.582 20.1658C114.4 20.0588 114.184 19.9626 113.932 19.877C113.681 19.7861 113.382 19.7406 113.034 19.7406C112.713 19.7406 112.43 19.7807 112.184 19.861C111.943 19.9412 111.74 20.0535 111.574 20.1979C111.408 20.3422 111.283 20.5134 111.197 20.7112C111.117 20.9037 111.077 21.115 111.077 21.3449C111.077 21.639 111.154 21.885 111.309 22.0829C111.464 22.2754 111.668 22.4412 111.919 22.5802C112.176 22.7193 112.467 22.8422 112.793 22.9492C113.12 23.0508 113.451 23.1604 113.788 23.2781C114.13 23.3957 114.464 23.5294 114.791 23.6791C115.117 23.8289 115.406 24.0187 115.657 24.2487C115.914 24.4786 116.12 24.7594 116.275 25.0909C116.43 25.4225 116.507 25.8262 116.507 26.3021C116.507 26.8155 116.419 27.2968 116.243 27.746C116.066 28.1952 115.809 28.5882 115.472 28.9251C115.141 29.2567 114.729 29.5187 114.237 29.7112C113.751 29.9037 113.194 30 112.569 30C112.2 30 111.839 29.9626 111.486 29.8877C111.138 29.8182 110.804 29.7193 110.483 29.5909C110.168 29.4572 109.871 29.2968 109.593 29.1096C109.315 28.9225 109.066 28.7139 108.847 28.484L109.392 27.5856C109.44 27.5107 109.502 27.4519 109.577 27.4091C109.652 27.3663 109.735 27.3449 109.825 27.3449C109.948 27.3449 110.085 27.4037 110.235 27.5214C110.384 27.6337 110.563 27.7594 110.772 27.8984C110.986 28.0321 111.243 28.1578 111.542 28.2754C111.841 28.3877 112.2 28.4439 112.617 28.4439C113.296 28.4439 113.82 28.2781 114.189 27.9465C114.563 27.615 114.751 27.1578 114.751 26.5749C114.751 26.2487 114.673 25.984 114.518 25.7807C114.363 25.5722 114.157 25.3984 113.9 25.2594C113.649 25.1203 113.36 25.0027 113.034 24.9064C112.708 24.8102 112.376 24.7086 112.039 24.6016C111.702 24.4893 111.371 24.361 111.045 24.2166C110.718 24.0668 110.427 23.8743 110.17 23.639C109.919 23.3984 109.716 23.1043 109.561 22.7567C109.406 22.4037 109.328 21.9652 109.328 21.4412C109.328 21.0241 109.408 20.6203 109.569 20.2299C109.735 19.8396 109.972 19.4947 110.283 19.1952C110.598 18.8904 110.986 18.6471 111.446 18.4652C111.906 18.2834 112.43 18.1925 113.018 18.1925C113.681 18.1925 114.288 18.2968 114.839 18.5053C115.395 18.7139 115.874 19.0107 116.275 19.3957L115.817 20.2941Z" fill="white"/>
<path d="M119.846 18V29.8717H118.121V18H119.846Z" fill="white"/>
<path d="M126.346 26.2941C125.731 26.3155 125.212 26.3663 124.79 26.4465C124.367 26.5214 124.025 26.6203 123.763 26.7433C123.501 26.861 123.311 27.0027 123.193 27.1684C123.081 27.3342 123.025 27.516 123.025 27.7139C123.025 27.9064 123.054 28.0722 123.113 28.2112C123.177 28.3449 123.263 28.4572 123.37 28.5481C123.482 28.6337 123.611 28.6979 123.755 28.7406C123.905 28.7781 124.068 28.7968 124.244 28.7968C124.693 28.7968 125.078 28.7139 125.399 28.5481C125.726 28.377 126.041 28.131 126.346 27.8102V26.2941ZM121.774 22.8289C122.699 21.9679 123.8 21.5374 125.078 21.5374C125.549 21.5374 125.966 21.615 126.33 21.7701C126.699 21.9198 127.006 22.1337 127.252 22.4118C127.504 22.6898 127.693 23.0214 127.822 23.4064C127.955 23.7861 128.022 24.2086 128.022 24.6738V29.8717H127.252C127.086 29.8717 126.961 29.8476 126.875 29.7995C126.79 29.746 126.718 29.6417 126.659 29.4866L126.49 28.8209C126.282 29.008 126.076 29.1765 125.873 29.3262C125.669 29.4706 125.458 29.5936 125.239 29.6952C125.025 29.7968 124.792 29.8717 124.541 29.9198C124.295 29.9733 124.022 30 123.723 30C123.391 30 123.081 29.9545 122.792 29.8636C122.509 29.7727 122.263 29.6364 122.054 29.4545C121.846 29.2674 121.68 29.0374 121.557 28.7647C121.439 28.492 121.381 28.1711 121.381 27.8021C121.381 27.4866 121.463 27.1791 121.629 26.8797C121.8 26.5802 122.078 26.3128 122.463 26.0775C122.854 25.8369 123.365 25.639 123.996 25.484C124.632 25.3289 125.415 25.2406 126.346 25.2193V24.6738C126.346 24.0856 126.22 23.6471 125.969 23.3583C125.718 23.0695 125.349 22.9251 124.862 22.9251C124.53 22.9251 124.252 22.9679 124.028 23.0535C123.803 23.1337 123.608 23.2219 123.442 23.3182C123.276 23.4144 123.129 23.5053 123.001 23.5909C122.873 23.6711 122.736 23.7112 122.592 23.7112C122.474 23.7112 122.373 23.6818 122.287 23.623C122.207 23.5588 122.14 23.4813 122.086 23.3904L121.774 22.8289Z" fill="white"/>
<path d="M135.826 23.2941C135.773 23.3636 135.722 23.4171 135.674 23.4545C135.625 23.492 135.556 23.5107 135.465 23.5107C135.374 23.5107 135.278 23.4786 135.176 23.4144C135.08 23.3503 134.962 23.2807 134.823 23.2059C134.69 23.1257 134.527 23.0535 134.334 22.9893C134.142 22.9251 133.901 22.893 133.612 22.893C133.238 22.893 132.909 22.9599 132.625 23.0936C132.347 23.2273 132.112 23.4198 131.92 23.6711C131.732 23.9171 131.591 24.2193 131.494 24.5775C131.404 24.9305 131.358 25.3289 131.358 25.7727C131.358 26.2326 131.409 26.6417 131.51 27C131.612 27.3583 131.756 27.6604 131.944 27.9064C132.136 28.1524 132.366 28.3396 132.633 28.4679C132.906 28.5963 133.211 28.6604 133.548 28.6604C133.879 28.6604 134.15 28.6203 134.358 28.5401C134.567 28.4599 134.74 28.3717 134.879 28.2754C135.019 28.1791 135.136 28.0909 135.232 28.0107C135.334 27.9305 135.441 27.8904 135.553 27.8904C135.692 27.8904 135.799 27.9438 135.874 28.0508L136.363 28.6845C136.166 28.9251 135.946 29.1283 135.706 29.2941C135.465 29.4599 135.211 29.5963 134.944 29.7032C134.676 29.8048 134.398 29.877 134.109 29.9198C133.821 29.9679 133.529 29.992 133.235 29.992C132.727 29.992 132.251 29.8984 131.807 29.7112C131.369 29.5187 130.984 29.2433 130.652 28.885C130.326 28.5214 130.067 28.0802 129.874 27.5615C129.687 27.0374 129.593 26.4412 129.593 25.7727C129.593 25.1684 129.679 24.6096 129.85 24.0963C130.021 23.5775 130.27 23.131 130.596 22.7567C130.928 22.3824 131.337 22.0909 131.823 21.8824C132.31 21.6684 132.871 21.5615 133.508 21.5615C134.101 21.5615 134.623 21.6578 135.072 21.8503C135.527 22.0428 135.93 22.3155 136.283 22.6684L135.826 23.2941Z" fill="white"/>
<path d="M139.475 18V24.8824H139.844C139.962 24.8824 140.058 24.8663 140.133 24.8342C140.208 24.8021 140.285 24.7353 140.366 24.6337L142.66 22.0107C142.74 21.9037 142.828 21.8235 142.924 21.7701C143.021 21.7166 143.144 21.6898 143.293 21.6898H144.858L142.098 24.8021C141.938 25.0107 141.761 25.1765 141.569 25.2995C141.676 25.3743 141.769 25.4599 141.85 25.5561C141.93 25.6471 142.007 25.7513 142.082 25.869L145.026 29.8717H143.486C143.347 29.8717 143.227 29.8503 143.125 29.8075C143.029 29.7594 142.943 29.6738 142.868 29.5508L140.502 26.3422C140.422 26.2193 140.342 26.1417 140.261 26.1096C140.181 26.0722 140.061 26.0535 139.9 26.0535H139.475V29.8717H137.751V18H139.475Z" fill="white"/>
</g>
<defs>
<filter id="filter0_b_50_2028" x="-29.5225" y="-30" width="216.549" height="108" filterUnits="userSpaceOnUse" color-interpolation-filters="sRGB">
<feFlood flood-opacity="0" result="BackgroundImageFix"/>
<feGaussianBlur in="BackgroundImageFix" stdDeviation="15"/>
<feComposite in2="SourceAlpha" operator="in" result="effect1_backgroundBlur_50_2028"/>
<feBlend mode="normal" in="SourceGraphic" in2="effect1_backgroundBlur_50_2028" result="shape"/>
</filter>
</defs>
</svg>
