<svg width="161" height="48" viewBox="0 0 161 48" fill="none" xmlns="http://www.w3.org/2000/svg">
<g filter="url(#filter0_b_50_1978)">
<rect width="160.148" height="48" rx="5" fill="black" fill-opacity="0.35"/>
<path d="M33.7448 25.0173C33.7606 23.7908 34.0864 22.5882 34.6919 21.5214C35.2973 20.4546 36.1628 19.5583 37.2078 18.9158C36.544 17.9678 35.6682 17.1875 34.6501 16.6371C33.632 16.0867 32.4995 15.7813 31.3427 15.7451C28.8751 15.4861 26.4828 17.2217 25.2253 17.2217C23.9435 17.2217 22.0074 15.7708 19.9226 15.8137C18.5741 15.8573 17.2598 16.2494 16.1079 16.9519C14.956 17.6544 14.0057 18.6434 13.3496 19.8223C10.5076 24.7429 12.6275 31.9744 15.3499 35.9518C16.712 37.8994 18.3039 40.075 20.3868 39.9978C22.4251 39.9133 23.1864 38.6981 25.6468 38.6981C28.0843 38.6981 28.7986 39.9978 30.9238 39.9488C33.111 39.9132 34.489 37.9925 35.8033 36.0264C36.782 34.6387 37.5351 33.1049 38.0347 31.482C36.764 30.9445 35.6796 30.0449 34.9167 28.8953C34.1539 27.7457 33.7463 26.397 33.7448 25.0173Z" fill="white"/>
<path d="M29.7308 13.1295C30.9234 11.6979 31.5109 9.8578 31.3686 8C29.5467 8.19136 27.8637 9.06213 26.655 10.4388C26.0641 11.1114 25.6115 11.8938 25.3231 12.7413C25.0347 13.5889 24.9162 14.485 24.9743 15.3784C25.8856 15.3878 26.7872 15.1903 27.6111 14.8007C28.435 14.4112 29.1598 13.8398 29.7308 13.1295Z" fill="white"/>
<path d="M60.3287 31.8881H54.1416L52.6558 36.1751H50.0352L55.8955 20.3145H58.6182L64.4786 36.1751H61.8133L60.3287 31.8881ZM54.7824 29.9099H59.6867L57.2691 22.9525H57.2014L54.7824 29.9099Z" fill="white"/>
<path d="M77.1349 30.3939C77.1349 33.9873 75.1666 36.2961 72.1962 36.2961C71.4437 36.3345 70.6954 36.1652 70.0369 35.8074C69.3784 35.4496 68.8363 34.9178 68.4727 34.2729H68.4165V40.0005H65.9873V24.6114H68.3386V26.5347H68.3833C68.7636 25.893 69.3149 25.364 69.9784 25.004C70.6419 24.644 71.3929 24.4665 72.1515 24.4904C75.155 24.4904 77.1349 26.8104 77.1349 30.3939ZM74.6381 30.3939C74.6381 28.0527 73.3999 26.5135 71.5107 26.5135C69.6547 26.5135 68.4063 28.0851 68.4063 30.3939C68.4063 32.7238 69.6547 34.2842 71.5107 34.2842C73.3999 34.2842 74.6381 32.7563 74.6381 30.3939Z" fill="white"/>
<path d="M90.1603 30.3939C90.1603 33.9873 88.1919 36.2961 85.2216 36.2961C84.4691 36.3345 83.7208 36.1652 83.0623 35.8074C82.4037 35.4496 81.8617 34.9178 81.4981 34.2729H81.4418V40.0005H79.0127V24.6114H81.364V26.5347H81.4086C81.789 25.893 82.3402 25.3639 83.0038 25.004C83.6673 24.644 84.4183 24.4665 85.1768 24.4904C88.1805 24.4904 90.1603 26.8104 90.1603 30.3939ZM87.6635 30.3939C87.6635 28.0527 86.4253 26.5135 84.5361 26.5135C82.6801 26.5135 81.4317 28.0851 81.4317 30.3939C81.4317 32.7238 82.6801 34.2842 84.5361 34.2842C86.4253 34.2842 87.6635 32.7562 87.6635 30.3939H87.6635Z" fill="white"/>
<path d="M98.7689 31.7557C98.9489 33.3286 100.513 34.3613 102.649 34.3613C104.697 34.3613 106.17 33.3285 106.17 31.9103C106.17 30.6793 105.281 29.9421 103.178 29.437L101.074 28.9418C98.0936 28.2383 96.7099 26.8763 96.7099 24.666C96.7099 21.9295 99.1505 20.0498 102.616 20.0498C106.046 20.0498 108.397 21.9295 108.477 24.666H106.024C105.878 23.0832 104.539 22.1278 102.582 22.1278C100.625 22.1278 99.2858 23.0945 99.2858 24.5014C99.2858 25.6227 100.141 26.2826 102.233 26.7877L104.022 27.2167C107.352 27.9863 108.736 29.2935 108.736 31.6134C108.736 34.5808 106.317 36.4392 102.469 36.4392C98.8697 36.4392 96.4392 34.6244 96.2822 31.7556L98.7689 31.7557Z" fill="white"/>
<path d="M113.978 21.875V24.6116H116.228V26.4912H113.978V32.8662C113.978 33.8565 114.428 34.318 115.418 34.318C115.685 34.3135 115.952 34.2951 116.217 34.2631V36.1316C115.772 36.2128 115.32 36.2495 114.867 36.2413C112.471 36.2413 111.537 35.362 111.537 33.1193V26.4912H109.816V24.6116H111.537V21.875H113.978Z" fill="white"/>
<path d="M117.532 30.3934C117.532 26.755 119.725 24.4688 123.145 24.4688C126.576 24.4688 128.759 26.755 128.759 30.3934C128.759 34.0417 126.588 36.3181 123.145 36.3181C119.703 36.3181 117.532 34.0417 117.532 30.3934ZM126.284 30.3934C126.284 27.8976 125.113 26.4245 123.145 26.4245C121.177 26.4245 120.007 27.9088 120.007 30.3934C120.007 32.8992 121.177 34.3611 123.145 34.3611C125.113 34.3611 126.284 32.8992 126.284 30.3934H126.284Z" fill="white"/>
<path d="M130.762 24.6113H133.079V26.5795H133.135C133.292 25.9648 133.66 25.4215 134.178 25.0411C134.697 24.6606 135.333 24.4661 135.981 24.4903C136.261 24.4893 136.54 24.519 136.814 24.5789V26.799C136.46 26.6935 136.092 26.6451 135.722 26.6556C135.369 26.6416 135.017 26.7024 134.691 26.8338C134.364 26.9652 134.071 27.1641 133.83 27.4169C133.59 27.6696 133.408 27.9703 133.298 28.2981C133.187 28.6259 133.151 28.9732 133.191 29.3161V36.175H130.762L130.762 24.6113Z" fill="white"/>
<path d="M148.013 32.7782C147.686 34.8774 145.594 36.3181 142.917 36.3181C139.475 36.3181 137.338 34.0642 137.338 30.4483C137.338 26.8212 139.486 24.4688 142.815 24.4688C146.089 24.4688 148.148 26.6665 148.148 30.1726V30.9859H139.79V31.1293C139.751 31.5549 139.806 31.9836 139.95 32.387C140.094 32.7904 140.324 33.1592 140.625 33.469C140.926 33.7788 141.292 34.0225 141.696 34.1838C142.101 34.3451 142.537 34.4204 142.974 34.4047C143.548 34.4573 144.124 34.3273 144.616 34.0343C145.108 33.7412 145.491 33.3007 145.707 32.7782L148.013 32.7782ZM139.802 29.327H145.718C145.74 28.9443 145.68 28.5614 145.544 28.2022C145.407 27.843 145.195 27.5154 144.923 27.2398C144.65 26.9642 144.322 26.7467 143.96 26.6008C143.597 26.4549 143.207 26.3838 142.815 26.3921C142.42 26.3898 142.028 26.464 141.662 26.6106C141.295 26.7571 140.963 26.9731 140.683 27.2459C140.402 27.5188 140.18 27.8432 140.029 28.2004C139.878 28.5575 139.8 28.9404 139.802 29.327V29.327Z" fill="white"/>
<path d="M54.4783 8.37584C54.9876 8.34013 55.4986 8.4153 55.9746 8.59595C56.4505 8.77659 56.8795 9.05819 57.2306 9.42045C57.5816 9.7827 57.8461 10.2166 58.0047 10.6908C58.1634 11.165 58.2124 11.6677 58.1482 12.1626C58.1482 14.5973 56.8015 15.9969 54.4783 15.9969H51.6611V8.37584H54.4783ZM52.8725 14.9191H54.343C54.7069 14.9403 55.0711 14.882 55.409 14.7484C55.747 14.6148 56.0502 14.4092 56.2966 14.1467C56.543 13.8841 56.7263 13.5712 56.8333 13.2307C56.9403 12.8901 56.9683 12.5306 56.9151 12.1782C56.9644 11.8271 56.9336 11.4698 56.825 11.1318C56.7164 10.7937 56.5325 10.4833 56.2867 10.2229C56.0409 9.96242 55.7391 9.7583 55.4031 9.62517C55.0671 9.49204 54.7051 9.43318 54.343 9.45281H52.8725V14.9191Z" fill="white"/>
<path d="M59.517 13.1179C59.48 12.7399 59.5243 12.3586 59.6469 11.9983C59.7696 11.6381 59.968 11.3068 60.2293 11.0258C60.4907 10.7449 60.8092 10.5204 61.1646 10.3668C61.5199 10.2131 61.9042 10.1338 62.2928 10.1338C62.6813 10.1338 63.0656 10.2131 63.4209 10.3668C63.7763 10.5204 64.0948 10.7449 64.3562 11.0258C64.6175 11.3068 64.8159 11.6381 64.9386 11.9983C65.0612 12.3586 65.1055 12.7399 65.0685 13.1179C65.1062 13.4962 65.0625 13.8781 64.9401 14.2389C64.8178 14.5998 64.6195 14.9316 64.3581 15.2132C64.0967 15.4947 63.7779 15.7196 63.4222 15.8736C63.0665 16.0275 62.6818 16.1071 62.2928 16.1071C61.9037 16.1071 61.519 16.0275 61.1633 15.8736C60.8076 15.7196 60.4888 15.4947 60.2274 15.2132C59.966 14.9316 59.7677 14.5998 59.6454 14.2389C59.5231 13.8781 59.4793 13.4962 59.517 13.1179ZM63.8737 13.1179C63.8737 11.8712 63.3005 11.1422 62.2947 11.1422C61.285 11.1422 60.717 11.8712 60.717 13.1179C60.717 14.3746 61.285 15.098 62.2947 15.098C63.3006 15.098 63.8737 14.3695 63.8737 13.1179H63.8737Z" fill="white"/>
<path d="M72.447 15.9964H71.242L70.0255 11.7606H69.9336L68.7222 15.9964H67.5287L65.9062 10.2451H67.0845L68.1388 14.6337H68.2256L69.4357 10.2451H70.5501L71.7602 14.6337H71.8521L72.9014 10.2451H74.063L72.447 15.9964Z" fill="white"/>
<path d="M75.4277 10.2456H76.5459V11.1592H76.6327C76.78 10.8311 77.0284 10.556 77.3432 10.3723C77.658 10.1887 78.0237 10.1055 78.3892 10.1346C78.6756 10.1135 78.9631 10.1557 79.2306 10.258C79.498 10.3603 79.7385 10.5201 79.9341 10.7255C80.1298 10.931 80.2756 11.1768 80.3608 11.4448C80.4461 11.7128 80.4685 11.9961 80.4265 12.2737V15.9968H79.2649V12.5587C79.2649 11.6345 78.8538 11.1748 77.9948 11.1748C77.8003 11.166 77.6062 11.1983 77.4257 11.2696C77.2453 11.3409 77.0827 11.4495 76.9493 11.588C76.8158 11.7264 76.7145 11.8914 76.6524 12.0716C76.5902 12.2519 76.5687 12.4431 76.5893 12.6323V15.9969H75.4277L75.4277 10.2456Z" fill="white"/>
<path d="M82.2773 8H83.4389V15.9964H82.2773V8Z" fill="white"/>
<path d="M85.0541 13.118C85.0171 12.74 85.0614 12.3586 85.1841 11.9984C85.3068 11.6381 85.5052 11.3068 85.7666 11.0259C86.0279 10.7449 86.3465 10.5204 86.7019 10.3668C87.0573 10.2131 87.4416 10.1338 87.8302 10.1338C88.2187 10.1338 88.603 10.2131 88.9584 10.3668C89.3138 10.5204 89.6324 10.7449 89.8937 11.0259C90.1551 11.3068 90.3535 11.6381 90.4762 11.9984C90.5989 12.3586 90.6432 12.74 90.6062 13.118C90.6438 13.4963 90.6001 13.8782 90.4777 14.2391C90.3553 14.5999 90.1571 14.9318 89.8956 15.2133C89.6342 15.4948 89.3154 15.7197 88.9596 15.8737C88.6039 16.0276 88.2192 16.1072 87.8302 16.1072C87.4411 16.1072 87.0564 16.0276 86.7007 15.8737C86.3449 15.7197 86.0261 15.4948 85.7647 15.2133C85.5032 14.9318 85.305 14.5999 85.1826 14.2391C85.0602 13.8782 85.0165 13.4963 85.0541 13.118ZM89.4107 13.118C89.4107 11.8713 88.8376 11.1423 87.8317 11.1423C86.822 11.1423 86.2541 11.8713 86.2541 13.118C86.2541 14.3747 86.8221 15.0981 87.8317 15.0981C88.8376 15.0981 89.4108 14.3697 89.4108 13.118H89.4107Z" fill="white"/>
<path d="M91.8291 14.3696C91.8291 13.3343 92.618 12.7375 94.0183 12.6527L95.6126 12.5629V12.0665C95.6126 11.459 95.2016 11.116 94.4076 11.116C93.7592 11.116 93.3098 11.3487 93.1809 11.7553H92.0563C92.175 10.7674 93.126 10.1338 94.4612 10.1338C95.9368 10.1338 96.7691 10.8516 96.7691 12.0665V15.9961H95.6509V15.1878H95.559C95.3724 15.4778 95.1105 15.7141 94.7999 15.8727C94.4893 16.0314 94.1412 16.1067 93.7911 16.0908C93.544 16.1159 93.2942 16.0902 93.058 16.0152C92.8217 15.9402 92.6041 15.8177 92.4193 15.6556C92.2344 15.4934 92.0864 15.2952 91.9847 15.0737C91.8831 14.8522 91.8301 14.6123 91.8291 14.3696ZM95.6126 13.8782V13.3973L94.1753 13.4871C93.3647 13.5401 92.9971 13.8096 92.9971 14.3166C92.9971 14.8342 93.4566 15.1354 94.0885 15.1354C94.2737 15.1537 94.4607 15.1355 94.6385 15.0817C94.8162 15.028 94.9811 14.9398 95.1233 14.8225C95.2655 14.7052 95.3821 14.5611 95.4662 14.3989C95.5502 14.2367 95.6 14.0596 95.6126 13.8782Z" fill="white"/>
<path d="M98.2959 13.1183C98.2959 11.301 99.252 10.1497 100.739 10.1497C101.107 10.1332 101.472 10.2193 101.792 10.3979C102.111 10.5766 102.372 10.8405 102.544 11.1587H102.631V8H103.792V15.9964H102.679V15.0877H102.587C102.402 15.4039 102.132 15.6645 101.806 15.8413C101.481 16.0182 101.112 16.1046 100.739 16.0912C99.2418 16.0913 98.2959 14.94 98.2959 13.1183ZM99.4958 13.1183C99.4958 14.3382 100.084 15.0722 101.068 15.0722C102.048 15.0722 102.653 14.3276 102.653 13.1233C102.653 11.9246 102.041 11.1694 101.068 11.1694C100.091 11.1694 99.4958 11.9084 99.4958 13.1183H99.4958Z" fill="white"/>
<path d="M108.598 13.1179C108.561 12.7399 108.605 12.3586 108.728 11.9983C108.851 11.6381 109.049 11.3068 109.31 11.0258C109.572 10.7449 109.89 10.5204 110.246 10.3668C110.601 10.2131 110.985 10.1338 111.374 10.1338C111.762 10.1338 112.147 10.2131 112.502 10.3668C112.857 10.5204 113.176 10.7449 113.437 11.0258C113.699 11.3068 113.897 11.6381 114.02 11.9983C114.142 12.3586 114.187 12.7399 114.15 13.1179C114.187 13.4962 114.144 13.8781 114.021 14.2389C113.899 14.5998 113.701 14.9316 113.439 15.2132C113.178 15.4947 112.859 15.7196 112.503 15.8736C112.148 16.0275 111.763 16.1071 111.374 16.1071C110.985 16.1071 110.6 16.0275 110.244 15.8736C109.889 15.7196 109.57 15.4947 109.308 15.2132C109.047 14.9316 108.849 14.5998 108.726 14.2389C108.604 13.8781 108.56 13.4962 108.598 13.1179ZM112.955 13.1179C112.955 11.8712 112.382 11.1422 111.376 11.1422C110.366 11.1422 109.798 11.8712 109.798 13.1179C109.798 14.3746 110.366 15.098 111.376 15.098C112.382 15.098 112.955 14.3695 112.955 13.1179Z" fill="white"/>
<path d="M115.708 10.2456H116.826V11.1592H116.913C117.06 10.8311 117.309 10.556 117.623 10.3723C117.938 10.1887 118.304 10.1055 118.669 10.1346C118.956 10.1135 119.243 10.1557 119.511 10.258C119.778 10.3603 120.019 10.5201 120.214 10.7255C120.41 10.931 120.556 11.1768 120.641 11.4448C120.726 11.7128 120.749 11.9961 120.707 12.2737V15.9968H119.545V12.5587C119.545 11.6345 119.134 11.1748 118.275 11.1748C118.081 11.166 117.886 11.1983 117.706 11.2696C117.526 11.3409 117.363 11.4495 117.23 11.588C117.096 11.7264 116.995 11.8914 116.933 12.0716C116.871 12.2519 116.849 12.4431 116.87 12.6323V15.9969H115.708V10.2456Z" fill="white"/>
<path d="M127.27 8.81348V10.2716H128.545V11.2276H127.27V14.185C127.27 14.7874 127.524 15.0512 128.102 15.0512C128.25 15.0507 128.398 15.042 128.545 15.025V15.9705C128.337 16.0069 128.125 16.0263 127.913 16.0284C126.622 16.0284 126.107 15.5844 126.107 14.4756V11.2276H125.173V10.2715H126.107V8.81348H127.27Z" fill="white"/>
<path d="M130.133 8H131.284V11.1694H131.376C131.531 10.8382 131.786 10.5615 132.107 10.3772C132.428 10.1928 132.8 10.1097 133.171 10.1391C133.456 10.124 133.74 10.1704 134.005 10.2752C134.269 10.38 134.507 10.5405 134.7 10.7453C134.894 10.9501 135.039 11.1941 135.125 11.46C135.211 11.7258 135.236 12.0069 135.198 12.2832V15.9964H134.035V12.5632C134.035 11.6446 133.597 11.1793 132.776 11.1793C132.577 11.1633 132.376 11.1902 132.188 11.2579C132 11.3257 131.83 11.4328 131.688 11.5716C131.547 11.7105 131.439 11.8779 131.371 12.062C131.303 12.2461 131.277 12.4425 131.294 12.6374V15.9964H130.133L130.133 8Z" fill="white"/>
<path d="M141.97 14.4433C141.812 14.9689 141.47 15.4236 141.004 15.7278C140.538 16.0319 139.977 16.1662 139.42 16.1072C139.032 16.1172 138.647 16.0446 138.29 15.8945C137.934 15.7444 137.616 15.5203 137.357 15.2379C137.098 14.9554 136.906 14.6214 136.792 14.2589C136.679 13.8964 136.648 13.5141 136.701 13.1386C136.649 12.762 136.681 12.3789 136.794 12.0153C136.907 11.6517 137.099 11.3161 137.356 11.0312C137.613 10.7463 137.93 10.5187 138.286 10.3639C138.641 10.2091 139.026 10.1306 139.415 10.1339C141.052 10.1339 142.04 11.2272 142.04 13.0332V13.4293H137.884V13.4929C137.866 13.7039 137.893 13.9164 137.964 14.1166C138.035 14.3168 138.147 14.5003 138.295 14.6554C138.443 14.8106 138.622 14.9339 138.821 15.0174C139.02 15.1009 139.235 15.1428 139.452 15.1405C139.73 15.1731 140.011 15.1242 140.26 15C140.51 14.8759 140.716 14.6821 140.852 14.4432L141.97 14.4433ZM137.884 12.5898H140.857C140.872 12.3968 140.845 12.2029 140.778 12.0206C140.712 11.8383 140.607 11.6717 140.47 11.5314C140.334 11.3911 140.169 11.2802 139.986 11.2059C139.803 11.1316 139.606 11.0955 139.408 11.0999C139.207 11.0975 139.008 11.1343 138.822 11.2083C138.636 11.2823 138.467 11.392 138.325 11.5308C138.183 11.6697 138.071 11.8349 137.995 12.0168C137.919 12.1987 137.882 12.3935 137.884 12.5898H137.884Z" fill="white"/>
</g>
<defs>
<filter id="filter0_b_50_1978" x="-30" y="-30" width="220.147" height="108" filterUnits="userSpaceOnUse" color-interpolation-filters="sRGB">
<feFlood flood-opacity="0" result="BackgroundImageFix"/>
<feGaussianBlur in="BackgroundImageFix" stdDeviation="15"/>
<feComposite in2="SourceAlpha" operator="in" result="effect1_backgroundBlur_50_1978"/>
<feBlend mode="normal" in="SourceGraphic" in2="effect1_backgroundBlur_50_1978" result="shape"/>
</filter>
</defs>
</svg>
