<svg width="23" height="23" viewBox="0 0 23 23" fill="none" xmlns="http://www.w3.org/2000/svg">
<path id="Union" fill-rule="evenodd" clip-rule="evenodd" d="M1.26515 3.94623L3.66159 11.3701C4.05 12.572 4.6143 13.6932 5.32517 14.7119L6.38782 13.6493C5.83085 12.8138 5.36915 11.9051 5.05402 10.923L2.90675 4.26136C5.13463 3.98287 8.60837 5.54386 11.8036 8.23344L14.6178 5.41927C12.5951 3.69706 10.4552 2.37059 8.43981 1.63041C5.68427 0.619063 3.44173 0.78762 2.12259 2.11409C1.77815 2.45853 1.51432 2.89092 1.32378 3.38193C1.32378 3.38926 1.31645 3.40392 1.30912 3.41125C1.30546 3.42224 1.29996 3.43323 1.29446 3.44422C1.28897 3.45522 1.28347 3.46621 1.27981 3.4772C1.26515 3.5285 1.25782 3.5798 1.25049 3.6311L1.25049 3.6311C1.25049 3.63843 1.24866 3.64576 1.24683 3.65309C1.245 3.66042 1.24316 3.66775 1.24316 3.67507C1.24316 3.76302 1.24316 3.84363 1.27248 3.93157V3.95356L1.26515 3.94623ZM15.2114 3.89518L17.8057 5.33891L19.2494 7.93322C19.3813 8.16773 19.6231 8.30697 19.887 8.30697H19.9749C20.2754 8.27033 20.5172 8.0578 20.5905 7.76466L22.1368 1.90181C22.2028 1.65264 22.1368 1.38148 21.9463 1.19827C21.7558 1.01505 21.4919 0.941767 21.2428 1.00772L15.3799 2.55405C15.0868 2.62734 14.8742 2.87651 14.8376 3.16965C14.801 3.46279 14.9475 3.75594 15.2114 3.90251V3.89518ZM6.33633 17.1967C6.26304 17.0208 6.1238 16.8889 5.95524 16.8156L4.98054 16.3979C4.10844 16.0241 3.10443 16.2146 2.4302 16.8889L0.392861 18.9262C0.224304 19.0948 0.14369 19.3439 0.19499 19.5858C0.238961 19.8276 0.40019 20.0255 0.627375 20.1208L2.31295 20.8463L3.03847 22.5319C3.13374 22.7517 3.33162 22.9203 3.57346 22.9642C3.61743 22.9716 3.66873 22.9789 3.7127 22.9789C3.90324 22.9789 4.09379 22.9056 4.23303 22.7664L6.27037 20.729C6.9446 20.0548 7.13514 19.0581 6.76138 18.1787L6.34366 17.204L6.33633 17.1967ZM14.9108 11.3409L17.725 8.52669H17.7323C19.4545 10.542 20.781 12.682 21.5212 14.7047C22.5252 17.4602 22.3566 19.7028 21.0375 21.0219C20.6711 21.3957 20.2167 21.6815 19.6744 21.872H19.6597C19.5864 21.9013 19.5058 21.916 19.4252 21.916C19.3519 21.916 19.2713 21.9013 19.198 21.8793L11.7742 19.4829C10.5723 19.0945 9.44372 18.5302 8.43237 17.8193L9.49502 16.7567C10.3378 17.3136 11.2465 17.7753 12.2212 18.0905L18.8829 20.2377C19.1614 18.0099 17.5931 14.5361 14.9108 11.3409ZM16.0611 6.04972L16.728 6.41615L17.0944 7.08305L7.63326 16.5442C7.42073 16.0899 7.05431 15.7308 6.59993 15.5109L16.0611 6.04972Z" fill="url(#paint0_angular_310_8052)"/>
<defs>
<radialGradient id="paint0_angular_310_8052" cx="0" cy="0" r="1" gradientUnits="userSpaceOnUse" gradientTransform="translate(11.1737 11.9787) scale(10.994 11.0002)">
<stop stop-color="#A06939"/>
<stop offset="0.313195" stop-color="#C6A27E"/>
<stop offset="0.75531" stop-color="#FBF3E0"/>
<stop offset="1" stop-color="#957C50"/>
</radialGradient>
</defs>
</svg>
