<svg width="21" height="21" viewBox="0 0 21 21" fill="none" xmlns="http://www.w3.org/2000/svg">
<path id="Vector" d="M7.4535 11.7617C7.10311 11.4113 7.04959 10.8616 7.32577 10.4503L12.6258 2.55222C12.6918 2.45378 12.7672 2.36198 12.8512 2.278C13.1281 2.00104 13.4867 1.82018 13.8739 1.76237L19.0012 0.995569C19.4872 0.922912 19.979 1.08502 20.3262 1.43229C20.6735 1.77956 20.8356 2.27136 20.763 2.7573L19.9958 7.88467C19.938 8.27179 19.7571 8.63038 19.4801 8.90734C19.3962 8.99132 19.3044 9.06671 19.2059 9.13273L11.3082 14.4328C10.8965 14.7089 10.3473 14.6554 9.99688 14.305L9.95664 14.2648C9.54844 13.8566 9.55195 13.1933 9.96524 12.7894L14.2563 8.59562C14.5418 8.31671 14.5512 7.86085 14.2778 7.56983C13.9969 7.271 13.5254 7.26123 13.2321 7.54795L8.91171 11.7702C8.50546 12.1671 7.85546 12.1636 7.4535 11.7617ZM14.1305 15.1089C13.741 14.7285 13.1383 14.673 12.686 14.9765L10.9414 16.1472C10.4852 16.4535 9.87617 16.3941 9.4875 16.0054L5.75271 12.2706C5.36404 11.882 5.30466 11.273 5.61091 10.8167L6.78162 9.07218C7.08514 8.62022 7.02967 8.0171 6.6492 7.62764C6.13943 7.10615 5.27888 7.18506 4.87224 7.79053L3.7066 9.52726C2.77066 10.9222 2.95191 12.7843 4.13981 13.9722L4.8445 14.6769L4.2488 15.3011C3.85661 15.6933 3.28395 15.8543 2.74918 15.7078C2.2273 15.5648 1.64565 15.6976 1.23432 16.1058C0.617132 16.7187 0.635491 17.725 1.25073 18.3398L3.41832 20.5074C4.04059 21.1297 5.06091 21.1414 5.67107 20.5074C6.0656 20.0972 6.19256 19.525 6.05193 19.0101C5.90545 18.475 6.06638 17.9027 6.45857 17.5105L7.05506 16.8871L7.78593 17.6179C8.97382 18.8058 10.8359 18.9875 12.2309 18.0511L13.9676 16.8855C14.5731 16.4796 14.6524 15.6191 14.1305 15.1089Z" fill="url(#paint0_angular_310_8002)"/>
<defs>
<radialGradient id="paint0_angular_310_8002" cx="0" cy="0" r="1" gradientUnits="userSpaceOnUse" gradientTransform="translate(10.7801 10.9785) scale(9.99987 10)">
<stop stop-color="#A06939"/>
<stop offset="0.313195" stop-color="#C6A27E"/>
<stop offset="0.75531" stop-color="#FBF3E0"/>
<stop offset="1" stop-color="#957C50"/>
</radialGradient>
</defs>
</svg>
