<svg width="20" height="21" viewBox="0 0 20 21" fill="none" xmlns="http://www.w3.org/2000/svg">
<g clip-path="url(#clip0_342_270)">
<path fill-rule="evenodd" clip-rule="evenodd" d="M20 10.75C20 16.2728 15.5228 20.75 10 20.75C4.47715 20.75 0 16.2728 0 10.75C0 5.22715 4.47715 0.75 10 0.75C15.5228 0.75 20 5.22715 20 10.75ZM10.3584 8.13244C9.38571 8.537 7.44178 9.37433 4.52658 10.6444C4.05319 10.8327 3.80521 11.0168 3.78264 11.1969C3.74449 11.5012 4.12559 11.6211 4.64456 11.7843C4.71515 11.8065 4.78829 11.8295 4.86328 11.8538C5.37386 12.0198 6.06069 12.214 6.41774 12.2217C6.74162 12.2287 7.10311 12.0952 7.5022 11.8211C10.226 9.9825 11.632 9.05317 11.7203 9.03314C11.7825 9.01901 11.8688 9.00123 11.9273 9.0532C11.9858 9.10518 11.98 9.2036 11.9738 9.23C11.9361 9.39095 10.4401 10.7817 9.66593 11.5015C9.42459 11.7259 9.25339 11.885 9.2184 11.9214C9.14 12.0028 9.06011 12.0798 8.98332 12.1538C8.50897 12.6111 8.15326 12.954 9.00301 13.514C9.41137 13.7831 9.73814 14.0056 10.0641 14.2276C10.4201 14.4701 10.7752 14.7119 11.2347 15.0131C11.3517 15.0898 11.4635 15.1695 11.5724 15.2471C11.9867 15.5425 12.359 15.8078 12.8188 15.7655C13.086 15.7409 13.3621 15.4897 13.5022 14.7403C13.8335 12.9693 14.4847 9.13205 14.6352 7.55081C14.6484 7.41227 14.6318 7.23498 14.6185 7.15715C14.6051 7.07931 14.5773 6.96842 14.4761 6.88633C14.3563 6.78911 14.1714 6.76861 14.0886 6.77007C13.7125 6.7767 13.1355 6.97735 10.3584 8.13244Z" fill="#77818C"/>
</g>
<defs>
<clipPath id="clip0_342_270">
<rect width="20" height="20" fill="white" transform="translate(0 0.75)"/>
</clipPath>
</defs>
</svg>
