<svg width="761" height="40" viewBox="0 0 761 40" fill="none" xmlns="http://www.w3.org/2000/svg">
<g opacity="0.6">
<path fill-rule="evenodd" clip-rule="evenodd" d="M161.42 8H155.678L147.5 20L155.678 32H161.42L153.379 20L161.42 8ZM166.22 15.2H164.042L160.94 20L164.042 24.8H166.22V20V15.2Z" fill="#F8EED9"/>
<path d="M149.5 20.5H0" stroke="url(#paint0_linear_51_6455)" stroke-width="2"/>
</g>
<path d="M226.595 11.7969H206.595V31H203.392V8.59375H226.595V11.7969ZM223.845 21.4062H208.188V18.2031H223.845V21.4062ZM253.001 31H229.829V8.59375H253.001V11.7969H233.032V27.7969H253.001V31ZM250.282 21.4062H234.626V18.2031H250.282V21.4062ZM282.454 31H279.251V24.5938H261.376V21.4062H279.251V11.7969H267.767C266.673 11.7969 265.642 12.0104 264.673 12.4375C263.704 12.8542 262.86 13.4271 262.142 14.1562C261.423 14.875 260.85 15.7188 260.423 16.6875C260.006 17.6562 259.798 18.6927 259.798 19.7969V31H256.595V19.7969C256.595 18.7656 256.725 17.776 256.985 16.8281C257.256 15.8698 257.631 14.9792 258.11 14.1562C258.6 13.3229 259.183 12.5677 259.86 11.8906C260.548 11.2031 261.303 10.6146 262.126 10.125C262.959 9.63542 263.85 9.26042 264.798 9C265.746 8.72917 266.735 8.59375 267.767 8.59375H282.454V31ZM299.985 31H296.782V11.7969H285.454V8.59375H311.313V11.7969H299.985V31ZM338.329 8.59375L338.298 19.7969C338.298 20.8385 338.162 21.8385 337.892 22.7969C337.631 23.7448 337.256 24.6354 336.767 25.4688C336.287 26.2917 335.704 27.0469 335.017 27.7344C334.34 28.4115 333.584 28.9948 332.751 29.4844C331.928 29.9635 331.043 30.3385 330.095 30.6094C329.147 30.8698 328.157 31 327.126 31H324.767C323.735 31 322.741 30.8698 321.782 30.6094C320.834 30.3385 319.944 29.9583 319.11 29.4688C318.287 28.9792 317.537 28.3958 316.86 27.7188C316.183 27.0312 315.6 26.276 315.11 25.4531C314.631 24.6198 314.256 23.7292 313.985 22.7812C313.725 21.8229 313.595 20.8281 313.595 19.7969V8.59375H316.798V19.7969C316.798 20.901 317.006 21.9427 317.423 22.9219C317.84 23.8906 318.407 24.7396 319.126 25.4688C319.855 26.1875 320.704 26.7552 321.673 27.1719C322.642 27.5885 323.673 27.7969 324.767 27.7969H327.126C328.23 27.7969 329.267 27.5885 330.235 27.1719C331.204 26.7552 332.048 26.1875 332.767 25.4688C333.485 24.7396 334.053 23.8906 334.47 22.9219C334.886 21.9427 335.095 20.901 335.095 19.7969V8.59375H338.298H338.329ZM368.813 31H364.485L357.767 24.5938H347.954V21.4375H360.813C361.48 21.4375 362.105 21.3125 362.688 21.0625C363.272 20.8021 363.777 20.4531 364.204 20.0156C364.642 19.5781 364.985 19.0677 365.235 18.4844C365.485 17.8906 365.61 17.2604 365.61 16.5938C365.61 15.9271 365.485 15.3021 365.235 14.7188C364.985 14.1354 364.642 13.6302 364.204 13.2031C363.777 12.7656 363.272 12.4219 362.688 12.1719C362.105 11.9219 361.48 11.7969 360.813 11.7969H346.157V31H342.954V8.59375H360.813C361.918 8.59375 362.954 8.80729 363.923 9.23438C364.892 9.65104 365.735 10.224 366.454 10.9531C367.183 11.6719 367.756 12.5156 368.173 13.4844C368.6 14.4531 368.813 15.4896 368.813 16.5938C368.813 17.5938 368.642 18.5417 368.298 19.4375C367.954 20.3229 367.48 21.1198 366.876 21.8281C366.272 22.526 365.558 23.1094 364.735 23.5781C363.923 24.0365 363.043 24.3438 362.095 24.5L368.813 31ZM396.095 31H372.923V8.59375H396.095V11.7969H376.126V27.7969H396.095V31ZM393.376 21.4062H377.72V18.2031H393.376V21.4062ZM426.485 19.7969C426.485 21.349 426.235 22.8073 425.735 24.1719C425.246 25.5365 424.548 26.724 423.642 27.7344C422.735 28.7448 421.647 29.5417 420.376 30.125C419.116 30.7083 417.715 31 416.173 31H404.876V27.7969H416.173C417.277 27.7969 418.267 27.5885 419.142 27.1719C420.027 26.7552 420.772 26.1875 421.376 25.4688C421.991 24.7396 422.459 23.8906 422.782 22.9219C423.116 21.9427 423.282 20.901 423.282 19.7969C423.282 18.6927 423.116 17.6562 422.782 16.6875C422.459 15.7188 421.991 14.875 421.376 14.1562C420.772 13.4271 420.027 12.8542 419.142 12.4375C418.267 12.0104 417.277 11.7969 416.173 11.7969H403.282V31H400.079V8.59375H416.173C417.715 8.59375 419.116 8.89062 420.376 9.48438C421.647 10.0677 422.735 10.8698 423.642 11.8906C424.548 12.901 425.246 14.0885 425.735 15.4531C426.235 16.8073 426.485 18.2552 426.485 19.7969ZM445.782 31H442.579V8.59375H444.173C445.215 8.59375 446.319 8.72917 447.485 9C448.662 9.27083 449.86 9.66146 451.079 10.1719C452.298 10.6823 453.511 11.3021 454.72 12.0312C455.938 12.75 457.116 13.5677 458.251 14.4844C459.386 15.401 460.454 16.401 461.454 17.4844C462.454 18.5573 463.35 19.7031 464.142 20.9219V8.59375H467.345V31H464.142C464.142 29.3542 463.855 27.7708 463.282 26.25C462.709 24.7188 461.944 23.276 460.985 21.9219C460.027 20.5677 458.923 19.3229 457.673 18.1875C456.423 17.0417 455.116 16.0365 453.751 15.1719C452.397 14.3073 451.032 13.599 449.657 13.0469C448.282 12.4844 446.991 12.1094 445.782 11.9219V31ZM495.907 31H472.735V8.59375H495.907V11.7969H475.938V27.7969H495.907V31ZM493.188 21.4062H477.532V18.2031H493.188V21.4062ZM528.751 22.9375C528.751 24.0521 528.537 25.099 528.11 26.0781C527.694 27.0573 527.121 27.9115 526.392 28.6406C525.662 29.3698 524.808 29.9479 523.829 30.375C522.85 30.7917 521.803 31 520.688 31C520.022 31 519.376 30.9271 518.751 30.7812C518.136 30.625 517.553 30.4115 517.001 30.1406C516.449 29.8594 515.933 29.5208 515.454 29.125C514.985 28.7292 514.563 28.2865 514.188 27.7969C513.449 28.776 512.522 29.5573 511.407 30.1406C510.293 30.7135 509.069 31 507.735 31C506.621 31 505.574 30.7917 504.595 30.375C503.616 29.9479 502.761 29.3698 502.032 28.6406C501.303 27.9115 500.725 27.0573 500.298 26.0781C499.881 25.099 499.673 24.0521 499.673 22.9375V8.59375H502.86V22.9375C502.86 23.6146 502.985 24.25 503.235 24.8438C503.496 25.4271 503.845 25.9375 504.282 26.375C504.73 26.8125 505.246 27.1615 505.829 27.4219C506.423 27.6719 507.058 27.7969 507.735 27.7969C508.392 27.7969 509.006 27.6771 509.579 27.4375C510.162 27.1979 510.668 26.8698 511.095 26.4531C511.532 26.0365 511.881 25.5469 512.142 24.9844C512.412 24.4115 512.563 23.8021 512.595 23.1562V22.9375V8.59375H515.829V22.9375C515.829 23.6146 515.954 24.25 516.204 24.8438C516.465 25.4271 516.813 25.9375 517.251 26.375C517.688 26.8125 518.199 27.1615 518.782 27.4219C519.376 27.6719 520.011 27.7969 520.688 27.7969C521.355 27.7969 521.985 27.6719 522.579 27.4219C523.173 27.1615 523.688 26.8125 524.126 26.375C524.574 25.9375 524.923 25.4271 525.173 24.8438C525.433 24.25 525.563 23.6146 525.563 22.9375V8.59375H528.751V22.9375ZM558.657 24.5938C558.657 25.4896 558.491 26.3281 558.157 27.1094C557.824 27.8802 557.366 28.5573 556.782 29.1406C556.209 29.7135 555.532 30.1667 554.751 30.5C553.98 30.8333 553.152 31 552.267 31H532.798V27.7969H552.267C552.715 27.7969 553.131 27.7135 553.517 27.5469C553.902 27.3802 554.235 27.151 554.517 26.8594C554.808 26.5677 555.037 26.2292 555.204 25.8438C555.371 25.4479 555.454 25.0312 555.454 24.5938C555.454 24.1562 555.371 23.7448 555.204 23.3594C555.037 22.974 554.808 22.6354 554.517 22.3438C554.235 22.0521 553.902 21.8229 553.517 21.6562C553.131 21.4896 552.715 21.4062 552.267 21.4062H539.204C538.329 21.4062 537.501 21.2396 536.72 20.9062C535.938 20.5729 535.256 20.1198 534.673 19.5469C534.1 18.9635 533.642 18.2812 533.298 17.5C532.965 16.7188 532.798 15.8854 532.798 15C532.798 14.125 532.965 13.2969 533.298 12.5156C533.642 11.7344 534.1 11.0573 534.673 10.4844C535.256 9.90104 535.938 9.44271 536.72 9.10938C537.501 8.76562 538.329 8.59375 539.204 8.59375H557.063V11.7969H539.204C538.767 11.7969 538.35 11.8802 537.954 12.0469C537.569 12.2135 537.23 12.4427 536.938 12.7344C536.647 13.026 536.418 13.3698 536.251 13.7656C536.084 14.151 536.001 14.5625 536.001 15C536.001 15.4375 536.084 15.8542 536.251 16.25C536.418 16.6354 536.647 16.974 536.938 17.2656C537.23 17.5573 537.569 17.7865 537.954 17.9531C538.35 18.1198 538.767 18.2031 539.204 18.2031H552.267C553.152 18.2031 553.98 18.375 554.751 18.7188C555.532 19.0521 556.209 19.5104 556.782 20.0938C557.366 20.6667 557.824 21.3438 558.157 22.125C558.491 22.8958 558.657 23.7188 558.657 24.5938Z" fill="url(#paint1_angular_51_6455)"/>
<g opacity="0.6">
<path fill-rule="evenodd" clip-rule="evenodd" d="M599.02 8H604.763L612.94 20L604.763 32H599.02L607.062 20L599.02 8ZM594.22 15.2H596.398L599.5 20L596.398 24.8H594.22V20V15.2Z" fill="#F8EED9"/>
<path d="M610.94 20.5H760.44" stroke="url(#paint2_linear_51_6455)" stroke-width="2"/>
</g>
<defs>
<linearGradient id="paint0_linear_51_6455" x1="0" y1="21" x2="149.5" y2="21" gradientUnits="userSpaceOnUse">
<stop stop-color="#F8EED9" stop-opacity="0"/>
<stop offset="1" stop-color="#D8BD9F"/>
</linearGradient>
<radialGradient id="paint1_angular_51_6455" cx="0" cy="0" r="1" gradientUnits="userSpaceOnUse" gradientTransform="translate(380.22 20) scale(180 20)">
<stop stop-color="#A06939"/>
<stop offset="0.313195" stop-color="#C6A27E"/>
<stop offset="0.75531" stop-color="#FBF3E0"/>
<stop offset="1" stop-color="#957C50"/>
</radialGradient>
<linearGradient id="paint2_linear_51_6455" x1="760.44" y1="21" x2="610.94" y2="21" gradientUnits="userSpaceOnUse">
<stop stop-color="#F8EED9" stop-opacity="0"/>
<stop offset="1" stop-color="#D8BD9F"/>
</linearGradient>
</defs>
</svg>
