<svg width="258" height="62" viewBox="0 0 258 62" fill="none" xmlns="http://www.w3.org/2000/svg">
<path d="M4 4H254V58H4V4Z" fill="url(#paint0_radial_71_3249)" fill-opacity="0.58"/>
<path d="M4.65 4.65H253.35V57.35H4.65V4.65Z" stroke="url(#paint1_angular_71_3249)" stroke-opacity="0.27" stroke-width="1.3" stroke-linejoin="bevel"/>
<mask id="path-3-inside-1_71_3249" fill="white">
<path fill-rule="evenodd" clip-rule="evenodd" d="M0.00039053 0H0V3.9H0.000390359L0.000389905 14.3H3.90039L3.90039 3.9H14.3V0H3.90039H0.00039053Z"/>
</mask>
<path fill-rule="evenodd" clip-rule="evenodd" d="M0.00039053 0H0V3.9H0.000390359L0.000389905 14.3H3.90039L3.90039 3.9H14.3V0H3.90039H0.00039053Z" fill="#F2E5CF" fill-opacity="0.78"/>
<path d="M0 0V-1.3H-1.3V0H0ZM0 3.9H-1.3V5.2H0V3.9ZM0.000390359 3.9L1.30039 3.9L1.30039 2.6H0.000390359V3.9ZM0.000389905 14.3L-1.29961 14.3L-1.29961 15.6H0.000389905V14.3ZM3.90039 14.3V15.6H5.20039L5.20039 14.3L3.90039 14.3ZM3.90039 3.9V2.6H2.60039L2.60039 3.9L3.90039 3.9ZM14.3 3.9V5.2H15.6V3.9H14.3ZM14.3 0H15.6V-1.3H14.3V0ZM0 1.3H0.00039053V-1.3H0V1.3ZM1.3 3.9V0H-1.3V3.9H1.3ZM0.000390359 2.6H0V5.2H0.000390359V2.6ZM1.30039 14.3L1.30039 3.9L-1.29961 3.9L-1.29961 14.3L1.30039 14.3ZM3.90039 13H0.000389905V15.6H3.90039V13ZM2.60039 3.9L2.60039 14.3L5.20039 14.3L5.20039 3.9L2.60039 3.9ZM14.3 2.6H3.90039V5.2H14.3V2.6ZM13 0V3.9H15.6V0H13ZM3.90039 1.3H14.3V-1.3H3.90039V1.3ZM0.00039053 1.3H3.90039V-1.3H0.00039053V1.3Z" fill="url(#paint2_angular_71_3249)" fill-opacity="0.27" mask="url(#path-3-inside-1_71_3249)"/>
<mask id="path-5-inside-2_71_3249" fill="white">
<path fill-rule="evenodd" clip-rule="evenodd" d="M257.299 0H257.3V3.9H257.299L257.299 14.3H253.399L253.399 3.9H243V0H253.399H257.299Z"/>
</mask>
<path fill-rule="evenodd" clip-rule="evenodd" d="M257.299 0H257.3V3.9H257.299L257.299 14.3H253.399L253.399 3.9H243V0H253.399H257.299Z" fill="#F2E5CF" fill-opacity="0.78"/>
<path d="M257.3 0V-1.3H258.6V0H257.3ZM257.3 3.9H258.6V5.2H257.3V3.9ZM257.299 3.9L255.999 3.9L255.999 2.6H257.299V3.9ZM257.299 14.3L258.599 14.3L258.599 15.6H257.299V14.3ZM253.399 14.3V15.6H252.099L252.099 14.3L253.399 14.3ZM253.399 3.9V2.6H254.699L254.699 3.9L253.399 3.9ZM243 3.9V5.2H241.7V3.9H243ZM243 0H241.7V-1.3H243V0ZM257.3 1.3H257.299V-1.3H257.3V1.3ZM256 3.9V0H258.6V3.9H256ZM257.299 2.6H257.3V5.2H257.299V2.6ZM255.999 14.3L255.999 3.9L258.599 3.9L258.599 14.3L255.999 14.3ZM253.399 13H257.299V15.6H253.399V13ZM254.699 3.9L254.699 14.3L252.099 14.3L252.099 3.9L254.699 3.9ZM243 2.6H253.399V5.2H243V2.6ZM244.3 0V3.9H241.7V0H244.3ZM253.399 1.3H243V-1.3H253.399V1.3ZM257.299 1.3H253.399V-1.3H257.299V1.3Z" fill="url(#paint3_angular_71_3249)" fill-opacity="0.27" mask="url(#path-5-inside-2_71_3249)"/>
<mask id="path-7-inside-3_71_3249" fill="white">
<path fill-rule="evenodd" clip-rule="evenodd" d="M0.00039053 61.2002H0V57.3002H0.000390359L0.000389905 46.9002H3.90039L3.90039 57.3002H14.3V61.2002H3.90039H0.00039053Z"/>
</mask>
<path fill-rule="evenodd" clip-rule="evenodd" d="M0.00039053 61.2002H0V57.3002H0.000390359L0.000389905 46.9002H3.90039L3.90039 57.3002H14.3V61.2002H3.90039H0.00039053Z" fill="#F2E5CF" fill-opacity="0.78"/>
<path d="M0 61.2002V62.5002H-1.3V61.2002H0ZM0 57.3002H-1.3V56.0002H0V57.3002ZM0.000390359 57.3002L1.30039 57.3002L1.30039 58.6002H0.000390359V57.3002ZM0.000389905 46.9002L-1.29961 46.9002L-1.29961 45.6002H0.000389905V46.9002ZM3.90039 46.9002V45.6002H5.20039L5.20039 46.9002L3.90039 46.9002ZM3.90039 57.3002V58.6002H2.60039L2.60039 57.3002L3.90039 57.3002ZM14.3 57.3002V56.0002H15.6V57.3002H14.3ZM14.3 61.2002H15.6V62.5002H14.3V61.2002ZM0 59.9002H0.00039053V62.5002H0V59.9002ZM1.3 57.3002V61.2002H-1.3V57.3002H1.3ZM0.000390359 58.6002H0V56.0002H0.000390359V58.6002ZM1.30039 46.9002L1.30039 57.3002L-1.29961 57.3002L-1.29961 46.9002L1.30039 46.9002ZM3.90039 48.2002H0.000389905V45.6002H3.90039V48.2002ZM2.60039 57.3002L2.60039 46.9002L5.20039 46.9002L5.20039 57.3002L2.60039 57.3002ZM14.3 58.6002H3.90039V56.0002H14.3V58.6002ZM13 61.2002V57.3002H15.6V61.2002H13ZM3.90039 59.9002H14.3V62.5002H3.90039V59.9002ZM0.00039053 59.9002H3.90039V62.5002H0.00039053V59.9002Z" fill="url(#paint4_angular_71_3249)" fill-opacity="0.27" mask="url(#path-7-inside-3_71_3249)"/>
<mask id="path-9-inside-4_71_3249" fill="white">
<path fill-rule="evenodd" clip-rule="evenodd" d="M257.299 61.2002H257.3V57.3002H257.299L257.299 46.9002H253.399L253.399 57.3002H243V61.2002H253.399H257.299Z"/>
</mask>
<path fill-rule="evenodd" clip-rule="evenodd" d="M257.299 61.2002H257.3V57.3002H257.299L257.299 46.9002H253.399L253.399 57.3002H243V61.2002H253.399H257.299Z" fill="#F2E5CF" fill-opacity="0.78"/>
<path d="M257.3 61.2002V62.5002H258.6V61.2002H257.3ZM257.3 57.3002H258.6V56.0002H257.3V57.3002ZM257.299 57.3002L255.999 57.3002L255.999 58.6002H257.299V57.3002ZM257.299 46.9002L258.599 46.9002L258.599 45.6002H257.299V46.9002ZM253.399 46.9002V45.6002H252.099L252.099 46.9002L253.399 46.9002ZM253.399 57.3002V58.6002H254.699L254.699 57.3002L253.399 57.3002ZM243 57.3002V56.0002H241.7V57.3002H243ZM243 61.2002H241.7V62.5002H243V61.2002ZM257.3 59.9002H257.299V62.5002H257.3V59.9002ZM256 57.3002V61.2002H258.6V57.3002H256ZM257.299 58.6002H257.3V56.0002H257.299V58.6002ZM255.999 46.9002L255.999 57.3002L258.599 57.3002L258.599 46.9002L255.999 46.9002ZM253.399 48.2002H257.299V45.6002H253.399V48.2002ZM254.699 57.3002L254.699 46.9002L252.099 46.9002L252.099 57.3002L254.699 57.3002ZM243 58.6002H253.399V56.0002H243V58.6002ZM244.3 61.2002V57.3002H241.7V61.2002H244.3ZM253.399 59.9002H243V62.5002H253.399V59.9002ZM257.299 59.9002H253.399V62.5002H257.299V59.9002Z" fill="url(#paint5_angular_71_3249)" fill-opacity="0.27" mask="url(#path-9-inside-4_71_3249)"/>
<defs>
<radialGradient id="paint0_radial_71_3249" cx="0" cy="0" r="1" gradientUnits="userSpaceOnUse" gradientTransform="translate(129 31) rotate(90) scale(27 125)">
<stop stop-color="#111923"/>
<stop offset="1" stop-color="#1C2934"/>
</radialGradient>
<radialGradient id="paint1_angular_71_3249" cx="0" cy="0" r="1" gradientUnits="userSpaceOnUse" gradientTransform="translate(129 31) scale(125 27)">
<stop stop-color="#A06939"/>
<stop offset="0.313195" stop-color="#C6A27E"/>
<stop offset="0.75531" stop-color="#FBF3E0"/>
<stop offset="1" stop-color="#957C50"/>
</radialGradient>
<radialGradient id="paint2_angular_71_3249" cx="0" cy="0" r="1" gradientUnits="userSpaceOnUse" gradientTransform="translate(7.15 7.15) scale(7.15)">
<stop stop-color="#A06939"/>
<stop offset="0.313195" stop-color="#C6A27E"/>
<stop offset="0.75531" stop-color="#FBF3E0"/>
<stop offset="1" stop-color="#957C50"/>
</radialGradient>
<radialGradient id="paint3_angular_71_3249" cx="0" cy="0" r="1" gradientUnits="userSpaceOnUse" gradientTransform="translate(250.15 7.15) rotate(180) scale(7.15)">
<stop stop-color="#A06939"/>
<stop offset="0.313195" stop-color="#C6A27E"/>
<stop offset="0.75531" stop-color="#FBF3E0"/>
<stop offset="1" stop-color="#957C50"/>
</radialGradient>
<radialGradient id="paint4_angular_71_3249" cx="0" cy="0" r="1" gradientUnits="userSpaceOnUse" gradientTransform="translate(7.15 54.0502) scale(7.15)">
<stop stop-color="#A06939"/>
<stop offset="0.313195" stop-color="#C6A27E"/>
<stop offset="0.75531" stop-color="#FBF3E0"/>
<stop offset="1" stop-color="#957C50"/>
</radialGradient>
<radialGradient id="paint5_angular_71_3249" cx="0" cy="0" r="1" gradientUnits="userSpaceOnUse" gradientTransform="translate(250.15 54.0502) rotate(180) scale(7.15)">
<stop stop-color="#A06939"/>
<stop offset="0.313195" stop-color="#C6A27E"/>
<stop offset="0.75531" stop-color="#FBF3E0"/>
<stop offset="1" stop-color="#957C50"/>
</radialGradient>
</defs>
</svg>
